<svg width="90" height="90" viewBox="0 0 90 90" fill="none" xmlns="http://www.w3.org/2000/svg">
<circle cx="45" cy="45" r="45" fill="#0032A1"/>
<circle cx="44.5484" cy="44.5484" r="38.7005" fill="#00287F" stroke="#002065" stroke-width="0.89901"/>
<circle cx="45.0008" cy="45.0008" r="15.7505" fill="#0032A0" stroke="#002065" stroke-width="0.89901"/>
<circle cx="44.9984" cy="44.9984" r="8.1" fill="black"/>
<path d="M32.3235 25.5H35.9248C37.959 25.5 38.9607 24.4614 38.9607 23.0786C38.9607 21.7266 38.002 20.94 37.0556 20.8908V20.8048C37.9283 20.5958 38.6104 19.9936 38.6166 18.9119C38.6104 17.5845 37.6579 16.6012 35.7282 16.6012H32.3235V25.5ZM33.9214 24.1603V21.5422H35.7159C36.7114 21.5484 37.3322 22.1568 37.3383 22.9557C37.3322 23.6625 36.8467 24.1603 35.679 24.1603H33.9214ZM33.9214 20.3869V17.9287H35.5684C36.5209 17.9287 37.0126 18.4264 37.0187 19.1086C37.0126 19.9014 36.3734 20.3869 35.5315 20.3869H33.9214ZM41.7631 16.6012H40.1898V25.5H41.7631V16.6012ZM47.5277 22.6976C47.5277 23.7178 46.7902 24.2217 46.1019 24.2217C45.3398 24.2217 44.8359 23.6809 44.8359 22.8328V18.8259H43.2626V23.0786C43.2688 24.6765 44.1783 25.586 45.4996 25.586C46.4952 25.586 47.1958 25.0637 47.5031 24.32H47.5768V25.5H49.0886V18.8259H47.5277V22.6976ZM53.5503 25.6352C55.099 25.6352 56.1683 24.8732 56.451 23.7178H54.9146C54.7118 24.1172 54.2509 24.4122 53.5626 24.4061C52.5486 24.4122 51.8787 23.7362 51.8541 22.5993H56.5125V22.1076C56.5125 19.7662 55.099 18.7399 53.4643 18.7399C51.5592 18.7399 50.3055 20.1411 50.3055 22.206C50.3055 24.2955 51.5407 25.6352 53.5503 25.6352ZM51.8603 21.53C51.9156 20.6819 52.5486 19.9567 53.4889 19.9567C54.3923 19.9567 55.0068 20.6204 55.013 21.53H51.8603Z" fill="white"/>
<path d="M56.7781 66.3008H53.1767C51.1426 66.3008 50.1408 67.3394 50.1408 68.7221C50.1408 70.0742 51.0995 70.8608 52.046 70.91V70.996C51.1733 71.205 50.4911 71.8072 50.485 72.8888C50.4911 74.2163 51.4437 75.1996 53.3734 75.1996H56.7781V66.3008ZM55.1802 67.6405V70.2585H53.3857C52.3901 70.2524 51.7694 69.644 51.7633 68.845C51.7694 68.1383 52.2549 67.6405 53.4226 67.6405H55.1802ZM55.1802 71.4139V73.8721H53.5332C52.5806 73.8721 52.089 73.3743 52.0828 72.6922C52.089 71.8994 52.7281 71.4139 53.5701 71.4139H55.1802ZM47.3385 75.1996H48.9117V66.3008H47.3385V75.1996ZM41.5739 69.1032C41.5739 68.083 42.3114 67.5791 42.9997 67.5791C43.7617 67.5791 44.2657 68.1199 44.2657 68.968V72.9749H45.8389V68.7221C45.8328 67.1243 44.9232 66.2147 43.6019 66.2147C42.6064 66.2147 41.9058 66.7371 41.5985 67.4807H41.5247V66.3008H40.0129V72.9749H41.5739V69.1032ZM35.5512 66.1656C34.0026 66.1656 32.9332 66.9276 32.6505 68.083H34.1869C34.3897 67.6835 34.8506 67.3885 35.5389 67.3947C36.553 67.3885 37.2228 68.0646 37.2474 69.2015H32.5891V69.6931C32.5891 72.0346 34.0026 73.0609 35.6373 73.0609C37.5424 73.0609 38.7961 71.6597 38.7961 69.5948C38.7961 67.5053 37.5608 66.1656 35.5512 66.1656ZM37.2413 70.2708C37.186 71.1189 36.553 71.8441 35.6127 71.8441C34.7093 71.8441 34.0947 71.1804 34.0886 70.2708H37.2413Z" fill="white"/>
</svg>
