<svg width="26" height="27" viewBox="0 0 26 27" fill="none" xmlns="http://www.w3.org/2000/svg">
<path d="M26.0003 13.5649C26.0003 12.6243 25.9159 11.7198 25.7591 10.8516H13.2656V15.9828H20.4048C20.0973 17.641 19.1627 19.0459 17.7577 19.9865V23.3149H22.0448C24.5532 21.0055 26.0003 17.6048 26.0003 13.5649Z" fill="#4285F4"/>
<path d="M13.2645 26.5301C16.8461 26.5301 19.8489 25.3422 22.0437 23.3162L17.7566 19.9878C16.5688 20.7838 15.0493 21.2541 13.2645 21.2541C9.80951 21.2541 6.88511 18.9206 5.84197 15.7852H1.41016V19.2221C3.5929 23.5574 8.07899 26.5301 13.2645 26.5301Z" fill="#34A853"/>
<path d="M5.84277 15.7863C5.57746 14.9904 5.42672 14.1402 5.42672 13.2659C5.42672 12.3916 5.57746 11.5414 5.84277 10.7455V7.30859H1.41095C0.482375 9.15712 -0.00081838 11.1973 1.04047e-06 13.2659C1.04047e-06 15.4065 0.512524 17.4324 1.41095 19.2233L5.84277 15.7863Z" fill="#FBBC05"/>
<path d="M13.2645 5.27597C15.2121 5.27597 16.9607 5.94527 18.3355 7.25974L22.1402 3.45501C19.8429 1.31447 16.8401 0 13.2645 0C8.07899 0 3.5929 2.97263 1.41016 7.30798L5.84197 10.7449C6.88511 7.60946 9.80951 5.27597 13.2645 5.27597Z" fill="#EA4335"/>
</svg>
