<svg width="90" height="90" viewBox="0 0 90 90" fill="none" xmlns="http://www.w3.org/2000/svg">
<circle cx="45" cy="45" r="45" fill="#20A100"/>
<circle cx="44.5484" cy="44.5484" r="38.7005" fill="#1A8100" stroke="#104F00" stroke-width="0.89901"/>
<circle cx="45.0008" cy="45.0008" r="15.7505" fill="#20A100" stroke="#104F00" stroke-width="0.89901"/>
<circle cx="44.9984" cy="44.9984" r="8.1" fill="black"/>
<path d="M35.5855 19.4405H37.2202C36.9498 17.6951 35.4319 16.4783 33.4714 16.4783C31.1422 16.4783 29.3969 18.1929 29.403 21.0506C29.3969 23.8714 31.0624 25.6229 33.5206 25.6229C35.7207 25.6229 37.294 24.2033 37.294 21.911V20.8417H33.6804V22.1076H35.7453C35.7207 23.3736 34.8665 24.1848 33.5206 24.1848C32.0334 24.1848 31.007 23.0602 31.0132 21.0383C31.007 19.0349 32.0518 17.9164 33.4837 17.9164C34.5653 17.9164 35.2967 18.494 35.5855 19.4405ZM38.6706 25.5H40.2438V21.5668C40.2438 20.7249 40.883 20.1226 41.7557 20.1165C42.0138 20.1226 42.3395 20.1656 42.4808 20.2148V18.7644C42.3333 18.746 42.0875 18.7276 41.9154 18.7276C41.1472 18.7276 40.5081 19.1639 40.2684 19.9321H40.1947V18.8259H38.6706V25.5ZM46.1559 25.6352C47.7046 25.6352 48.7739 24.8732 49.0566 23.7178H47.5202C47.3174 24.1172 46.8565 24.4122 46.1682 24.4061C45.1542 24.4122 44.4843 23.7362 44.4597 22.5993H49.1181V22.1076C49.1181 19.7662 47.7046 18.7399 46.0698 18.7399C44.1647 18.7399 42.911 20.1411 42.911 22.206C42.911 24.2955 44.1463 25.6352 46.1559 25.6352ZM44.4659 21.53C44.5212 20.6819 45.1542 19.9567 46.0944 19.9567C46.9978 19.9567 47.6124 20.6204 47.6185 21.53H44.4659ZM53.297 25.6352C54.8457 25.6352 55.9151 24.8732 56.1978 23.7178H54.6614C54.4586 24.1172 53.9976 24.4122 53.3093 24.4061C52.2953 24.4122 51.6254 23.7362 51.6009 22.5993H56.2592V22.1076C56.2592 19.7662 54.8457 18.7399 53.211 18.7399C51.3059 18.7399 50.0522 20.1411 50.0522 22.206C50.0522 24.2955 51.2874 25.6352 53.297 25.6352ZM51.607 21.53C51.6623 20.6819 52.2953 19.9567 53.2356 19.9567C54.139 19.9567 54.7535 20.6204 54.7597 21.53H51.607ZM59.0493 21.5914C59.0493 20.6204 59.6331 20.0612 60.4628 20.0673C61.2801 20.0612 61.7656 20.5958 61.7656 21.4931V25.5H63.3266V21.2473C63.3328 19.6494 62.4232 18.7399 61.0405 18.7399C60.0449 18.7399 59.3627 19.2131 59.0616 19.9567H58.9756V18.8259H57.476V25.5H59.0493V21.5914Z" fill="white"/>
<path d="M56.2153 72.3603H54.5806C54.851 74.1057 56.3689 75.3225 58.3294 75.3225C60.6585 75.3225 62.4039 73.6079 62.3977 70.7502C62.4039 67.9294 60.7384 66.1779 58.2802 66.1779C56.0801 66.1779 54.5068 67.5975 54.5068 69.8898V70.9591H58.1204V69.6931H56.0555C56.0801 68.4272 56.9343 67.6159 58.2802 67.6159C59.7674 67.6159 60.7937 68.7406 60.7876 70.7625C60.7937 72.7659 59.749 73.8844 58.3171 73.8844C57.2355 73.8844 56.5041 73.3067 56.2153 72.3603ZM53.1302 66.3008H51.5569V70.2339C51.5569 71.0759 50.9178 71.6782 50.0451 71.6843C49.787 71.6782 49.4613 71.6351 49.3199 71.586V73.0363C49.4674 73.0548 49.7133 73.0732 49.8853 73.0732C50.6535 73.0732 51.2927 72.6369 51.5324 71.8687H51.6061V72.9749H53.1302V66.3008ZM45.6449 66.1656C44.0962 66.1656 43.0269 66.9276 42.7442 68.083H44.2806C44.4834 67.6835 44.9443 67.3885 45.6326 67.3947C46.6466 67.3885 47.3165 68.0646 47.3411 69.2015H42.6827V69.6931C42.6827 72.0346 44.0962 73.0609 45.7309 73.0609C47.6361 73.0609 48.8898 71.6597 48.8898 69.5948C48.8898 67.5053 47.6545 66.1656 45.6449 66.1656ZM47.3349 70.2708C47.2796 71.1189 46.6466 71.8441 45.7064 71.8441C44.803 71.8441 44.1884 71.1804 44.1822 70.2708H47.3349ZM38.5037 66.1656C36.9551 66.1656 35.8857 66.9276 35.603 68.083H37.1394C37.3422 67.6835 37.8031 67.3885 38.4914 67.3947C39.5055 67.3885 40.1753 68.0646 40.1999 69.2015H35.5416V69.6931C35.5416 72.0346 36.9551 73.0609 38.5898 73.0609C40.4949 73.0609 41.7486 71.6597 41.7486 69.5948C41.7486 67.5053 40.5133 66.1656 38.5037 66.1656ZM40.1938 70.2708C40.1385 71.1189 39.5055 71.8441 38.5652 71.8441C37.6618 71.8441 37.0472 71.1804 37.0411 70.2708H40.1938ZM32.7515 70.2094C32.7515 71.1804 32.1676 71.7396 31.338 71.7335C30.5206 71.7396 30.0351 71.205 30.0351 70.3077V66.3008H28.4742V70.5535C28.468 72.1514 29.3776 73.0609 30.7603 73.0609C31.7559 73.0609 32.4381 72.5877 32.7392 71.8441H32.8252V72.9749H34.3247V66.3008H32.7515V70.2094Z" fill="white"/>
</svg>
