<svg width="15" height="16" viewBox="0 0 15 16" fill="none" xmlns="http://www.w3.org/2000/svg">
<path d="M3.45333 8.70654H10.7861C11.5207 8.70654 12.1013 9.32942 12.0497 10.0622L11.7323 14.5717C11.6856 15.2351 11.1338 15.7495 10.4687 15.7495H3.72276C3.05249 15.7495 2.49822 15.2274 2.45825 14.5583L2.18882 10.0489C2.14532 9.32084 2.724 8.70654 3.45333 8.70654Z" fill="white" stroke="black" stroke-width="0.499027"/>
<path d="M2.80865 4.91553H11.5102C12.2098 4.91553 12.777 5.48268 12.777 6.18229V10.6917C12.777 11.3913 12.2098 11.9585 11.5102 11.9585H3.11046C2.44368 11.9585 1.89104 11.4416 1.84652 10.7763L1.54471 6.26689C1.49577 5.53561 2.07574 4.91553 2.80865 4.91553Z" fill="white" stroke="black" stroke-width="0.499027"/>
<rect x="3.59522" y="0.249514" width="2.86013" height="6.25127" rx="1.34873" fill="white" stroke="black" stroke-width="0.499027"/>
<rect x="0.271233" y="0.224842" width="2.86064" height="6.25029" rx="1.34873" transform="matrix(0.995508 -0.0946821 0.0915409 0.995801 -0.0193637 0.803969)" fill="white" stroke="black" stroke-width="0.499027"/>
<rect x="6.73779" y="0.249514" width="2.86013" height="6.25127" rx="1.34873" fill="white" stroke="black" stroke-width="0.499027"/>
<rect x="0.232188" y="0.266254" width="2.86041" height="6.25074" rx="1.34873" transform="matrix(0.997593 0.0693424 -0.0670327 0.997751 9.85239 -0.0155016)" fill="white" stroke="black" stroke-width="0.499027"/>
<mask id="path-7-inside-1_1399_6089" fill="white">
<path fill-rule="evenodd" clip-rule="evenodd" d="M8.93928 3.72654C8.50356 4.49418 8.76736 5.47884 9.5285 5.92582L11.6351 7.16296V7.43254L8.58064 9.22197C7.17812 10.0436 7.77067 12.223 9.3966 12.223L12.2293 12.223C12.8183 12.223 13.3565 11.8931 13.6275 11.3658L14.7045 9.27041C14.7446 9.19245 14.7776 9.11363 14.804 9.03449C14.9254 8.80919 14.9943 8.55143 14.9943 8.27758V6.24172C15.0368 5.64461 14.7466 5.0448 14.199 4.72324L11.2081 2.96677C10.4469 2.51979 9.4767 2.77973 9.04098 3.54738L8.93928 3.72654Z"/>
</mask>
<path fill-rule="evenodd" clip-rule="evenodd" d="M8.93928 3.72654C8.50356 4.49418 8.76736 5.47884 9.5285 5.92582L11.6351 7.16296V7.43254L8.58064 9.22197C7.17812 10.0436 7.77067 12.223 9.3966 12.223L12.2293 12.223C12.8183 12.223 13.3565 11.8931 13.6275 11.3658L14.7045 9.27041C14.7446 9.19245 14.7776 9.11363 14.804 9.03449C14.9254 8.80919 14.9943 8.55143 14.9943 8.27758V6.24172C15.0368 5.64461 14.7466 5.0448 14.199 4.72324L11.2081 2.96677C10.4469 2.51979 9.4767 2.77973 9.04098 3.54738L8.93928 3.72654Z" fill="white"/>
<path d="M9.5285 5.92582L9.2758 6.35613L9.2758 6.35613L9.5285 5.92582ZM8.93928 3.72654L9.37327 3.97288L9.37327 3.97288L8.93928 3.72654ZM11.6351 7.16296H12.1342V6.8773L11.8878 6.73264L11.6351 7.16296ZM11.6351 7.43254L11.8874 7.86312L12.1342 7.71855V7.43254H11.6351ZM8.58064 9.22197L8.83289 9.65255L8.83289 9.65255L8.58064 9.22197ZM9.3966 12.223L9.3966 12.722L9.3966 12.722L9.3966 12.223ZM12.2293 12.223L12.2293 11.724L12.2293 11.724L12.2293 12.223ZM13.6275 11.3658L13.1837 11.1377L13.1837 11.1377L13.6275 11.3658ZM14.7045 9.27041L15.1483 9.49853L15.1483 9.49853L14.7045 9.27041ZM14.804 9.03449L14.3647 8.79782L14.3443 8.83566L14.3307 8.87643L14.804 9.03449ZM14.9943 6.24172L14.4965 6.2063L14.4953 6.22398V6.24172H14.9943ZM14.199 4.72324L14.4517 4.29293L14.4517 4.29293L14.199 4.72324ZM11.2081 2.96677L10.9554 3.39709L11.2081 2.96677ZM9.04098 3.54738L8.60699 3.30104L8.60699 3.30104L9.04098 3.54738ZM9.78121 5.49551C9.25525 5.18664 9.07218 4.50333 9.37327 3.97288L8.50529 3.4802C7.93494 4.48504 8.27948 5.77104 9.2758 6.35613L9.78121 5.49551ZM11.8878 6.73264L9.78121 5.49551L9.2758 6.35613L11.3824 7.59327L11.8878 6.73264ZM11.1361 7.16296V7.43254H12.1342V7.16296H11.1361ZM11.3829 7.00196L8.32839 8.79139L8.83289 9.65255L11.8874 7.86312L11.3829 7.00196ZM8.32839 8.79139C6.48567 9.87092 7.26307 12.722 9.3966 12.722L9.3966 11.724C8.27827 11.724 7.87056 10.2163 8.83289 9.65255L8.32839 8.79139ZM9.3966 12.722L12.2293 12.722L12.2293 11.724L9.3966 11.724L9.3966 12.722ZM12.2293 12.722C13.0069 12.722 13.7156 12.2862 14.0713 11.5939L13.1837 11.1377C12.9975 11.5 12.6298 11.724 12.2293 11.724L12.2293 12.722ZM14.0713 11.5939L15.1483 9.49853L14.2606 9.0423L13.1837 11.1377L14.0713 11.5939ZM15.1483 9.49853C15.1999 9.39816 15.2429 9.29593 15.2774 9.19255L14.3307 8.87643C14.3124 8.93133 14.2892 8.98673 14.2606 9.0423L15.1483 9.49853ZM15.2434 9.27116C15.403 8.97493 15.4933 8.63607 15.4933 8.27758H14.4953C14.4953 8.4668 14.4479 8.64345 14.3647 8.79782L15.2434 9.27116ZM15.4933 8.27758V6.24172H14.4953V8.27758H15.4933ZM13.9463 5.15355C14.3231 5.37479 14.5262 5.78984 14.4965 6.2063L15.4921 6.27713C15.5474 5.49939 15.1701 4.71481 14.4517 4.29293L13.9463 5.15355ZM10.9554 3.39709L13.9463 5.15355L14.4517 4.29293L11.4608 2.53646L10.9554 3.39709ZM9.47497 3.79371C9.77322 3.26826 10.4344 3.09112 10.9554 3.39709L11.4608 2.53646C10.4595 1.94845 9.18018 2.29121 8.60699 3.30104L9.47497 3.79371ZM9.37327 3.97288L9.47497 3.79371L8.60699 3.30104L8.50529 3.4802L9.37327 3.97288Z" fill="black" mask="url(#path-7-inside-1_1399_6089)"/>
</svg>
