<svg width="10" height="14" viewBox="0 0 10 14" fill="none" xmlns="http://www.w3.org/2000/svg">
<path fill-rule="evenodd" clip-rule="evenodd" d="M8.77011 6.03755C8.77047 6.38862 8.61131 6.70261 8.36105 6.91094C8.71157 7.08742 8.96029 7.4415 8.98294 7.86185L9.00028 8.18373C9.02467 8.63638 8.78022 9.04184 8.40625 9.24464C8.65465 9.45327 8.81227 9.7664 8.81152 10.1162L8.81082 10.4438C8.80978 10.9256 8.50855 11.3365 8.08454 11.5C8.12763 11.6197 8.15093 11.7488 8.1505 11.8833C8.14852 12.5021 7.64529 13.0021 7.02651 13L5.53166 12.995C5.52164 12.9953 5.51158 12.9954 5.50151 12.9954L1.82432 12.9959C1.22992 12.996 0.748019 12.5142 0.748019 11.9198L0.748018 5.79522C0.748018 5.48849 0.876342 5.21174 1.08223 5.01571C1.081 4.96577 1.08303 4.91501 1.08854 4.86362L1.39415 2.01128C1.45722 1.4226 1.96249 0.981931 2.55432 0.999425L2.76147 1.00555C3.38766 1.02406 3.88081 1.54671 3.86295 2.17293L3.79033 4.71907H7.01172C7.03129 4.71907 7.05071 4.71958 7.06998 4.7206L7.63445 4.72C8.26091 4.71934 8.76929 5.22665 8.76993 5.85312L8.77011 6.03755Z" fill="white"/>
<path d="M8.36105 6.91094L8.18117 7.26821C8.06074 7.20758 7.97896 7.09036 7.96364 6.9564C7.94832 6.82245 8.00151 6.68978 8.10513 6.60352L8.36105 6.91094ZM8.77011 6.03755L9.17011 6.03714L8.77011 6.03755ZM8.98294 7.86185L9.38236 7.84033V7.84033L8.98294 7.86185ZM9.00028 8.18373L8.60086 8.20525L9.00028 8.18373ZM8.40625 9.24464L8.14899 9.55094C8.04764 9.46581 7.99495 9.33605 8.00828 9.20436C8.02161 9.07267 8.09922 8.9561 8.21557 8.89301L8.40625 9.24464ZM8.81152 10.1162L8.41152 10.1153L8.81152 10.1162ZM8.81082 10.4438L9.21082 10.4447L8.81082 10.4438ZM8.08454 11.5L7.7082 11.6356C7.63453 11.431 7.73775 11.205 7.94063 11.1268L8.08454 11.5ZM8.1505 11.8833L7.75051 11.882V11.882L8.1505 11.8833ZM7.02651 13L7.02518 13.4L7.02651 13ZM5.53166 12.995L5.5205 12.595L5.53299 12.595L5.53166 12.995ZM5.50151 12.9954L5.50145 12.5954L5.50151 12.9954ZM1.82432 12.9959L1.82426 12.5959L1.82432 12.9959ZM0.748019 11.9198L1.14802 11.9198V11.9198H0.748019ZM0.748018 5.79522H0.348018H0.748018ZM1.08223 5.01571L1.48211 5.00586C1.48489 5.11874 1.43983 5.22754 1.35805 5.30541L1.08223 5.01571ZM1.08854 4.86362L0.690815 4.82101V4.821L1.08854 4.86362ZM1.39415 2.01128L1.79187 2.05389L1.39415 2.01128ZM2.55432 0.999425L2.54251 1.39925H2.54251L2.55432 0.999425ZM2.76147 1.00555L2.77328 0.605722H2.77328L2.76147 1.00555ZM3.86295 2.17293L4.26279 2.18433L3.86295 2.17293ZM3.79033 4.71907V5.11907C3.68227 5.11907 3.5788 5.07534 3.50349 4.99785C3.42817 4.92035 3.38741 4.81568 3.39049 4.70766L3.79033 4.71907ZM7.06998 4.7206L7.0704 5.1206C7.06324 5.1206 7.05609 5.12042 7.04894 5.12004L7.06998 4.7206ZM7.63445 4.72L7.63402 4.32H7.63402L7.63445 4.72ZM8.76993 5.85312L8.36993 5.85353L8.76993 5.85312ZM8.10513 6.60352C8.26791 6.46801 8.37035 6.2651 8.37011 6.03796L9.17011 6.03714C9.1706 6.51214 8.95471 6.9372 8.61696 7.21836L8.10513 6.60352ZM8.58352 7.88338C8.56889 7.61184 8.40874 7.38279 8.18117 7.26821L8.54093 6.55367C9.0144 6.79205 9.35169 7.27117 9.38236 7.84033L8.58352 7.88338ZM8.60086 8.20525L8.58352 7.88338L9.38236 7.84033L9.3997 8.1622L8.60086 8.20525ZM8.21557 8.89301C8.45899 8.76101 8.61662 8.49777 8.60086 8.20525L9.3997 8.1622C9.43272 8.77499 9.10145 9.32268 8.59692 9.59626L8.21557 8.89301ZM8.41152 10.1153C8.41201 9.889 8.31057 9.68664 8.14899 9.55094L8.6635 8.93834C8.99874 9.2199 9.21254 9.6438 9.21152 10.117L8.41152 10.1153ZM8.41082 10.4429L8.41152 10.1153L9.21152 10.117L9.21082 10.4447L8.41082 10.4429ZM7.94063 11.1268C8.21578 11.0207 8.41015 10.7542 8.41082 10.4429L9.21082 10.4447C9.20942 11.097 8.80133 11.6523 8.22845 11.8732L7.94063 11.1268ZM7.75051 11.882C7.75078 11.7948 7.73572 11.712 7.7082 11.6356L8.46087 11.3645C8.51954 11.5274 8.55108 11.7027 8.5505 11.8846L7.75051 11.882ZM7.02784 12.6C7.42569 12.6013 7.74923 12.2799 7.75051 11.882L8.5505 11.8846C8.54781 12.7243 7.86489 13.4028 7.02518 13.4L7.02784 12.6ZM5.53299 12.595L7.02784 12.6L7.02518 13.4L5.53033 13.395L5.53299 12.595ZM5.50145 12.5954C5.50783 12.5954 5.51418 12.5954 5.5205 12.5952L5.54282 13.3949C5.5291 13.3953 5.51534 13.3954 5.50156 13.3954L5.50145 12.5954ZM1.82426 12.5959L5.50145 12.5954L5.50156 13.3954L1.82437 13.3959L1.82426 12.5959ZM1.14802 11.9198C1.14802 12.2933 1.4508 12.596 1.82426 12.5959L1.82437 13.3959C1.00904 13.3961 0.348019 12.7351 0.348019 11.9198H1.14802ZM1.14802 5.79522L1.14802 11.9198L0.348019 11.9198L0.348018 5.79522H1.14802ZM1.35805 5.30541C1.22816 5.42907 1.14802 5.60246 1.14802 5.79522H0.348018C0.348018 5.37453 0.524523 4.9944 0.806413 4.72601L1.35805 5.30541ZM1.48626 4.90623C1.48262 4.94022 1.48131 4.97345 1.48211 5.00586L0.682353 5.02557C0.68069 4.95809 0.683444 4.8898 0.690815 4.82101L1.48626 4.90623ZM1.79187 2.05389L1.48626 4.90623L0.690815 4.821L0.996426 1.96867L1.79187 2.05389ZM2.54251 1.39925C2.1595 1.38793 1.83268 1.673 1.79187 2.05389L0.996426 1.96867C1.08176 1.1722 1.76547 0.575933 2.56614 0.5996L2.54251 1.39925ZM2.74965 1.40537L2.54251 1.39925L2.56614 0.5996L2.77328 0.605722L2.74965 1.40537ZM3.46312 2.16152C3.47468 1.75597 3.15519 1.41736 2.74965 1.40537L2.77328 0.605722C3.62014 0.630754 4.28695 1.33745 4.26279 2.18433L3.46312 2.16152ZM3.39049 4.70766L3.46312 2.16152L4.26279 2.18433L4.19017 4.73047L3.39049 4.70766ZM7.01172 5.11907H3.79033V4.31907H7.01172V5.11907ZM7.04894 5.12004C7.03669 5.1194 7.02428 5.11907 7.01172 5.11907V4.31907C7.0383 4.31907 7.06473 4.31977 7.09102 4.32115L7.04894 5.12004ZM7.63487 5.12L7.0704 5.1206L7.06956 4.3206L7.63402 4.32L7.63487 5.12ZM8.36993 5.85353C8.36951 5.44798 8.04042 5.11957 7.63487 5.12L7.63402 4.32C8.48141 4.3191 9.16906 5.00533 9.16993 5.85272L8.36993 5.85353ZM8.37011 6.03796L8.36993 5.85353L9.16993 5.85272L9.17011 6.03714L8.37011 6.03796Z" fill="black"/>
</svg>
