<svg width="13" height="14" viewBox="0 0 13 14" fill="none" xmlns="http://www.w3.org/2000/svg">
<path d="M5.13474 12.8473C5.75403 12.8856 6.27734 12.3937 6.27734 11.7732V6.41886C6.27734 5.79371 5.74647 5.30011 5.12297 5.34555L1.99887 5.57323C1.43636 5.61422 1.00093 6.08254 1.00093 6.64653V11.5799C1.00093 12.1484 1.44318 12.6189 2.01064 12.654L5.13474 12.8473Z" fill="white" stroke="black" stroke-width="0.8" stroke-linejoin="round"/>
<path fill-rule="evenodd" clip-rule="evenodd" d="M11.7701 6.03755C11.7705 6.38862 11.6113 6.70261 11.361 6.91094C11.7116 7.08742 11.9603 7.4415 11.9829 7.86185L12.0003 8.18373C12.0247 8.63638 11.7802 9.04184 11.4062 9.24464C11.6547 9.45327 11.8123 9.7664 11.8115 10.1162L11.8108 10.4438C11.8098 10.9256 11.5086 11.3365 11.0845 11.5C11.1276 11.6197 11.1509 11.7488 11.1505 11.8833C11.1485 12.5021 10.6453 13.0021 10.0265 13L8.53166 12.995C8.52164 12.9953 8.51158 12.9954 8.50151 12.9954L4.82432 12.9959C4.22992 12.996 3.74802 12.5142 3.74802 11.9198L3.74802 5.79522C3.74802 5.48849 3.87634 5.21174 4.08223 5.01571C4.081 4.96577 4.08303 4.91501 4.08854 4.86362L4.39415 2.01128C4.45722 1.4226 4.96249 0.981931 5.55432 0.999425L5.76147 1.00555C6.38766 1.02406 6.88081 1.54671 6.86295 2.17293L6.79033 4.71907H10.0117C10.0313 4.71907 10.0507 4.71958 10.07 4.7206L10.6344 4.72C11.2609 4.71934 11.7693 5.22665 11.7699 5.85312L11.7701 6.03755Z" fill="white"/>
<path d="M11.361 6.91094L11.1812 7.26821C11.0607 7.20758 10.979 7.09036 10.9636 6.9564C10.9483 6.82245 11.0015 6.68978 11.1051 6.60352L11.361 6.91094ZM11.7701 6.03755L12.1701 6.03714L11.7701 6.03755ZM11.9829 7.86185L12.3824 7.84033V7.84033L11.9829 7.86185ZM12.0003 8.18373L11.6009 8.20525L12.0003 8.18373ZM11.4062 9.24464L11.149 9.55094C11.0476 9.46581 10.995 9.33605 11.0083 9.20436C11.0216 9.07267 11.0992 8.9561 11.2156 8.89301L11.4062 9.24464ZM11.8115 10.1162L11.4115 10.1153L11.8115 10.1162ZM11.8108 10.4438L12.2108 10.4447L11.8108 10.4438ZM11.0845 11.5L10.7082 11.6356C10.6345 11.431 10.7378 11.205 10.9406 11.1268L11.0845 11.5ZM11.1505 11.8833L10.7505 11.882V11.882L11.1505 11.8833ZM10.0265 13L10.0252 13.4L10.0265 13ZM8.53166 12.995L8.5205 12.595L8.53299 12.595L8.53166 12.995ZM8.50151 12.9954L8.50145 12.5954L8.50151 12.9954ZM4.82432 12.9959L4.82426 12.5959L4.82432 12.9959ZM3.74802 11.9198L4.14802 11.9198V11.9198H3.74802ZM3.74802 5.79522H3.34802H3.74802ZM4.08223 5.01571L4.48211 5.00586C4.48489 5.11874 4.43983 5.22754 4.35805 5.30541L4.08223 5.01571ZM4.08854 4.86362L3.69081 4.82101V4.821L4.08854 4.86362ZM4.39415 2.01128L4.79187 2.05389L4.39415 2.01128ZM5.55432 0.999425L5.54251 1.39925H5.54251L5.55432 0.999425ZM5.76147 1.00555L5.77328 0.605722H5.77328L5.76147 1.00555ZM6.86295 2.17293L7.26279 2.18433L6.86295 2.17293ZM6.79033 4.71907V5.11907C6.68227 5.11907 6.5788 5.07534 6.50349 4.99785C6.42817 4.92035 6.38741 4.81568 6.39049 4.70766L6.79033 4.71907ZM10.07 4.7206L10.0704 5.1206C10.0632 5.1206 10.0561 5.12042 10.0489 5.12004L10.07 4.7206ZM10.6344 4.72L10.634 4.32H10.634L10.6344 4.72ZM11.7699 5.85312L11.3699 5.85353L11.7699 5.85312ZM11.1051 6.60352C11.2679 6.46801 11.3703 6.2651 11.3701 6.03796L12.1701 6.03714C12.1706 6.51214 11.9547 6.9372 11.617 7.21836L11.1051 6.60352ZM11.5835 7.88338C11.5689 7.61184 11.4087 7.38279 11.1812 7.26821L11.5409 6.55367C12.0144 6.79205 12.3517 7.27117 12.3824 7.84033L11.5835 7.88338ZM11.6009 8.20525L11.5835 7.88338L12.3824 7.84033L12.3997 8.1622L11.6009 8.20525ZM11.2156 8.89301C11.459 8.76101 11.6166 8.49777 11.6009 8.20525L12.3997 8.1622C12.4327 8.77499 12.1015 9.32268 11.5969 9.59626L11.2156 8.89301ZM11.4115 10.1153C11.412 9.889 11.3106 9.68664 11.149 9.55094L11.6635 8.93834C11.9987 9.2199 12.2125 9.6438 12.2115 10.117L11.4115 10.1153ZM11.4108 10.4429L11.4115 10.1153L12.2115 10.117L12.2108 10.4447L11.4108 10.4429ZM10.9406 11.1268C11.2158 11.0207 11.4102 10.7542 11.4108 10.4429L12.2108 10.4447C12.2094 11.097 11.8013 11.6523 11.2285 11.8732L10.9406 11.1268ZM10.7505 11.882C10.7508 11.7948 10.7357 11.712 10.7082 11.6356L11.4609 11.3645C11.5195 11.5274 11.5511 11.7027 11.5505 11.8846L10.7505 11.882ZM10.0278 12.6C10.4257 12.6013 10.7492 12.2799 10.7505 11.882L11.5505 11.8846C11.5478 12.7243 10.8649 13.4028 10.0252 13.4L10.0278 12.6ZM8.53299 12.595L10.0278 12.6L10.0252 13.4L8.53033 13.395L8.53299 12.595ZM8.50145 12.5954C8.50783 12.5954 8.51418 12.5954 8.5205 12.5952L8.54282 13.3949C8.5291 13.3953 8.51534 13.3954 8.50156 13.3954L8.50145 12.5954ZM4.82426 12.5959L8.50145 12.5954L8.50156 13.3954L4.82437 13.3959L4.82426 12.5959ZM4.14802 11.9198C4.14802 12.2933 4.4508 12.596 4.82426 12.5959L4.82437 13.3959C4.00904 13.3961 3.34802 12.7351 3.34802 11.9198H4.14802ZM4.14802 5.79522L4.14802 11.9198L3.34802 11.9198L3.34802 5.79522H4.14802ZM4.35805 5.30541C4.22816 5.42907 4.14802 5.60246 4.14802 5.79522H3.34802C3.34802 5.37453 3.52452 4.9944 3.80641 4.72601L4.35805 5.30541ZM4.48626 4.90623C4.48262 4.94022 4.48131 4.97345 4.48211 5.00586L3.68235 5.02557C3.68069 4.95809 3.68344 4.8898 3.69081 4.82101L4.48626 4.90623ZM4.79187 2.05389L4.48626 4.90623L3.69081 4.821L3.99643 1.96867L4.79187 2.05389ZM5.54251 1.39925C5.1595 1.38793 4.83268 1.673 4.79187 2.05389L3.99643 1.96867C4.08176 1.1722 4.76547 0.575933 5.56614 0.5996L5.54251 1.39925ZM5.74965 1.40537L5.54251 1.39925L5.56614 0.5996L5.77328 0.605722L5.74965 1.40537ZM6.46312 2.16152C6.47468 1.75597 6.15519 1.41736 5.74965 1.40537L5.77328 0.605722C6.62014 0.630754 7.28695 1.33745 7.26279 2.18433L6.46312 2.16152ZM6.39049 4.70766L6.46312 2.16152L7.26279 2.18433L7.19017 4.73047L6.39049 4.70766ZM10.0117 5.11907H6.79033V4.31907H10.0117V5.11907ZM10.0489 5.12004C10.0367 5.1194 10.0243 5.11907 10.0117 5.11907V4.31907C10.0383 4.31907 10.0647 4.31977 10.091 4.32115L10.0489 5.12004ZM10.6349 5.12L10.0704 5.1206L10.0696 4.3206L10.634 4.32L10.6349 5.12ZM11.3699 5.85353C11.3695 5.44798 11.0404 5.11957 10.6349 5.12L10.634 4.32C11.4814 4.3191 12.1691 5.00533 12.1699 5.85272L11.3699 5.85353ZM11.3701 6.03796L11.3699 5.85353L12.1699 5.85272L12.1701 6.03714L11.3701 6.03796Z" fill="black"/>
</svg>
