<svg width="19" height="19" viewBox="0 0 19 19" fill="none" xmlns="http://www.w3.org/2000/svg">
<path fill-rule="evenodd" clip-rule="evenodd" d="M7.69615 1C7.14693 1 6.64485 1.3103 6.39923 1.80154L5.7125 3.175H2.45C1.64919 3.175 1 3.82419 1 4.625V16.225C1 17.0258 1.64919 17.675 2.45 17.675H16.95C17.7508 17.675 18.4 17.0258 18.4 16.225V4.625C18.4 3.82419 17.7508 3.175 16.95 3.175H13.6875L13.0008 1.80154C12.7552 1.3103 12.2531 1 11.7039 1H7.69615Z" fill="#FFFCF3"/>
<path d="M6.39923 1.80154L6.84644 2.02515L6.84644 2.02515L6.39923 1.80154ZM5.7125 3.175V3.675C5.90189 3.675 6.07502 3.568 6.15971 3.39861L5.7125 3.175ZM13.6875 3.175L13.2403 3.39861C13.325 3.568 13.4981 3.675 13.6875 3.675V3.175ZM13.0008 1.80154L12.5536 2.02515L12.5536 2.02515L13.0008 1.80154ZM6.84644 2.02515C7.00737 1.7033 7.33632 1.5 7.69615 1.5V0.5C6.95754 0.5 6.28233 0.917304 5.95202 1.57793L6.84644 2.02515ZM6.15971 3.39861L6.84644 2.02515L5.95202 1.57793L5.26529 2.95139L6.15971 3.39861ZM2.45 3.675H5.7125V2.675H2.45V3.675ZM1.5 4.625C1.5 4.10033 1.92533 3.675 2.45 3.675V2.675C1.37305 2.675 0.5 3.54804 0.5 4.625H1.5ZM1.5 16.225V4.625H0.5V16.225H1.5ZM2.45 17.175C1.92533 17.175 1.5 16.7497 1.5 16.225H0.5C0.5 17.302 1.37304 18.175 2.45 18.175V17.175ZM16.95 17.175H2.45V18.175H16.95V17.175ZM17.9 16.225C17.9 16.7497 17.4747 17.175 16.95 17.175V18.175C18.027 18.175 18.9 17.302 18.9 16.225H17.9ZM17.9 4.625V16.225H18.9V4.625H17.9ZM16.95 3.675C17.4747 3.675 17.9 4.10033 17.9 4.625H18.9C18.9 3.54805 18.027 2.675 16.95 2.675V3.675ZM13.6875 3.675H16.95V2.675H13.6875V3.675ZM12.5536 2.02515L13.2403 3.39861L14.1347 2.95139L13.448 1.57793L12.5536 2.02515ZM11.7039 1.5C12.0637 1.5 12.3926 1.7033 12.5536 2.02515L13.448 1.57793C13.1177 0.917305 12.4425 0.5 11.7039 0.5V1.5ZM7.69615 1.5H11.7039V0.5H7.69615V1.5Z" fill="black"/>
<circle cx="9.70039" cy="10.425" r="5.3" fill="#FFFCF3" stroke="black"/>
<path fill-rule="evenodd" clip-rule="evenodd" d="M7.81521 11.2201L7.82928 11.2267L8.5615 11.5666L8.90145 12.2988L8.90798 12.3129L8.97856 12.4649L9.01113 12.5351L9.23471 13.0166C9.32102 13.2238 9.47638 13.3273 9.70078 13.3273C9.92519 13.3273 10.0805 13.2238 10.1669 13.0166L10.3904 12.5351L10.423 12.4649L10.4936 12.3129L10.5001 12.2988L10.8401 11.5666L11.5723 11.2267L11.5863 11.2201L11.7384 11.1496L11.8085 11.117L12.2901 10.8934C12.4972 10.8071 12.6008 10.6517 12.6008 10.4273C12.6008 10.2029 12.4972 10.0476 12.2901 9.96127L11.8085 9.7377L11.7384 9.70512L11.5863 9.63455L11.5723 9.62801L10.8401 9.28806L10.5001 8.55585L10.4936 8.54178L10.423 8.38977L10.3904 8.31961L10.1669 7.83806C10.0805 7.63092 9.92519 7.52734 9.70078 7.52734C9.47638 7.52734 9.32102 7.63092 9.23471 7.83806L9.01113 8.31961L8.97856 8.38977L8.90798 8.54178L8.90145 8.55585L8.5615 9.28806L7.82928 9.62801L7.81521 9.63455L7.6632 9.70512L7.59305 9.7377L7.1115 9.96127C6.90435 10.0476 6.80078 10.2029 6.80078 10.4273C6.80078 10.6517 6.90435 10.8071 7.1115 10.8934L7.59305 11.117L7.6632 11.1496L7.81521 11.2201Z" fill="black"/>
</svg>
