<svg width="90" height="90" viewBox="0 0 90 90" fill="none" xmlns="http://www.w3.org/2000/svg">
<circle cx="45" cy="45" r="45" fill="#A10000"/>
<circle cx="44.5484" cy="44.5484" r="38.7005" fill="#880000" stroke="#620000" stroke-width="0.89901"/>
<circle cx="45.0008" cy="45.0008" r="15.7505" fill="#A10000" stroke="#620000" stroke-width="0.89901"/>
<circle cx="44.9984" cy="44.9984" r="8.1" fill="black"/>
<path d="M34.1243 25.5H35.7221V22.2428H37.3937L39.1391 25.5H40.9213L38.9977 21.9724C40.0425 21.5484 40.5956 20.6511 40.6017 19.4405C40.5956 17.7443 39.5078 16.6012 37.4675 16.6012H34.1243V25.5ZM35.7221 20.9031V17.9409H37.2217C38.4262 17.9409 38.967 18.494 38.967 19.4405C38.967 20.393 38.4262 20.9093 37.2217 20.9031H35.7221ZM44.7684 25.6352C46.3171 25.6352 47.3864 24.8732 47.6691 23.7178H46.1327C45.9299 24.1172 45.469 24.4122 44.7807 24.4061C43.7667 24.4122 43.0968 23.7362 43.0722 22.5993H47.7306V22.1076C47.7306 19.7662 46.3171 18.7399 44.6824 18.7399C42.7773 18.7399 41.5236 20.1411 41.5236 22.206C41.5236 24.2955 42.7588 25.6352 44.7684 25.6352ZM43.0784 21.53C43.1337 20.6819 43.7667 19.9567 44.707 19.9567C45.6104 19.9567 46.2249 20.6204 46.2311 21.53H43.0784ZM51.4302 25.6229C52.5856 25.6168 53.0957 24.9346 53.3476 24.443H53.4337V25.5H54.9701V16.6012H53.4091V19.9198H53.3476C53.108 19.4466 52.6163 18.7399 51.4425 18.7399C49.8938 18.7399 48.677 19.9444 48.677 22.1691C48.677 24.3631 49.8631 25.6168 51.4302 25.6229ZM50.2749 22.1568C50.2749 20.9154 50.8157 20.0243 51.8604 20.0181C52.8806 20.0243 53.446 20.8601 53.446 22.1568C53.446 23.4597 52.8744 24.3323 51.8604 24.3323C50.828 24.3323 50.2749 23.4166 50.2749 22.1568Z" fill="white"/>
<path d="M55.8757 66.3008H54.2779V69.5579H52.6063L50.8609 66.3008H49.0787L51.0023 69.8283C49.9575 70.2524 49.4044 71.1496 49.3983 72.3603C49.4044 74.0565 50.4922 75.1996 52.5325 75.1996H55.8757V66.3008ZM54.2779 70.8977V73.8598H52.7783C51.5738 73.8598 51.033 73.3067 51.033 72.3603C51.033 71.4078 51.5738 70.8915 52.7783 70.8977H54.2779ZM45.2316 66.1656C43.6829 66.1656 42.6136 66.9276 42.3309 68.083H43.8673C44.0701 67.6835 44.531 67.3885 45.2193 67.3947C46.2333 67.3885 46.9032 68.0646 46.9278 69.2015H42.2694V69.6931C42.2694 72.0346 43.6829 73.0609 45.3176 73.0609C47.2227 73.0609 48.4764 71.6597 48.4764 69.5948C48.4764 67.5053 47.2412 66.1656 45.2316 66.1656ZM46.9216 70.2708C46.8663 71.1189 46.2333 71.8441 45.293 71.8441C44.3896 71.8441 43.7751 71.1804 43.7689 70.2708H46.9216ZM38.5698 66.1779C37.4144 66.184 36.9043 66.8662 36.6524 67.3578H36.5663V66.3008H35.0299V75.1996H36.5909V71.881H36.6524C36.892 72.3542 37.3837 73.0609 38.5575 73.0609C40.1062 73.0609 41.323 71.8564 41.323 69.6317C41.323 67.4377 40.1369 66.184 38.5698 66.1779ZM39.7251 69.644C39.7251 70.8854 39.1843 71.7765 38.1396 71.7826C37.1194 71.7765 36.554 70.9407 36.554 69.644C36.554 68.3411 37.1256 67.4684 38.1396 67.4684C39.172 67.4684 39.7251 68.3841 39.7251 69.644Z" fill="white"/>
</svg>
