<svg width="90" height="90" viewBox="0 0 90 90" fill="none" xmlns="http://www.w3.org/2000/svg">
<circle cx="45" cy="45" r="45" fill="#F9E000"/>
<circle cx="44.5484" cy="44.5484" r="38.7005" fill="#DAC400" stroke="#7E8116" stroke-width="0.89901"/>
<circle cx="45.0008" cy="45.0008" r="15.7505" fill="#F9E000" stroke="#7E8116" stroke-width="0.89901"/>
<circle cx="44.9984" cy="44.9984" r="8.1" fill="black"/>
<path d="M27.2089 16.6012L30.4538 22.1691V25.5H32.0517V22.1691L35.2842 16.6012H33.4774L31.2896 20.5344H31.2036L29.0157 16.6012H27.2089ZM37.976 25.6352C39.5247 25.6352 40.594 24.8732 40.8767 23.7178H39.3403C39.1375 24.1172 38.6766 24.4122 37.9883 24.4061C36.9743 24.4122 36.3044 23.7362 36.2798 22.5993H40.9382V22.1076C40.9382 19.7662 39.5247 18.7399 37.89 18.7399C35.9848 18.7399 34.7311 20.1411 34.7311 22.206C34.7311 24.2955 35.9664 25.6352 37.976 25.6352ZM36.286 21.53C36.3413 20.6819 36.9743 19.9567 37.9145 19.9567C38.8179 19.9567 39.4325 20.6204 39.4386 21.53H36.286ZM43.7283 16.6012H42.155V25.5H43.7283V16.6012ZM46.801 16.6012H45.2278V25.5H46.801V16.6012ZM51.2136 25.6352C53.1679 25.6352 54.4154 24.2524 54.4093 22.1937C54.4154 20.1165 53.1679 18.7399 51.2136 18.7399C49.2654 18.7399 48.0179 20.1165 48.0179 22.1937C48.0179 24.2524 49.2654 25.6352 51.2136 25.6352ZM49.6034 22.1814C49.6034 20.9584 50.1381 19.9751 51.2259 19.9813C52.2952 19.9751 52.8299 20.9584 52.8237 22.1814C52.8299 23.4044 52.2952 24.3815 51.2259 24.3815C50.1381 24.3815 49.6034 23.4044 49.6034 22.1814ZM56.8306 25.5H58.4653L59.719 20.9769H59.8051L61.0588 25.5H62.6935L64.5863 18.8259H62.9885L61.8208 23.4965H61.7594L60.5548 18.8259H58.9693L57.777 23.5211H57.7156L56.5356 18.8259H54.9378L56.8306 25.5Z" fill="white"/>
<path d="M63.6895 75.1996L60.4446 69.6317V66.3008H58.8468V69.6317L55.6142 75.1996H57.421L59.6088 71.2664H59.6949L61.8827 75.1996H63.6895ZM52.9224 66.1656C51.3738 66.1656 50.3044 66.9276 50.0217 68.083H51.5581C51.7609 67.6835 52.2218 67.3885 52.9101 67.3947C53.9242 67.3885 54.594 68.0646 54.6186 69.2015H49.9603V69.6931C49.9603 72.0346 51.3738 73.0609 53.0085 73.0609C54.9136 73.0609 56.1673 71.6597 56.1673 69.5948C56.1673 67.5053 54.932 66.1656 52.9224 66.1656ZM54.6125 70.2708C54.5572 71.1189 53.9242 71.8441 52.9839 71.8441C52.0805 71.8441 51.4659 71.1804 51.4598 70.2708H54.6125ZM47.1702 75.1996H48.7434V66.3008H47.1702V75.1996ZM44.0974 75.1996H45.6707V66.3008H44.0974V75.1996ZM39.6849 66.1656C37.7306 66.1656 36.483 67.5483 36.4892 69.6071C36.483 71.6843 37.7306 73.0609 39.6849 73.0609C41.633 73.0609 42.8806 71.6843 42.8806 69.6071C42.8806 67.5483 41.633 66.1656 39.6849 66.1656ZM41.295 69.6194C41.295 70.8424 40.7603 71.8257 39.6726 71.8195C38.6032 71.8257 38.0686 70.8424 38.0747 69.6194C38.0686 68.3964 38.6032 67.4193 39.6726 67.4193C40.7603 67.4193 41.295 68.3964 41.295 69.6194ZM34.0678 66.3008H32.4331L31.1794 70.8239H31.0934L29.8397 66.3008H28.2049L26.3121 72.9749H27.9099L29.0776 68.3042H29.1391L30.3436 72.9749H31.9292L33.1214 68.2797H33.1829L34.3628 72.9749H35.9607L34.0678 66.3008Z" fill="white"/>
</svg>
