<svg width="136" height="16" viewBox="0 0 136 16" fill="none" xmlns="http://www.w3.org/2000/svg">
<path d="M10.5859 5.41016H13.5547C13.1641 2.62695 10.7129 0.664062 7.51953 0.664062C3.78906 0.664062 0.917969 3.35938 0.917969 7.94922C0.917969 12.4219 3.61328 15.1953 7.57812 15.1953C11.1426 15.1953 13.6914 12.9297 13.6914 9.21875V7.46094H7.79297V9.66797H10.8594C10.8203 11.4453 9.61914 12.5879 7.59766 12.5977C5.3418 12.5879 3.90625 10.8984 3.90625 7.91016C3.90625 4.94141 5.39062 3.27148 7.57812 3.26172C9.12109 3.27148 10.1855 4.08203 10.5859 5.41016ZM14.3945 0.859375L19.5508 9.96094V15H22.4805V9.96094L27.6367 0.859375H24.3359L21.0938 6.95312H20.957L17.6953 0.859375H14.3945ZM29.1602 0.859375V15H32.0117V5.70312H32.1289L35.8203 14.9414H37.7734L41.4648 5.74219H41.582V15H44.4336V0.859375H40.8008L36.875 10.4492H36.7188L32.793 0.859375H29.1602ZM46.2695 3.28125H50.6055V15H53.5156V3.28125H57.8516V0.859375H46.2695V3.28125ZM62.5977 0.859375H59.668V15H62.5977V0.859375ZM67.4609 0.859375H64.1797L69.082 15H72.8516L77.7344 0.859375H74.4922L71.0352 11.6406H70.8984L67.4609 0.859375ZM79.8438 15L80.9082 11.7383H86.0254L87.0898 15H90.2344L85.3516 0.859375H81.582L76.6797 15H79.8438ZM81.6504 9.45312L83.418 4.04297H83.5156L85.2832 9.45312H81.6504ZM89.5508 3.28125H93.8867V15H96.7969V3.28125H101.133V0.859375H89.5508V3.28125ZM105.879 0.859375H102.949V15H105.879V0.859375ZM121.211 7.92969C121.211 3.31055 118.35 0.664062 114.609 0.664062C110.84 0.664062 107.988 3.31055 107.988 7.92969C107.988 12.5293 110.84 15.1953 114.609 15.1953C118.35 15.1953 121.211 12.5488 121.211 7.92969ZM110.977 7.92969C110.977 4.90234 112.412 3.27148 114.609 3.26172C116.787 3.27148 118.232 4.90234 118.223 7.92969C118.232 10.9473 116.787 12.5879 114.609 12.5977C112.412 12.5879 110.977 10.9473 110.977 7.92969ZM135.117 0.859375H132.207V9.84375H132.07L125.898 0.859375H123.32V15H126.25V6.01562H126.367L132.578 15H135.117V0.859375Z" fill="white"/>
</svg>
