<svg width="31" height="31" viewBox="0 0 31 31" fill="none" xmlns="http://www.w3.org/2000/svg">
<path d="M4.37076 19.514C4.28257 18.0842 5.41837 16.8762 6.85088 16.8762H21.6299C23.0732 16.8762 24.2128 18.1016 24.1082 19.5411L23.4787 28.2049C23.3843 29.5039 22.3028 30.5096 21.0004 30.5096H7.38529C6.07237 30.5096 4.98601 29.4882 4.90518 28.1778L4.37076 19.514Z" fill="white" stroke="black" stroke-width="0.978868"/>
<path d="M3.0849 12.1885C2.98565 10.7522 4.12405 9.5324 5.56381 9.5324H23.0835C24.4558 9.5324 25.5683 10.6449 25.5683 12.0172V20.6811C25.5683 22.0534 24.4558 23.1659 23.0835 23.1659H6.16244C4.85658 23.1659 3.77354 22.1551 3.68353 20.8524L3.0849 12.1885Z" fill="white" stroke="black" stroke-width="0.978868"/>
<rect x="7.18475" y="0.489434" width="5.74024" height="12.0996" rx="2.6456" fill="white" stroke="black" stroke-width="0.978868"/>
<rect x="0.533626" y="0.442357" width="5.73939" height="12.1013" rx="2.6456" transform="matrix(0.995786 -0.0917116 0.094506 0.995524 -0.0395564 1.55483)" fill="white" stroke="black" stroke-width="0.978868"/>
<rect x="13.466" y="0.489434" width="5.74024" height="12.0996" rx="2.6456" fill="white" stroke="black" stroke-width="0.978868"/>
<rect x="0.454463" y="0.521139" width="5.73978" height="12.1005" rx="2.6456" transform="matrix(0.997741 0.0671765 -0.0691941 0.997603 19.707 -0.0292801)" fill="white" stroke="black" stroke-width="0.978868"/>
<mask id="path-7-inside-1_1508_5918" fill="white">
<path fill-rule="evenodd" clip-rule="evenodd" d="M17.888 7.20386C17.0127 8.69769 17.523 10.6027 19.028 11.4588L23.2698 13.8716V14.4012L17.173 17.8609C14.366 19.4537 15.4793 23.6819 18.7056 23.6819L24.4587 23.6819C25.6359 23.6819 26.7194 23.0327 27.2682 21.9985L29.4293 17.9257C29.5153 17.7636 29.5855 17.5998 29.6407 17.4354C29.8632 17.0048 29.9889 16.516 29.9889 15.9979V12.1296C30.0946 10.9609 29.5262 9.78638 28.4335 9.16479L22.3876 5.7257C20.8826 4.86962 18.9529 5.38663 18.0775 6.88047L17.888 7.20386Z"/>
</mask>
<path fill-rule="evenodd" clip-rule="evenodd" d="M17.888 7.20386C17.0127 8.69769 17.523 10.6027 19.028 11.4588L23.2698 13.8716V14.4012L17.173 17.8609C14.366 19.4537 15.4793 23.6819 18.7056 23.6819L24.4587 23.6819C25.6359 23.6819 26.7194 23.0327 27.2682 21.9985L29.4293 17.9257C29.5153 17.7636 29.5855 17.5998 29.6407 17.4354C29.8632 17.0048 29.9889 16.516 29.9889 15.9979V12.1296C30.0946 10.9609 29.5262 9.78638 28.4335 9.16479L22.3876 5.7257C20.8826 4.86962 18.9529 5.38663 18.0775 6.88047L17.888 7.20386Z" fill="white"/>
<path d="M19.028 11.4588L19.512 10.6079L19.028 11.4588ZM17.888 7.20386L17.0435 6.70896L17.0435 6.70896L17.888 7.20386ZM23.2698 13.8716H24.2487V13.3023L23.7538 13.0208L23.2698 13.8716ZM23.2698 14.4012L23.7529 15.2526L24.2487 14.9712V14.4012H23.2698ZM17.173 17.8609L17.6561 18.7122L17.173 17.8609ZM18.7056 23.6819L18.7056 22.703H18.7056L18.7056 23.6819ZM24.4587 23.6819L24.4587 24.6608H24.4587V23.6819ZM27.2682 21.9985L28.1329 22.4573L27.2682 21.9985ZM29.4293 17.9257L28.5646 17.4668L28.5646 17.4668L29.4293 17.9257ZM29.6407 17.4354L28.7711 16.9859L28.7366 17.0526L28.7127 17.1237L29.6407 17.4354ZM29.9889 12.1296L29.014 12.0414L29.01 12.0854V12.1296H29.9889ZM28.4335 9.16479L27.9495 10.0156L28.4335 9.16479ZM22.3876 5.7257L21.9036 6.57655V6.57655L22.3876 5.7257ZM18.0775 6.88047L18.9221 7.37537L18.0775 6.88047ZM19.512 10.6079C18.4812 10.0216 18.133 8.72191 18.7326 7.69876L17.0435 6.70896C15.8923 8.67347 16.5649 11.1838 18.544 12.3096L19.512 10.6079ZM23.7538 13.0208L19.512 10.6079L18.544 12.3096L22.7858 14.7225L23.7538 13.0208ZM22.2909 13.8716V14.4012H24.2487V13.8716H22.2909ZM22.7867 13.5499L16.6899 17.0095L17.6561 18.7122L23.7529 15.2526L22.7867 13.5499ZM16.6899 17.0095C13.0113 19.0969 14.4708 24.6608 18.7056 24.6608L18.7056 22.703C16.4878 22.703 15.7208 19.8104 17.6561 18.7122L16.6899 17.0095ZM18.7056 24.6608L24.4587 24.6608L24.4587 22.703L18.7056 22.703L18.7056 24.6608ZM24.4587 24.6608C25.9957 24.6608 27.4131 23.8137 28.1329 22.4573L26.4035 21.5397C26.0257 22.2517 25.2762 22.703 24.4587 22.703V24.6608ZM28.1329 22.4573L30.294 18.3845L28.5646 17.4668L26.4035 21.5397L28.1329 22.4573ZM30.294 18.3845C30.4048 18.1757 30.4962 17.9627 30.5686 17.747L28.7127 17.1237C28.6747 17.2369 28.6258 17.3515 28.5646 17.4668L30.294 18.3845ZM30.5103 17.8848C30.8029 17.3186 30.9678 16.6761 30.9678 15.9979H29.01C29.01 16.356 28.9235 16.691 28.7711 16.9859L30.5103 17.8848ZM30.9678 15.9979V12.1296H29.01V15.9979H30.9678ZM27.9495 10.0156C28.6984 10.4417 29.0862 11.243 29.014 12.0414L30.9638 12.2177C31.103 10.6788 30.354 9.13109 28.9175 8.31395L27.9495 10.0156ZM21.9036 6.57655L27.9495 10.0156L28.9175 8.31395L22.8716 4.87486L21.9036 6.57655ZM18.9221 7.37537C19.5266 6.34372 20.8642 5.98534 21.9036 6.57655L22.8716 4.87486C20.9009 3.75391 18.3792 4.42954 17.233 6.38556L18.9221 7.37537ZM18.7326 7.69876L18.9221 7.37537L17.233 6.38556L17.0435 6.70896L18.7326 7.69876Z" fill="black" mask="url(#path-7-inside-1_1508_5918)"/>
</svg>
