<svg width="225" height="242" viewBox="0 0 225 242" fill="none" xmlns="http://www.w3.org/2000/svg">
<rect x="27" y="199" width="172" height="43" rx="21.5" fill="#D9D9D9"/>
<path d="M61.918 214.514H56.2578V215.73H60.2842C60.2363 216.1 60.1543 216.448 60.0312 216.783L55.6289 216.947L55.8613 218.15L59.4023 217.884C58.6709 218.8 57.4678 219.531 55.6562 220.051L56.2441 221.268C60.2227 220.064 61.9111 217.802 61.918 214.514ZM57.625 226.066H65.7598V221.527H57.625V226.066ZM59.1152 224.836V222.73H64.2559V224.836H59.1152ZM61.8496 218.26H64.2422V220.939H65.7598V213.871H64.2422V217.002H61.8496V218.26ZM77.7773 214.473H68.5488V215.703H70.2441V218.629H68.6035V219.859H77.6816V218.629H76.0547V215.703H77.7773V214.473ZM67.4961 222.266H70.2441V226.217H71.7891V222.266H74.5781V226.217H76.0957V222.266H78.7891V221.021H67.4961V222.266ZM71.7617 218.629V215.703H74.5508V218.629H71.7617ZM89.9727 213.857H88.4688V218.328H86.1445V219.559H88.4688V226.23H89.9727V213.857ZM80.1699 223.387H81.1406C83.3486 223.373 84.9346 223.305 86.7324 223.031L86.582 221.801C84.9893 222.054 83.5811 222.122 81.7012 222.129V219.586H85.4609V218.383H81.7012V216.168H85.9531V214.924H80.1699V223.387ZM102.373 213.857H100.91V226.217H102.373V213.857ZM91.832 219.203C91.832 221.931 92.8848 223.626 94.498 223.619C96.0293 223.626 97.0615 222.149 97.2051 219.736H98.3809V225.615H99.8301V214.076H98.3809V218.506H97.1914C97.0137 216.195 95.9951 214.794 94.498 214.801C92.8848 214.794 91.832 216.482 91.832 219.203ZM93.2402 219.203C93.2334 217.275 93.7119 216.229 94.498 216.236C95.3184 216.229 95.8037 217.275 95.8105 219.203C95.8037 221.138 95.3184 222.177 94.498 222.17C93.7119 222.177 93.2334 221.138 93.2402 219.203ZM108.375 216.824V214.855H106.83V216.824C106.823 219.135 105.702 221.514 103.686 222.457L104.643 223.688C106.064 222.97 107.076 221.548 107.616 219.839C108.143 221.459 109.127 222.771 110.521 223.455L111.438 222.238C109.469 221.377 108.368 219.121 108.375 216.824ZM110.07 219.08H112.668V226.23H114.172V213.857H112.668V217.85H110.07V219.08ZM126.285 215.061H119.381V216.305H120.557V222.04C120.03 222.04 119.531 222.047 119.066 222.047L119.244 223.291C121.384 223.291 124.255 223.243 126.805 222.799L126.736 221.705C126.21 221.773 125.656 221.821 125.096 221.862V216.305H126.285V215.061ZM122.033 222.013V216.305H123.633V221.951C123.093 221.979 122.56 221.999 122.033 222.013ZM127.393 226.217H128.91V219.887H130.811V218.643H128.91V213.857H127.393V226.217ZM134.83 214.254C132.943 214.261 131.549 215.416 131.549 217.043C131.549 218.677 132.943 219.825 134.83 219.832C136.703 219.825 138.098 218.677 138.111 217.043C138.098 215.416 136.703 214.261 134.83 214.254ZM133.025 217.043C133.025 216.106 133.791 215.505 134.83 215.512C135.869 215.505 136.628 216.106 136.635 217.043C136.628 218 135.869 218.602 134.83 218.602C133.791 218.602 133.025 218 133.025 217.043ZM133.422 221.828H140.107V222.744H133.449V226.066H141.994V224.863H134.939V223.865H141.625V220.639H133.422V221.828ZM140.094 220.105H141.625V213.857H140.094V220.105ZM151.25 216.045V214.623H149.719V216.031C149.712 217.836 148.7 219.545 146.711 220.215L147.518 221.418C148.967 220.878 149.979 219.812 150.505 218.451C151.031 219.668 151.981 220.632 153.314 221.131L154.148 219.941C152.228 219.285 151.243 217.686 151.25 216.045ZM148.953 225.971H157.375V224.74H150.498V222.047H148.953V225.971ZM153.123 217.836H155.584V223.045H157.102V213.871H155.584V216.592H153.123V217.836ZM164.17 214.719H159.316V220.844H160.137C162.058 220.851 163.247 220.803 164.703 220.529L164.539 219.299C163.336 219.524 162.283 219.586 160.779 219.6V218.301H164.047V217.139H160.779V215.936H164.17V214.719ZM160.957 223.168H167.902V226.217H169.42V221.938H160.957V223.168ZM165.264 221.295H166.686V218.178H167.971V221.391H169.42V213.871H167.971V216.961H166.686V214.104H165.264V221.295Z" fill="black"/>
<path fill-rule="evenodd" clip-rule="evenodd" d="M83.4441 37.2458C76.6309 31.8077 66.6066 37.0834 67.2316 45.7783L73.2436 129.422C73.7607 136.616 81.4924 140.913 87.8752 137.554L108.068 126.927L127.686 161.208C128.783 163.125 131.227 163.79 133.144 162.693L144.427 156.236C146.345 155.138 147.01 152.695 145.912 150.777L126.663 117.14L147.405 106.224C153.787 102.865 154.623 94.0586 148.986 89.559L83.4441 37.2458Z" fill="#F8F8F8"/>
<circle cx="24.1394" cy="23.1562" r="5" transform="rotate(10.6769 24.1394 23.1562)" fill="black"/>
<rect x="19.8945" y="29.4805" width="6" height="16" rx="3" transform="rotate(10.6769 19.8945 29.4805)" fill="#D9D9D9"/>
<rect x="25.4531" width="6" height="16" rx="3" transform="rotate(10.6769 25.4531 0)" fill="#D9D9D9"/>
<rect x="14.9805" y="12.8672" width="3.53979" height="6.39351" rx="1.76989" transform="rotate(-38.1111 14.9805 12.8672)" fill="#D9D9D9"/>
<rect x="26.2266" y="29.3164" width="3.53979" height="6.39351" rx="1.76989" transform="rotate(-38.1111 26.2266 29.3164)" fill="#D9D9D9"/>
<rect x="17.5742" y="25.3633" width="3.53979" height="6.39351" rx="1.76989" transform="rotate(49.7114 17.5742 25.3633)" fill="#D9D9D9"/>
<rect x="33.7344" y="13.1641" width="3.53979" height="6.39351" rx="1.76989" transform="rotate(49.7114 33.7344 13.1641)" fill="#D9D9D9"/>
<rect x="0.980469" y="21.8438" width="6" height="16" rx="3" transform="rotate(-79.3231 0.980469 21.8438)" fill="#D9D9D9"/>
<rect x="30.4609" y="27.4023" width="6" height="16" rx="3" transform="rotate(-79.3231 30.4609 27.4023)" fill="#D9D9D9"/>
<path fill-rule="evenodd" clip-rule="evenodd" d="M69.448 37.695C62.6348 32.2569 52.6105 37.5326 53.2355 46.2276L59.2475 129.871C59.7646 137.065 67.4963 141.363 73.8791 138.003L94.0716 127.376L113.69 161.657C114.787 163.574 117.231 164.239 119.148 163.142L130.431 156.685C132.349 155.588 133.013 153.144 131.916 151.226L112.667 117.59L133.409 106.673C139.791 103.314 140.627 94.5078 134.989 90.0083L69.448 37.695Z" fill="#D9D9D9"/>
<path fill-rule="evenodd" clip-rule="evenodd" d="M51.5535 41.2653C44.7403 35.8272 34.716 41.1029 35.341 49.7979L41.3529 133.441C41.87 140.635 49.6017 144.933 55.9845 141.574L76.1771 130.946L95.7951 165.227C96.8924 167.145 99.3362 167.81 101.254 166.712L112.537 160.255C114.454 159.158 115.119 156.714 114.022 154.797L94.7721 121.16L115.514 110.243C121.897 106.884 122.732 98.0781 117.095 93.5786L51.5535 41.2653Z" fill="black"/>
<path d="M150.642 166.502C155.322 157.577 168.628 144.306 184.42 162.625C200.212 180.944 216 171.75 221.92 164.864" stroke="#D9D9D9" stroke-width="6" stroke-linecap="round"/>
</svg>
