<svg width="17" height="18" viewBox="0 0 17 18" fill="none" xmlns="http://www.w3.org/2000/svg">
<path d="M6.98081 16.8298C7.54803 16.8649 8.02734 16.4143 8.02734 15.846V7.75595C8.02734 7.18336 7.5411 6.73127 6.97003 6.77289L1.91307 7.14143C1.39786 7.17897 0.999044 7.60792 0.999044 8.12449L0.999044 15.5331C0.999044 16.0539 1.40411 16.4848 1.92385 16.5169L6.98081 16.8298Z" fill="#FF4800" stroke="black" stroke-width="0.732737" stroke-linejoin="round"/>
<path fill-rule="evenodd" clip-rule="evenodd" d="M15.3443 8.19887C15.3446 8.44883 15.2565 8.67825 15.1097 8.85766C15.3886 9.0301 15.5814 9.33183 15.6004 9.68449L15.6742 11.0558C15.6961 11.4608 15.483 11.8245 15.1539 12.0143C15.3087 12.1961 15.4019 12.432 15.4014 12.6895L15.3984 14.07C15.3973 14.5886 15.0164 15.0176 14.5195 15.0944L14.5167 15.9684C14.5148 16.5422 14.0482 17.0058 13.4744 17.0039L10.7387 16.9948L5.64613 16.9955C5.1017 16.9956 4.66032 16.5543 4.66032 16.0098L4.66032 6.95611C4.66032 6.60756 4.84124 6.30125 5.1143 6.126L5.5642 1.92703C5.62197 1.38785 6.08475 0.98423 6.62683 1.00025L7.81079 1.03525C8.38434 1.0522 8.83603 1.53091 8.81967 2.10448L8.7094 5.97044H13.5754C13.5947 5.97044 13.6139 5.97099 13.633 5.97208L14.3031 5.97137C14.8769 5.97076 15.3425 6.43542 15.3431 7.00922L15.3443 8.19887Z" fill="#FF4800"/>
<path d="M15.1097 8.85766L14.917 9.1693C14.8272 9.11378 14.7657 9.02219 14.7483 8.91804C14.7309 8.81388 14.7593 8.70728 14.8262 8.62557L15.1097 8.85766ZM15.3443 8.19887L14.978 8.19924L15.3443 8.19887ZM15.6004 9.68449L15.9662 9.66477L15.6004 9.68449ZM15.6742 11.0558L15.3084 11.0756L15.6742 11.0558ZM15.1539 12.0143L14.8749 12.2517C14.8044 12.1689 14.7744 12.059 14.7929 11.9518C14.8115 11.8446 14.8767 11.7512 14.9709 11.6969L15.1539 12.0143ZM15.4014 12.6895L15.7677 12.6903L15.4014 12.6895ZM15.3984 14.07L15.032 14.0692L15.3984 14.07ZM14.5195 15.0944L14.1531 15.0932C14.1537 14.9129 14.2854 14.7598 14.4635 14.7323L14.5195 15.0944ZM14.5167 15.9684L14.1503 15.9672L14.5167 15.9684ZM13.4744 17.0039L13.4756 16.6375L13.4744 17.0039ZM10.7387 16.9948L10.7387 16.6284L10.74 16.6284L10.7387 16.9948ZM5.64613 16.9955L5.64608 16.6291L5.64613 16.9955ZM4.66032 16.0098L5.02669 16.0098V16.0098H4.66032ZM4.66032 6.95611H4.29395H4.66032ZM5.1143 6.126L5.47859 6.16503C5.46677 6.27536 5.40558 6.37439 5.3122 6.43432L5.1143 6.126ZM5.5642 1.92703L5.92848 1.96606V1.96606L5.5642 1.92703ZM6.62683 1.00025L6.616 1.36646H6.616L6.62683 1.00025ZM7.81079 1.03525L7.82161 0.669041L7.81079 1.03525ZM8.81967 2.10448L8.45345 2.09403L8.81967 2.10448ZM8.7094 5.97044V6.33681C8.61042 6.33681 8.51566 6.29676 8.44667 6.22578C8.37769 6.15481 8.34036 6.05894 8.34318 5.96L8.7094 5.97044ZM13.633 5.97208L13.6334 6.33844C13.6263 6.33845 13.6192 6.33825 13.6122 6.33785L13.633 5.97208ZM14.3031 5.97137L14.3027 5.605H14.3027L14.3031 5.97137ZM15.3431 7.00922L14.9767 7.00959L15.3431 7.00922ZM14.8262 8.62557C14.9214 8.50932 14.9781 8.36139 14.978 8.19924L15.7107 8.1985C15.711 8.53627 15.5917 8.84719 15.3931 9.08975L14.8262 8.62557ZM15.2345 9.7042C15.2222 9.47626 15.0982 9.2813 14.917 9.1693L15.3023 8.54602C15.6791 8.77891 15.9405 9.1874 15.9662 9.66477L15.2345 9.7042ZM15.3084 11.0756L15.2345 9.7042L15.9662 9.66477L16.0401 11.0361L15.3084 11.0756ZM14.9709 11.6969C15.1852 11.5733 15.3225 11.3372 15.3084 11.0756L16.0401 11.0361C16.0696 11.5843 15.7808 12.0756 15.337 12.3316L14.9709 11.6969ZM15.035 12.6888C15.0354 12.5217 14.9753 12.3696 14.8749 12.2517L15.4329 11.7768C15.6421 12.0226 15.7685 12.3423 15.7677 12.6903L15.035 12.6888ZM15.032 14.0692L15.035 12.6888L15.7677 12.6903L15.7648 14.0708L15.032 14.0692ZM14.4635 14.7323C14.7849 14.6826 15.0313 14.4046 15.032 14.0692L15.7648 14.0708C15.7633 14.7726 15.2479 15.3525 14.5754 15.4564L14.4635 14.7323ZM14.1503 15.9672L14.1531 15.0932L14.8859 15.0955L14.883 15.9696L14.1503 15.9672ZM13.4756 16.6375C13.8471 16.6388 14.1491 16.3387 14.1503 15.9672L14.883 15.9696C14.8806 16.7457 14.2493 17.3728 13.4732 17.3703L13.4756 16.6375ZM10.74 16.6284L13.4756 16.6375L13.4732 17.3703L10.7375 17.3612L10.74 16.6284ZM5.64608 16.6291L10.7387 16.6284L10.7388 17.3612L5.64618 17.3619L5.64608 16.6291ZM5.02669 16.0098C5.02669 16.3519 5.30401 16.6292 5.64608 16.6291L5.64618 17.3619C4.89939 17.362 4.29395 16.7566 4.29395 16.0098H5.02669ZM5.02669 6.95611L5.02669 16.0098L4.29395 16.0098L4.29395 6.95611H5.02669ZM5.3122 6.43432C5.13969 6.54504 5.02669 6.7375 5.02669 6.95611H4.29395C4.29395 6.47761 4.5428 6.05747 4.91641 5.81767L5.3122 6.43432ZM5.92848 1.96606L5.47859 6.16503L4.75002 6.08697L5.19991 1.888L5.92848 1.96606ZM6.616 1.36646C6.2652 1.35609 5.96586 1.6172 5.92848 1.96606L5.19991 1.888C5.27808 1.1585 5.9043 0.612368 6.63765 0.634045L6.616 1.36646ZM7.79996 1.40146L6.616 1.36646L6.63765 0.634045L7.82161 0.669041L7.79996 1.40146ZM8.45345 2.09403C8.46404 1.72258 8.17141 1.41244 7.79996 1.40146L7.82161 0.669041C8.59726 0.691969 9.20801 1.33925 9.18589 2.11492L8.45345 2.09403ZM8.34318 5.96L8.45345 2.09403L9.18589 2.11492L9.07562 5.98089L8.34318 5.96ZM13.5754 6.33681H8.7094V5.60407H13.5754V6.33681ZM13.6122 6.33785C13.6001 6.33716 13.5878 6.33681 13.5754 6.33681V5.60407C13.6017 5.60407 13.6278 5.60482 13.6538 5.6063L13.6122 6.33785ZM14.3035 6.33774L13.6334 6.33844L13.6326 5.60571L14.3027 5.605L14.3035 6.33774ZM14.9767 7.00959C14.9764 6.63814 14.6749 6.33734 14.3035 6.33774L14.3027 5.605C15.0789 5.60418 15.7087 6.23271 15.7095 7.00885L14.9767 7.00959ZM14.978 8.19924L14.9767 7.00959L15.7095 7.00885L15.7107 8.1985L14.978 8.19924Z" fill="black"/>
</svg>
