<svg width="24" height="24" viewBox="0 0 24 24" fill="none" xmlns="http://www.w3.org/2000/svg">
<circle cx="12" cy="12" r="12" fill="#FF4800"/>
<path d="M10.9808 18.8259C11.548 18.861 12.0273 18.4104 12.0273 17.8421V9.75205C12.0273 9.17946 11.5411 8.72736 10.97 8.76898L5.91307 9.13752C5.39786 9.17507 4.99904 9.60401 4.99904 10.1206L4.99904 17.5292C4.99904 18.05 5.40411 18.4809 5.92385 18.513L10.9808 18.8259Z" fill="white" stroke="black" stroke-width="0.732737" stroke-linejoin="round"/>
<path fill-rule="evenodd" clip-rule="evenodd" d="M19.3443 10.195C19.3446 10.4449 19.2565 10.6743 19.1097 10.8538C19.3886 11.0262 19.5814 11.3279 19.6004 11.6806L19.6742 13.0519C19.6961 13.4569 19.483 13.8206 19.1539 14.0104C19.3087 14.1922 19.4019 14.4281 19.4014 14.6856L19.3984 16.0661C19.3973 16.5847 19.0164 17.0137 18.5195 17.0905L18.5167 17.9645C18.5148 18.5383 18.0482 19.0019 17.4744 19L14.7387 18.9909L9.64613 18.9916C9.1017 18.9917 8.66032 18.5503 8.66032 18.0059L8.66032 8.95221C8.66032 8.60365 8.84124 8.29735 9.1143 8.12209L9.5642 3.92313C9.62197 3.38394 10.0847 2.98032 10.6268 2.99635L11.8108 3.03134C12.3843 3.0483 12.836 3.52701 12.8197 4.10057L12.7094 7.96654H17.5754C17.5947 7.96654 17.6139 7.96709 17.633 7.96817L18.3031 7.96746C18.8769 7.96686 19.3425 8.43152 19.3431 9.00531L19.3443 10.195Z" fill="white"/>
<path d="M19.1097 10.8538L18.917 11.1654C18.8272 11.1099 18.7657 11.0183 18.7483 10.9141C18.7309 10.81 18.7593 10.7034 18.8262 10.6217L19.1097 10.8538ZM19.3443 10.195L18.978 10.1953L19.3443 10.195ZM19.6004 11.6806L19.9662 11.6609L19.6004 11.6806ZM19.6742 13.0519L19.3084 13.0716L19.6742 13.0519ZM19.1539 14.0104L18.8749 14.2478C18.8044 14.165 18.7744 14.0551 18.7929 13.9479C18.8115 13.8407 18.8767 13.7473 18.9709 13.693L19.1539 14.0104ZM19.4014 14.6856L19.7677 14.6864L19.4014 14.6856ZM19.3984 16.0661L19.032 16.0653L19.3984 16.0661ZM18.5195 17.0905L18.1531 17.0893C18.1537 16.909 18.2854 16.7559 18.4635 16.7284L18.5195 17.0905ZM18.5167 17.9645L18.1503 17.9633L18.5167 17.9645ZM17.4744 19L17.4756 18.6336L17.4744 19ZM14.7387 18.9909L14.7387 18.6245L14.74 18.6245L14.7387 18.9909ZM9.64613 18.9916L9.64608 18.6252L9.64613 18.9916ZM8.66032 18.0059L9.02669 18.0059V18.0059H8.66032ZM8.66032 8.95221H8.29395H8.66032ZM9.1143 8.12209L9.47859 8.16112C9.46677 8.27145 9.40558 8.37048 9.3122 8.43042L9.1143 8.12209ZM9.5642 3.92313L9.92848 3.96216V3.96216L9.5642 3.92313ZM10.6268 2.99635L10.616 3.36256H10.616L10.6268 2.99635ZM11.8108 3.03134L11.8216 2.66513L11.8108 3.03134ZM12.8197 4.10057L12.4534 4.09013L12.8197 4.10057ZM12.7094 7.96654V8.3329C12.6104 8.3329 12.5157 8.29286 12.4467 8.22188C12.3777 8.1509 12.3404 8.05503 12.3432 7.95609L12.7094 7.96654ZM17.633 7.96817L17.6334 8.33454C17.6263 8.33455 17.6192 8.33435 17.6122 8.33395L17.633 7.96817ZM18.3031 7.96746L18.3027 7.60109H18.3027L18.3031 7.96746ZM19.3431 9.00531L18.9767 9.00569L19.3431 9.00531ZM18.8262 10.6217C18.9214 10.5054 18.9781 10.3575 18.978 10.1953L19.7107 10.1946C19.711 10.5324 19.5917 10.8433 19.3931 11.0858L18.8262 10.6217ZM19.2345 11.7003C19.2222 11.4724 19.0982 11.2774 18.917 11.1654L19.3023 10.5421C19.6791 10.775 19.9405 11.1835 19.9662 11.6609L19.2345 11.7003ZM19.3084 13.0716L19.2345 11.7003L19.9662 11.6609L20.0401 13.0322L19.3084 13.0716ZM18.9709 13.693C19.1852 13.5694 19.3225 13.3333 19.3084 13.0716L20.0401 13.0322C20.0696 13.5804 19.7808 14.0717 19.337 14.3277L18.9709 13.693ZM19.035 14.6848C19.0354 14.5178 18.9753 14.3657 18.8749 14.2478L19.4329 13.7729C19.6421 14.0187 19.7685 14.3384 19.7677 14.6864L19.035 14.6848ZM19.032 16.0653L19.035 14.6848L19.7677 14.6864L19.7648 16.0668L19.032 16.0653ZM18.4635 16.7284C18.7849 16.6787 19.0313 16.4006 19.032 16.0653L19.7648 16.0668C19.7633 16.7687 19.2479 17.3486 18.5754 17.4525L18.4635 16.7284ZM18.1503 17.9633L18.1531 17.0893L18.8859 17.0916L18.883 17.9657L18.1503 17.9633ZM17.4756 18.6336C17.8471 18.6349 18.1491 18.3348 18.1503 17.9633L18.883 17.9657C18.8806 18.7418 18.2493 19.3689 17.4732 19.3664L17.4756 18.6336ZM14.74 18.6245L17.4756 18.6336L17.4732 19.3664L14.7375 19.3573L14.74 18.6245ZM9.64608 18.6252L14.7387 18.6245L14.7388 19.3573L9.64618 19.358L9.64608 18.6252ZM9.02669 18.0059C9.02669 18.348 9.30401 18.6253 9.64608 18.6252L9.64618 19.358C8.89939 19.3581 8.29395 18.7527 8.29395 18.0059H9.02669ZM9.02669 8.95221L9.02669 18.0059L8.29395 18.0059L8.29395 8.95221H9.02669ZM9.3122 8.43042C9.13969 8.54114 9.02669 8.73359 9.02669 8.95221H8.29395C8.29395 8.47371 8.5428 8.05356 8.91641 7.81377L9.3122 8.43042ZM9.92848 3.96216L9.47859 8.16112L8.75002 8.08306L9.19991 3.8841L9.92848 3.96216ZM10.616 3.36256C10.2652 3.35219 9.96586 3.61329 9.92848 3.96216L9.19991 3.8841C9.27808 3.1546 9.9043 2.60846 10.6377 2.63014L10.616 3.36256ZM11.8 3.39755L10.616 3.36256L10.6377 2.63014L11.8216 2.66513L11.8 3.39755ZM12.4534 4.09013C12.464 3.71867 12.1714 3.40853 11.8 3.39755L11.8216 2.66513C12.5973 2.68806 13.208 3.33534 13.1859 4.11102L12.4534 4.09013ZM12.3432 7.95609L12.4534 4.09013L13.1859 4.11102L13.0756 7.97698L12.3432 7.95609ZM17.5754 8.3329H12.7094V7.60017H17.5754V8.3329ZM17.6122 8.33395C17.6001 8.33326 17.5878 8.3329 17.5754 8.3329V7.60017C17.6017 7.60017 17.6278 7.60092 17.6538 7.60239L17.6122 8.33395ZM18.3035 8.33383L17.6334 8.33454L17.6326 7.6018L18.3027 7.60109L18.3035 8.33383ZM18.9767 9.00569C18.9764 8.63424 18.6749 8.33344 18.3035 8.33383L18.3027 7.60109C19.0789 7.60027 19.7087 8.2288 19.7095 9.00494L18.9767 9.00569ZM18.978 10.1953L18.9767 9.00569L19.7095 9.00494L19.7107 10.1946L18.978 10.1953Z" fill="black"/>
</svg>
