<svg width="25" height="25" viewBox="0 0 25 25" fill="none" xmlns="http://www.w3.org/2000/svg">
<path fill-rule="evenodd" clip-rule="evenodd" d="M0.551173 3.37873C-0.210277 2.57856 -0.17889 1.31262 0.621278 0.551172C1.42145 -0.210277 2.68739 -0.17889 3.44884 0.621277L12.1538 9.76892L20.8589 0.621277C21.6203 -0.17889 22.8862 -0.210277 23.6864 0.551172C24.4866 1.31262 24.518 2.57856 23.7565 3.37873L14.9832 12.5982L23.6845 20.8571C24.4857 21.6175 24.5187 22.8834 23.7583 23.6845C22.9979 24.4857 21.732 24.5187 20.9308 23.7583L12.1538 15.4276L3.37686 23.7583C2.57571 24.5187 1.30981 24.4857 0.549391 23.6845C-0.211023 22.8834 -0.178 21.6175 0.623151 20.8571L9.32451 12.5982L0.551173 3.37873Z" fill="black"/>
</svg>
