<svg width="16" height="16" viewBox="0 0 16 16" fill="none" xmlns="http://www.w3.org/2000/svg">
<circle cx="8" cy="8" r="7.5" fill="white" stroke="black"/>
<path fill-rule="evenodd" clip-rule="evenodd" d="M3.28599 11.2566C2.90324 11.6547 2.90539 12.3025 3.28814 12.7007C3.67089 13.0988 4.2936 13.101 4.67635 12.7029L8.00019 9.24533L11.324 12.7029C11.7068 13.101 12.3295 13.0988 12.7122 12.7007C13.095 12.3025 13.0971 11.6547 12.7144 11.2566L9.39055 7.79903L12.3276 4.74379C12.7104 4.34564 12.7082 3.69788 12.3255 3.29973C11.9427 2.90158 11.32 2.89935 10.9373 3.29749L8.00019 6.35274L5.06311 3.29749C4.68036 2.89935 4.05765 2.90158 3.6749 3.29973C3.29215 3.69788 3.29 4.34564 3.67275 4.74379L6.60983 7.79903L3.28599 11.2566Z" fill="black"/>
</svg>
