<svg width="17" height="18" viewBox="0 0 17 18" fill="none" xmlns="http://www.w3.org/2000/svg">
<path d="M7.13838 16.8274C7.70513 16.8617 8.18359 16.4113 8.18359 15.8435V7.75299C8.18359 7.18102 7.69836 6.72914 7.12783 6.76981L1.91623 7.14135C1.40037 7.17813 1.00065 7.60735 1.00065 8.12453L1.00065 15.5281C1.00065 16.0493 1.40648 16.4805 1.92678 16.512L7.13838 16.8274Z" fill="white" stroke="black" stroke-width="0.732737" stroke-linejoin="round"/>
<path fill-rule="evenodd" clip-rule="evenodd" d="M15.6609 8.19489C15.6612 8.44402 15.5737 8.67275 15.4277 8.85189C15.7088 9.02429 15.9034 9.32724 15.9229 9.68132L15.9984 11.0519C16.0208 11.4593 15.8055 11.8246 15.4732 12.013C15.6271 12.1946 15.7196 12.4298 15.7191 12.6864L15.716 14.066C15.7149 14.5913 15.324 15.0247 14.8177 15.0932L14.8148 15.9644C14.8129 16.5382 14.3462 17.0019 13.7725 17L10.9529 16.9908L5.72814 16.9915C5.18372 16.9916 4.74234 16.5503 4.74234 16.0059L4.74234 6.95497C4.74234 6.60195 4.92792 6.29227 5.20685 6.11818L5.66611 1.92518C5.72508 1.38676 6.18778 0.983883 6.72917 0.999537L7.98479 1.03584C8.55835 1.05243 9.00975 1.53083 8.99303 2.10438L8.88034 5.9693H13.5616L14.6196 5.9682C15.1934 5.96761 15.6591 6.43228 15.6597 7.00608L15.6609 8.19489Z" fill="white"/>
<path d="M15.4277 8.85189L15.2362 9.16419C15.1461 9.10894 15.0842 9.01748 15.0665 8.91329C15.0488 8.80911 15.077 8.70235 15.1437 8.62043L15.4277 8.85189ZM15.6609 8.19489L16.0273 8.19451L15.6609 8.19489ZM15.9229 9.68132L16.2887 9.66117L15.9229 9.68132ZM15.9984 11.0519L16.3642 11.0318H16.3642L15.9984 11.0519ZM15.4732 12.013L15.1936 12.2498C15.1231 12.1666 15.0934 12.0562 15.1125 11.9488C15.1316 11.8414 15.1976 11.7481 15.2925 11.6943L15.4732 12.013ZM15.7191 12.6864L15.3527 12.6856V12.6856L15.7191 12.6864ZM15.716 14.066L15.3497 14.0652L15.716 14.066ZM14.8177 15.0932L14.4513 15.092C14.4519 14.9091 14.5873 14.7547 14.7685 14.7302L14.8177 15.0932ZM14.8148 15.9644L15.1812 15.9656V15.9656L14.8148 15.9644ZM13.7725 17L13.7736 16.6336L13.7725 17ZM10.9529 16.9908L10.9528 16.6245L10.9541 16.6245L10.9529 16.9908ZM5.72814 16.9915L5.72819 17.3579L5.72814 16.9915ZM4.74234 16.0059L4.37597 16.0059V16.0059L4.74234 16.0059ZM4.74234 6.95497H4.37597H4.74234ZM5.20685 6.11818L5.57104 6.15807C5.55882 6.26969 5.49609 6.36953 5.40083 6.42898L5.20685 6.11818ZM5.66611 1.92518L5.30192 1.88529V1.88529L5.66611 1.92518ZM6.72917 0.999537L6.73976 0.633322H6.73976L6.72917 0.999537ZM7.98479 1.03584L7.97421 1.40206H7.97421L7.98479 1.03584ZM8.99303 2.10438L8.62682 2.09371L8.99303 2.10438ZM8.88034 5.9693V6.33566C8.78132 6.33566 8.68652 6.29558 8.61753 6.22455C8.54854 6.15352 8.51124 6.05759 8.51413 5.95862L8.88034 5.9693ZM13.5616 5.9693L13.562 6.33566H13.5616V5.9693ZM14.6196 5.9682L14.6192 5.60183L14.6196 5.9682ZM15.6597 7.00608L15.2933 7.00646L15.6597 7.00608ZM15.1437 8.62043C15.2383 8.50436 15.2947 8.35688 15.2945 8.19527L16.0273 8.19451C16.0276 8.53115 15.9091 8.84114 15.7117 9.08335L15.1437 8.62043ZM15.5571 9.70147C15.5445 9.47256 15.4191 9.27642 15.2362 9.16419L15.6193 8.53959C15.9984 8.77216 16.2623 9.18193 16.2887 9.66117L15.5571 9.70147ZM15.6326 11.0721L15.5571 9.70147L16.2887 9.66117L16.3642 11.0318L15.6326 11.0721ZM15.2925 11.6943C15.5084 11.5719 15.6471 11.3352 15.6326 11.0721L16.3642 11.0318C16.3946 11.5833 16.1026 12.0773 15.6539 12.3317L15.2925 11.6943ZM15.3527 12.6856C15.3531 12.5192 15.2934 12.3675 15.1936 12.2498L15.7527 11.7762C15.9607 12.0217 16.0862 12.3403 16.0854 12.6873L15.3527 12.6856ZM15.3497 14.0652L15.3527 12.6856L16.0854 12.6873L16.0824 14.0668L15.3497 14.0652ZM14.7685 14.7302C15.096 14.6859 15.3489 14.405 15.3497 14.0652L16.0824 14.0668C16.0808 14.7777 15.552 15.3636 14.8668 15.4563L14.7685 14.7302ZM14.4484 15.9632L14.4513 15.092L15.184 15.0944L15.1812 15.9656L14.4484 15.9632ZM13.7736 16.6336C14.1451 16.6348 14.4472 16.3347 14.4484 15.9632L15.1812 15.9656C15.1786 16.7418 14.5474 17.3689 13.7713 17.3664L13.7736 16.6336ZM10.9541 16.6245L13.7736 16.6336L13.7713 17.3664L10.9517 17.3572L10.9541 16.6245ZM5.72809 16.6252L10.9528 16.6245L10.9529 17.3572L5.72819 17.3579L5.72809 16.6252ZM5.1087 16.0059C5.10871 16.3479 5.38603 16.6252 5.72809 16.6252L5.72819 17.3579C4.98141 17.358 4.37597 16.7526 4.37597 16.0059L5.1087 16.0059ZM5.1087 6.95497L5.1087 16.0059L4.37597 16.0059L4.37597 6.95497H5.1087ZM5.40083 6.42898C5.22463 6.53896 5.1087 6.73357 5.1087 6.95497H4.37597C4.37597 6.47032 4.63122 6.04558 5.01287 5.80738L5.40083 6.42898ZM6.0303 1.96507L5.57104 6.15807L4.84266 6.07829L5.30192 1.88529L6.0303 1.96507ZM6.71858 1.36575C6.36807 1.35562 6.06848 1.61647 6.0303 1.96507L5.30192 1.88529C5.38168 1.15706 6.00748 0.612148 6.73976 0.633322L6.71858 1.36575ZM7.97421 1.40206L6.71858 1.36575L6.73976 0.633322L7.99538 0.669628L7.97421 1.40206ZM8.62682 2.09371C8.63764 1.72244 8.34547 1.41279 7.97421 1.40206L7.99538 0.669628C8.77123 0.692062 9.38187 1.33922 9.35924 2.11506L8.62682 2.09371ZM8.51413 5.95862L8.62682 2.09371L9.35924 2.11506L9.24656 5.97997L8.51413 5.95862ZM13.5616 6.33566H8.88034V5.60293H13.5616V6.33566ZM14.62 6.33457L13.562 6.33566L13.5612 5.60293L14.6192 5.60183L14.62 6.33457ZM15.2933 7.00646C15.2929 6.635 14.9915 6.33419 14.62 6.33457L14.6192 5.60183C15.3954 5.60103 16.0252 6.22956 16.026 7.0057L15.2933 7.00646ZM15.2945 8.19527L15.2933 7.00646L16.026 7.0057L16.0273 8.19451L15.2945 8.19527Z" fill="black"/>
</svg>
