<svg width="22" height="22" viewBox="0 0 22 22" fill="none" xmlns="http://www.w3.org/2000/svg">
<path fill-rule="evenodd" clip-rule="evenodd" d="M16.8283 9.4146C16.8283 13.5097 13.5088 16.8292 9.41415 16.8292C5.31952 16.8292 2 13.5097 2 9.4146C2 5.31954 5.31952 2 9.41415 2C13.5088 2 16.8283 5.31954 16.8283 9.4146ZM15.452 16.6382C13.8176 18.0059 11.712 18.8292 9.41415 18.8292C4.21486 18.8292 0 14.6141 0 9.4146C0 4.21506 4.21486 0 9.41415 0C14.6134 0 18.8283 4.21506 18.8283 9.4146C18.8283 11.712 18.0054 13.8172 16.6383 15.4516L21.7543 20.5678C22.0819 20.8954 22.0819 21.4266 21.7543 21.7543C21.4266 22.0819 20.8954 22.0819 20.5678 21.7543L15.452 16.6382Z" fill="#707070"/>
</svg>
