<svg width="648" height="52" viewBox="0 0 648 52" fill="none" xmlns="http://www.w3.org/2000/svg">
<g filter="url(#filter0_d_1660_15645)">
<mask id="path-1-outside-1_1660_15645" maskUnits="userSpaceOnUse" x="2" y="0" width="646" height="50" fill="black">
<rect fill="white" x="2" width="646" height="50"/>
<path d="M39.4571 27.2731V47.4985H3V37.286H7.56427V12.1539H3V2.11254H26.7057V12.1539H22.1699V37.286H29.4728L32.2113 27.2731H39.4571Z"/>
<path d="M81.3343 28.1574V47.4985H43.023V37.4571H48.5286V12.1539H43.023V2.11254H81.3343V20.1699H74.0315L71.2929 12.1539H63.1343V19.5709H70.4371V27.0449H63.1343V37.4571H71.2929L74.0315 28.1574H81.3343Z"/>
<path d="M117.449 37.2289V47.4985H92.0318V37.2289H96.7102V12.1539H92.6879L91.4613 19.9703H83.4453V2.11254H126.15V19.9703H118.162L116.936 12.1539H112.771V37.2289H117.449Z"/>
<path d="M137.841 6.42737C137.49 7.79057 137.042 9.27061 136.497 10.8675C135.952 12.4644 135.348 14.0613 134.686 15.6582C134.063 17.2161 133.439 18.6961 132.816 20.0983H129.019C129.291 19.0077 129.564 17.8393 129.837 16.5929C130.148 15.3466 130.421 14.1002 130.655 12.8539C130.927 11.5686 131.161 10.3222 131.356 9.11482C131.589 7.90742 131.784 6.79738 131.94 5.78472H137.432L137.841 6.42737Z"/>
<path d="M162.065 48.3258C160.505 48.3258 159.174 48.2117 158.071 47.9835C156.968 47.7553 155.941 47.3844 154.99 46.8709C154.058 46.3574 153.06 45.6918 151.995 44.8741L150.997 47.4985H141.782V33.606H150.939C151.529 35.2035 152.432 36.3351 153.649 37.0007C154.886 37.6473 156.398 37.9706 158.185 37.9706C159.288 37.9706 160.23 37.7519 161.009 37.3145C161.789 36.8581 162.179 36.259 162.179 35.5173C162.179 34.5854 161.78 33.8913 160.981 33.4349C160.182 32.9594 159.06 32.522 157.615 32.1226C155.77 31.6282 154.096 31.1052 152.594 30.5537C151.111 30.0021 149.779 29.4316 148.6 28.8421C146.242 27.663 144.34 25.9894 142.895 23.8214C141.45 21.6533 140.727 18.7721 140.727 15.1778C140.727 12.4202 141.326 9.98591 142.524 7.87493C143.703 5.78298 145.396 4.15695 147.602 2.99687C149.827 1.81777 152.442 1.22821 155.447 1.22821C159.117 1.22821 162.017 2.39781 164.147 4.737L165.602 2.05549H173.789V15.6627H165.032C164.214 13.9511 163.311 12.7625 162.322 12.0969C161.333 11.4313 159.973 11.0985 158.242 11.0985C156.93 11.0985 155.913 11.3362 155.19 11.8116C154.467 12.268 154.106 12.9051 154.106 13.7229C154.106 14.6358 154.629 15.3299 155.675 15.8054C156.702 16.2998 158.166 16.7562 160.068 17.1746C163.396 17.9353 166.268 18.8957 168.683 20.0558C171.041 21.2159 172.924 22.861 174.331 24.991C175.758 27.1019 176.471 29.831 176.471 33.1781C176.471 36.0118 175.881 38.5792 174.702 40.8803C173.504 43.1815 171.802 44.9977 169.596 46.3289C167.409 47.6602 164.899 48.3258 162.065 48.3258Z"/>
<path d="M220.973 48.3258C216.313 48.3258 212.082 47.4605 208.278 45.7299C204.437 44.0183 201.365 41.3558 199.064 37.7424C196.763 34.129 195.612 29.5742 195.612 24.0781C195.612 19.704 196.516 15.7863 198.322 12.3251C200.129 8.86386 202.753 6.15382 206.196 4.19499C209.657 2.21714 213.727 1.22821 218.405 1.22821C220.383 1.22821 222.304 1.56103 224.167 2.22665C226.05 2.89227 227.534 3.86218 228.618 5.13637L229.559 2.11254H239.429V18.8577H230.615C230.025 16.4615 228.893 14.6453 227.22 13.4091C225.546 12.173 223.797 11.5549 221.971 11.5549C218.928 11.5549 216.522 12.6674 214.754 14.8925C212.985 17.1176 212.101 20.1794 212.101 24.0781C212.101 28.0148 212.976 31.1052 214.725 33.3493C216.475 35.5744 218.947 36.6869 222.142 36.6869C222.903 36.6869 223.721 36.6108 224.595 36.4587C225.242 36.3446 225.851 36.1924 226.421 36.0023C226.992 35.7931 227.372 35.6694 227.562 35.6314V31.6091H222.085V23.1367H240.371V43.5333C237.442 45.0928 234.304 46.2814 230.957 47.0991C227.61 47.9169 224.282 48.3258 220.973 48.3258Z"/>
<path d="M278.397 37.286V47.4985H253.636V37.286H258V28.9276L246.047 12.1539H242.824V2.11254H267.129V12.1539H264.561L269.753 19.742L273.832 12.1539H269.696V2.11254H287.868V12.1539H282.733L273.918 27.3872V37.286H278.397Z"/>
<path d="M310.233 37.4571V47.4985H291.063V37.4571H296.568V12.1539H291.063V2.11254H315.538L324.353 23.964L333.082 2.11254H355.904V12.1539H350.427V37.4571H355.904V47.4985H332.141V37.4571H335.821V20.5123L325.78 47.4985H317.535L305.668 19.8561V37.4571H310.233Z"/>
<path d="M392.732 37.2289V47.4985H367.314V37.2289H371.993V12.1539H367.971L366.744 19.9703H358.728V2.11254H401.432V19.9703H393.445L392.218 12.1539H388.053V37.2289H392.732Z"/>
<path d="M430.986 37.4571V47.4985H407.28V37.4571H411.845V12.1539H407.28V2.11254H430.986V12.1539H426.45V37.4571H430.986Z"/>
<path d="M477.057 12.1539L465.732 47.4985H449.015L438.745 12.1539H434.01V2.11254H458.657V12.1539H455.405L461.11 32.7787L466.131 12.1539H462.394V2.11254H482.22V12.1539H477.057Z"/>
<path d="M499.907 37.4571V47.4985H479.881V37.4571H484.388L492.204 12.1539H486.242V2.11254H514.512L524.639 37.4571H529.118V47.4985H503.586V37.4571H507.295L506.068 32.6076H495.77L494.486 37.4571H499.907ZM504.699 25.7041L501.39 11.8116L497.225 25.7041H504.699Z"/>
<path d="M561.439 37.2289V47.4985H536.021V37.2289H540.7V12.1539H536.677L535.451 19.9703H527.435V2.11254H570.139V19.9703H562.152L560.925 12.1539H556.76V37.2289H561.439Z"/>
<path d="M613.357 28.1574V47.4985H575.046V37.4571H580.552V12.1539H575.046V2.11254H613.357V20.1699H606.054L603.316 12.1539H595.157V19.5709H602.46V27.0449H595.157V37.4571H603.316L606.054 28.1574H613.357Z"/>
<path d="M646.848 9.52948L644.451 31.6091L632.47 31.6662L630.074 9.52948V1H646.848V9.52948ZM638.432 48.4399C636.093 48.4399 634.182 47.8123 632.698 46.5571C631.215 45.2639 630.473 43.5523 630.473 41.4223C630.473 39.2353 631.215 37.5047 632.698 36.2305C634.22 34.9373 636.112 34.2907 638.375 34.2907H638.432C640.714 34.2907 642.664 34.9373 644.28 36.2305C645.84 37.5047 646.619 39.2353 646.619 41.4223C646.619 43.5523 645.859 45.2639 644.337 46.5571C642.778 47.8123 640.809 48.4399 638.432 48.4399Z"/>
</mask>
<path d="M39.4571 27.2731V47.4985H3V37.286H7.56427V12.1539H3V2.11254H26.7057V12.1539H22.1699V37.286H29.4728L32.2113 27.2731H39.4571Z" fill="#FF3D00"/>
<path d="M81.3343 28.1574V47.4985H43.023V37.4571H48.5286V12.1539H43.023V2.11254H81.3343V20.1699H74.0315L71.2929 12.1539H63.1343V19.5709H70.4371V27.0449H63.1343V37.4571H71.2929L74.0315 28.1574H81.3343Z" fill="#FF3D00"/>
<path d="M117.449 37.2289V47.4985H92.0318V37.2289H96.7102V12.1539H92.6879L91.4613 19.9703H83.4453V2.11254H126.15V19.9703H118.162L116.936 12.1539H112.771V37.2289H117.449Z" fill="#FF3D00"/>
<path d="M137.841 6.42737C137.49 7.79057 137.042 9.27061 136.497 10.8675C135.952 12.4644 135.348 14.0613 134.686 15.6582C134.063 17.2161 133.439 18.6961 132.816 20.0983H129.019C129.291 19.0077 129.564 17.8393 129.837 16.5929C130.148 15.3466 130.421 14.1002 130.655 12.8539C130.927 11.5686 131.161 10.3222 131.356 9.11482C131.589 7.90742 131.784 6.79738 131.94 5.78472H137.432L137.841 6.42737Z" fill="#FF3D00"/>
<path d="M162.065 48.3258C160.505 48.3258 159.174 48.2117 158.071 47.9835C156.968 47.7553 155.941 47.3844 154.99 46.8709C154.058 46.3574 153.06 45.6918 151.995 44.8741L150.997 47.4985H141.782V33.606H150.939C151.529 35.2035 152.432 36.3351 153.649 37.0007C154.886 37.6473 156.398 37.9706 158.185 37.9706C159.288 37.9706 160.23 37.7519 161.009 37.3145C161.789 36.8581 162.179 36.259 162.179 35.5173C162.179 34.5854 161.78 33.8913 160.981 33.4349C160.182 32.9594 159.06 32.522 157.615 32.1226C155.77 31.6282 154.096 31.1052 152.594 30.5537C151.111 30.0021 149.779 29.4316 148.6 28.8421C146.242 27.663 144.34 25.9894 142.895 23.8214C141.45 21.6533 140.727 18.7721 140.727 15.1778C140.727 12.4202 141.326 9.98591 142.524 7.87493C143.703 5.78298 145.396 4.15695 147.602 2.99687C149.827 1.81777 152.442 1.22821 155.447 1.22821C159.117 1.22821 162.017 2.39781 164.147 4.737L165.602 2.05549H173.789V15.6627H165.032C164.214 13.9511 163.311 12.7625 162.322 12.0969C161.333 11.4313 159.973 11.0985 158.242 11.0985C156.93 11.0985 155.913 11.3362 155.19 11.8116C154.467 12.268 154.106 12.9051 154.106 13.7229C154.106 14.6358 154.629 15.3299 155.675 15.8054C156.702 16.2998 158.166 16.7562 160.068 17.1746C163.396 17.9353 166.268 18.8957 168.683 20.0558C171.041 21.2159 172.924 22.861 174.331 24.991C175.758 27.1019 176.471 29.831 176.471 33.1781C176.471 36.0118 175.881 38.5792 174.702 40.8803C173.504 43.1815 171.802 44.9977 169.596 46.3289C167.409 47.6602 164.899 48.3258 162.065 48.3258Z" fill="#FF3D00"/>
<path d="M220.973 48.3258C216.313 48.3258 212.082 47.4605 208.278 45.7299C204.437 44.0183 201.365 41.3558 199.064 37.7424C196.763 34.129 195.612 29.5742 195.612 24.0781C195.612 19.704 196.516 15.7863 198.322 12.3251C200.129 8.86386 202.753 6.15382 206.196 4.19499C209.657 2.21714 213.727 1.22821 218.405 1.22821C220.383 1.22821 222.304 1.56103 224.167 2.22665C226.05 2.89227 227.534 3.86218 228.618 5.13637L229.559 2.11254H239.429V18.8577H230.615C230.025 16.4615 228.893 14.6453 227.22 13.4091C225.546 12.173 223.797 11.5549 221.971 11.5549C218.928 11.5549 216.522 12.6674 214.754 14.8925C212.985 17.1176 212.101 20.1794 212.101 24.0781C212.101 28.0148 212.976 31.1052 214.725 33.3493C216.475 35.5744 218.947 36.6869 222.142 36.6869C222.903 36.6869 223.721 36.6108 224.595 36.4587C225.242 36.3446 225.851 36.1924 226.421 36.0023C226.992 35.7931 227.372 35.6694 227.562 35.6314V31.6091H222.085V23.1367H240.371V43.5333C237.442 45.0928 234.304 46.2814 230.957 47.0991C227.61 47.9169 224.282 48.3258 220.973 48.3258Z" fill="#FF3D00"/>
<path d="M278.397 37.286V47.4985H253.636V37.286H258V28.9276L246.047 12.1539H242.824V2.11254H267.129V12.1539H264.561L269.753 19.742L273.832 12.1539H269.696V2.11254H287.868V12.1539H282.733L273.918 27.3872V37.286H278.397Z" fill="#FF3D00"/>
<path d="M310.233 37.4571V47.4985H291.063V37.4571H296.568V12.1539H291.063V2.11254H315.538L324.353 23.964L333.082 2.11254H355.904V12.1539H350.427V37.4571H355.904V47.4985H332.141V37.4571H335.821V20.5123L325.78 47.4985H317.535L305.668 19.8561V37.4571H310.233Z" fill="#FF3D00"/>
<path d="M392.732 37.2289V47.4985H367.314V37.2289H371.993V12.1539H367.971L366.744 19.9703H358.728V2.11254H401.432V19.9703H393.445L392.218 12.1539H388.053V37.2289H392.732Z" fill="#FF3D00"/>
<path d="M430.986 37.4571V47.4985H407.28V37.4571H411.845V12.1539H407.28V2.11254H430.986V12.1539H426.45V37.4571H430.986Z" fill="#FF3D00"/>
<path d="M477.057 12.1539L465.732 47.4985H449.015L438.745 12.1539H434.01V2.11254H458.657V12.1539H455.405L461.11 32.7787L466.131 12.1539H462.394V2.11254H482.22V12.1539H477.057Z" fill="#FF3D00"/>
<path d="M499.907 37.4571V47.4985H479.881V37.4571H484.388L492.204 12.1539H486.242V2.11254H514.512L524.639 37.4571H529.118V47.4985H503.586V37.4571H507.295L506.068 32.6076H495.77L494.486 37.4571H499.907ZM504.699 25.7041L501.39 11.8116L497.225 25.7041H504.699Z" fill="#FF3D00"/>
<path d="M561.439 37.2289V47.4985H536.021V37.2289H540.7V12.1539H536.677L535.451 19.9703H527.435V2.11254H570.139V19.9703H562.152L560.925 12.1539H556.76V37.2289H561.439Z" fill="#FF3D00"/>
<path d="M613.357 28.1574V47.4985H575.046V37.4571H580.552V12.1539H575.046V2.11254H613.357V20.1699H606.054L603.316 12.1539H595.157V19.5709H602.46V27.0449H595.157V37.4571H603.316L606.054 28.1574H613.357Z" fill="#FF3D00"/>
<path d="M646.848 9.52948L644.451 31.6091L632.47 31.6662L630.074 9.52948V1H646.848V9.52948ZM638.432 48.4399C636.093 48.4399 634.182 47.8123 632.698 46.5571C631.215 45.2639 630.473 43.5523 630.473 41.4223C630.473 39.2353 631.215 37.5047 632.698 36.2305C634.22 34.9373 636.112 34.2907 638.375 34.2907H638.432C640.714 34.2907 642.664 34.9373 644.28 36.2305C645.84 37.5047 646.619 39.2353 646.619 41.4223C646.619 43.5523 645.859 45.2639 644.337 46.5571C642.778 47.8123 640.809 48.4399 638.432 48.4399Z" fill="#FF3D00"/>
<path d="M39.4571 27.2731V47.4985H3V37.286H7.56427V12.1539H3V2.11254H26.7057V12.1539H22.1699V37.286H29.4728L32.2113 27.2731H39.4571Z" stroke="black" stroke-width="2" mask="url(#path-1-outside-1_1660_15645)"/>
<path d="M81.3343 28.1574V47.4985H43.023V37.4571H48.5286V12.1539H43.023V2.11254H81.3343V20.1699H74.0315L71.2929 12.1539H63.1343V19.5709H70.4371V27.0449H63.1343V37.4571H71.2929L74.0315 28.1574H81.3343Z" stroke="black" stroke-width="2" mask="url(#path-1-outside-1_1660_15645)"/>
<path d="M117.449 37.2289V47.4985H92.0318V37.2289H96.7102V12.1539H92.6879L91.4613 19.9703H83.4453V2.11254H126.15V19.9703H118.162L116.936 12.1539H112.771V37.2289H117.449Z" stroke="black" stroke-width="2" mask="url(#path-1-outside-1_1660_15645)"/>
<path d="M137.841 6.42737C137.49 7.79057 137.042 9.27061 136.497 10.8675C135.952 12.4644 135.348 14.0613 134.686 15.6582C134.063 17.2161 133.439 18.6961 132.816 20.0983H129.019C129.291 19.0077 129.564 17.8393 129.837 16.5929C130.148 15.3466 130.421 14.1002 130.655 12.8539C130.927 11.5686 131.161 10.3222 131.356 9.11482C131.589 7.90742 131.784 6.79738 131.94 5.78472H137.432L137.841 6.42737Z" stroke="black" stroke-width="2" mask="url(#path-1-outside-1_1660_15645)"/>
<path d="M162.065 48.3258C160.505 48.3258 159.174 48.2117 158.071 47.9835C156.968 47.7553 155.941 47.3844 154.99 46.8709C154.058 46.3574 153.06 45.6918 151.995 44.8741L150.997 47.4985H141.782V33.606H150.939C151.529 35.2035 152.432 36.3351 153.649 37.0007C154.886 37.6473 156.398 37.9706 158.185 37.9706C159.288 37.9706 160.23 37.7519 161.009 37.3145C161.789 36.8581 162.179 36.259 162.179 35.5173C162.179 34.5854 161.78 33.8913 160.981 33.4349C160.182 32.9594 159.06 32.522 157.615 32.1226C155.77 31.6282 154.096 31.1052 152.594 30.5537C151.111 30.0021 149.779 29.4316 148.6 28.8421C146.242 27.663 144.34 25.9894 142.895 23.8214C141.45 21.6533 140.727 18.7721 140.727 15.1778C140.727 12.4202 141.326 9.98591 142.524 7.87493C143.703 5.78298 145.396 4.15695 147.602 2.99687C149.827 1.81777 152.442 1.22821 155.447 1.22821C159.117 1.22821 162.017 2.39781 164.147 4.737L165.602 2.05549H173.789V15.6627H165.032C164.214 13.9511 163.311 12.7625 162.322 12.0969C161.333 11.4313 159.973 11.0985 158.242 11.0985C156.93 11.0985 155.913 11.3362 155.19 11.8116C154.467 12.268 154.106 12.9051 154.106 13.7229C154.106 14.6358 154.629 15.3299 155.675 15.8054C156.702 16.2998 158.166 16.7562 160.068 17.1746C163.396 17.9353 166.268 18.8957 168.683 20.0558C171.041 21.2159 172.924 22.861 174.331 24.991C175.758 27.1019 176.471 29.831 176.471 33.1781C176.471 36.0118 175.881 38.5792 174.702 40.8803C173.504 43.1815 171.802 44.9977 169.596 46.3289C167.409 47.6602 164.899 48.3258 162.065 48.3258Z" stroke="black" stroke-width="2" mask="url(#path-1-outside-1_1660_15645)"/>
<path d="M220.973 48.3258C216.313 48.3258 212.082 47.4605 208.278 45.7299C204.437 44.0183 201.365 41.3558 199.064 37.7424C196.763 34.129 195.612 29.5742 195.612 24.0781C195.612 19.704 196.516 15.7863 198.322 12.3251C200.129 8.86386 202.753 6.15382 206.196 4.19499C209.657 2.21714 213.727 1.22821 218.405 1.22821C220.383 1.22821 222.304 1.56103 224.167 2.22665C226.05 2.89227 227.534 3.86218 228.618 5.13637L229.559 2.11254H239.429V18.8577H230.615C230.025 16.4615 228.893 14.6453 227.22 13.4091C225.546 12.173 223.797 11.5549 221.971 11.5549C218.928 11.5549 216.522 12.6674 214.754 14.8925C212.985 17.1176 212.101 20.1794 212.101 24.0781C212.101 28.0148 212.976 31.1052 214.725 33.3493C216.475 35.5744 218.947 36.6869 222.142 36.6869C222.903 36.6869 223.721 36.6108 224.595 36.4587C225.242 36.3446 225.851 36.1924 226.421 36.0023C226.992 35.7931 227.372 35.6694 227.562 35.6314V31.6091H222.085V23.1367H240.371V43.5333C237.442 45.0928 234.304 46.2814 230.957 47.0991C227.61 47.9169 224.282 48.3258 220.973 48.3258Z" stroke="black" stroke-width="2" mask="url(#path-1-outside-1_1660_15645)"/>
<path d="M278.397 37.286V47.4985H253.636V37.286H258V28.9276L246.047 12.1539H242.824V2.11254H267.129V12.1539H264.561L269.753 19.742L273.832 12.1539H269.696V2.11254H287.868V12.1539H282.733L273.918 27.3872V37.286H278.397Z" stroke="black" stroke-width="2" mask="url(#path-1-outside-1_1660_15645)"/>
<path d="M310.233 37.4571V47.4985H291.063V37.4571H296.568V12.1539H291.063V2.11254H315.538L324.353 23.964L333.082 2.11254H355.904V12.1539H350.427V37.4571H355.904V47.4985H332.141V37.4571H335.821V20.5123L325.78 47.4985H317.535L305.668 19.8561V37.4571H310.233Z" stroke="black" stroke-width="2" mask="url(#path-1-outside-1_1660_15645)"/>
<path d="M392.732 37.2289V47.4985H367.314V37.2289H371.993V12.1539H367.971L366.744 19.9703H358.728V2.11254H401.432V19.9703H393.445L392.218 12.1539H388.053V37.2289H392.732Z" stroke="black" stroke-width="2" mask="url(#path-1-outside-1_1660_15645)"/>
<path d="M430.986 37.4571V47.4985H407.28V37.4571H411.845V12.1539H407.28V2.11254H430.986V12.1539H426.45V37.4571H430.986Z" stroke="black" stroke-width="2" mask="url(#path-1-outside-1_1660_15645)"/>
<path d="M477.057 12.1539L465.732 47.4985H449.015L438.745 12.1539H434.01V2.11254H458.657V12.1539H455.405L461.11 32.7787L466.131 12.1539H462.394V2.11254H482.22V12.1539H477.057Z" stroke="black" stroke-width="2" mask="url(#path-1-outside-1_1660_15645)"/>
<path d="M499.907 37.4571V47.4985H479.881V37.4571H484.388L492.204 12.1539H486.242V2.11254H514.512L524.639 37.4571H529.118V47.4985H503.586V37.4571H507.295L506.068 32.6076H495.77L494.486 37.4571H499.907ZM504.699 25.7041L501.39 11.8116L497.225 25.7041H504.699Z" stroke="black" stroke-width="2" mask="url(#path-1-outside-1_1660_15645)"/>
<path d="M561.439 37.2289V47.4985H536.021V37.2289H540.7V12.1539H536.677L535.451 19.9703H527.435V2.11254H570.139V19.9703H562.152L560.925 12.1539H556.76V37.2289H561.439Z" stroke="black" stroke-width="2" mask="url(#path-1-outside-1_1660_15645)"/>
<path d="M613.357 28.1574V47.4985H575.046V37.4571H580.552V12.1539H575.046V2.11254H613.357V20.1699H606.054L603.316 12.1539H595.157V19.5709H602.46V27.0449H595.157V37.4571H603.316L606.054 28.1574H613.357Z" stroke="black" stroke-width="2" mask="url(#path-1-outside-1_1660_15645)"/>
<path d="M646.848 9.52948L644.451 31.6091L632.47 31.6662L630.074 9.52948V1H646.848V9.52948ZM638.432 48.4399C636.093 48.4399 634.182 47.8123 632.698 46.5571C631.215 45.2639 630.473 43.5523 630.473 41.4223C630.473 39.2353 631.215 37.5047 632.698 36.2305C634.22 34.9373 636.112 34.2907 638.375 34.2907H638.432C640.714 34.2907 642.664 34.9373 644.28 36.2305C645.84 37.5047 646.619 39.2353 646.619 41.4223C646.619 43.5523 645.859 45.2639 644.337 46.5571C642.778 47.8123 640.809 48.4399 638.432 48.4399Z" stroke="black" stroke-width="2" mask="url(#path-1-outside-1_1660_15645)"/>
</g>
<defs>
<filter id="filter0_d_1660_15645" x="0" y="0" width="647.848" height="51.4395" filterUnits="userSpaceOnUse" color-interpolation-filters="sRGB">
<feFlood flood-opacity="0" result="BackgroundImageFix"/>
<feColorMatrix in="SourceAlpha" type="matrix" values="0 0 0 0 0 0 0 0 0 0 0 0 0 0 0 0 0 0 127 0" result="hardAlpha"/>
<feOffset dx="-2" dy="2"/>
<feComposite in2="hardAlpha" operator="out"/>
<feColorMatrix type="matrix" values="0 0 0 0 0 0 0 0 0 0 0 0 0 0 0 0 0 0 1 0"/>
<feBlend mode="normal" in2="BackgroundImageFix" result="effect1_dropShadow_1660_15645"/>
<feBlend mode="normal" in="SourceGraphic" in2="effect1_dropShadow_1660_15645" result="shape"/>
</filter>
</defs>
</svg>
