<svg width="108" height="108" viewBox="0 0 108 108" fill="none" xmlns="http://www.w3.org/2000/svg">
<g filter="url(#filter0_d_1660_10583)">
<rect x="4" width="100" height="100" rx="20" fill="#FFF2E7"/>
<path d="M58.7812 68.1133H48.9844V72.2227H58.7812V68.1133ZM47.4688 67.2852H60.3438V65.9102H54.7656V65.0898C57.2344 64.9727 58.5859 64.3008 58.5938 63.0977C58.5859 61.7695 56.9141 61.0977 53.8906 61.0977C50.8984 61.0977 49.2031 61.7695 49.2031 63.0977C49.2031 64.3008 50.5781 64.9727 53.0312 65.0898V65.9102H47.4688V67.2852ZM48.1094 60.6602H59.6406V59.3477H54.7656V58.1133H53.0312V59.3477H48.1094V60.6602ZM50.7031 70.9102V69.4258H57.0938V70.9102H50.7031ZM51.0625 63.0977C51.0625 62.5273 52.0234 62.2773 53.8906 62.2695C55.7891 62.2773 56.7266 62.5273 56.7344 63.0977C56.7266 63.6523 55.7891 63.9258 53.8906 63.9258C52.0234 63.9258 51.0625 63.6523 51.0625 63.0977Z" fill="#FF4800"/>
<mask id="path-3-inside-1_1660_10583" fill="white">
<path fill-rule="evenodd" clip-rule="evenodd" d="M56.882 25.2262C55.3085 23.5913 52.6915 23.5913 51.118 25.2262L44.0649 32.5545C43.9569 32.6668 43.8571 32.7823 43.7654 32.9007C42.6749 33.9871 42 35.4904 42 37.1514V42.0002C42 45.3139 44.6863 48.0002 48 48.0002H60C63.3137 48.0002 66 45.3139 66 42.0002V37.1514C66 35.4904 65.3251 33.9871 64.2346 32.9007C64.1429 32.7823 64.0431 32.6668 63.9351 32.5546L56.882 25.2262Z"/>
</mask>
<path fill-rule="evenodd" clip-rule="evenodd" d="M56.882 25.2262C55.3085 23.5913 52.6915 23.5913 51.118 25.2262L44.0649 32.5545C43.9569 32.6668 43.8571 32.7823 43.7654 32.9007C42.6749 33.9871 42 35.4904 42 37.1514V42.0002C42 45.3139 44.6863 48.0002 48 48.0002H60C63.3137 48.0002 66 45.3139 66 42.0002V37.1514C66 35.4904 65.3251 33.9871 64.2346 32.9007C64.1429 32.7823 64.0431 32.6668 63.9351 32.5546L56.882 25.2262Z" fill="#FF4800"/>
<path d="M51.118 25.2262L52.559 26.6131H52.559L51.118 25.2262ZM56.882 25.2262L58.323 23.8393V23.8393L56.882 25.2262ZM44.0649 32.5545L45.5059 33.9414L45.5059 33.9414L44.0649 32.5545ZM43.7654 32.9007L45.177 34.3175L45.2679 34.227L45.3465 34.1255L43.7654 32.9007ZM64.2346 32.9007L62.6535 34.1255L62.7321 34.227L62.823 34.3176L64.2346 32.9007ZM63.9351 32.5546L65.3761 31.1677L65.3761 31.1677L63.9351 32.5546ZM52.559 26.6131C53.3458 25.7956 54.6542 25.7956 55.441 26.6131L58.323 23.8393C55.9627 21.3869 52.0373 21.3869 49.677 23.8393L52.559 26.6131ZM45.5059 33.9414L52.559 26.6131L49.677 23.8393L42.6239 31.1677L45.5059 33.9414ZM45.3465 34.1255C45.394 34.0642 45.4469 34.0027 45.5059 33.9414L42.6239 31.1677C42.4668 31.3309 42.3202 31.5005 42.1844 31.6758L45.3465 34.1255ZM44 37.1514C44 36.0435 44.4477 35.044 45.177 34.3175L42.3539 31.4838C40.9021 32.9301 40 34.9373 40 37.1514H44ZM44 42.0002V37.1514H40V42.0002H44ZM48 46.0002C45.7909 46.0002 44 44.2094 44 42.0002H40C40 46.4185 43.5817 50.0002 48 50.0002V46.0002ZM60 46.0002H48V50.0002H60V46.0002ZM64 42.0002C64 44.2094 62.2091 46.0002 60 46.0002V50.0002C64.4183 50.0002 68 46.4185 68 42.0002H64ZM64 37.1514V42.0002H68V37.1514H64ZM62.823 34.3176C63.5523 35.0441 64 36.0435 64 37.1514H68C68 34.9373 67.0979 32.9301 65.6461 31.4838L62.823 34.3176ZM62.4941 33.9414C62.5531 34.0027 62.606 34.0642 62.6535 34.1255L65.8156 31.6758C65.6798 31.5005 65.5332 31.3309 65.3761 31.1677L62.4941 33.9414ZM55.441 26.6131L62.4941 33.9414L65.3761 31.1677L58.323 23.8393L55.441 26.6131Z" fill="#FF4800" mask="url(#path-3-inside-1_1660_10583)"/>
<rect x="53" y="39.8672" width="2" height="5.94665" rx="1" fill="white"/>
</g>
<defs>
<filter id="filter0_d_1660_10583" x="0" y="0" width="108" height="108" filterUnits="userSpaceOnUse" color-interpolation-filters="sRGB">
<feFlood flood-opacity="0" result="BackgroundImageFix"/>
<feColorMatrix in="SourceAlpha" type="matrix" values="0 0 0 0 0 0 0 0 0 0 0 0 0 0 0 0 0 0 127 0" result="hardAlpha"/>
<feOffset dy="4"/>
<feGaussianBlur stdDeviation="2"/>
<feComposite in2="hardAlpha" operator="out"/>
<feColorMatrix type="matrix" values="0 0 0 0 0 0 0 0 0 0 0 0 0 0 0 0 0 0 0.25 0"/>
<feBlend mode="normal" in2="BackgroundImageFix" result="effect1_dropShadow_1660_10583"/>
<feBlend mode="normal" in="SourceGraphic" in2="effect1_dropShadow_1660_10583" result="shape"/>
</filter>
</defs>
</svg>
