<svg width="108" height="108" viewBox="0 0 108 108" fill="none" xmlns="http://www.w3.org/2000/svg">
<g filter="url(#filter0_d_1660_10617)">
<rect x="4" width="100" height="100" rx="20" fill="#FFF2E7"/>
<path d="M26.3438 66.1406H13.4688V67.5469H19.0156V72.375H20.7344V67.5469H26.3438V66.1406ZM14.1406 63.8281L14.7969 65.1875C17.1797 64.8438 19.0391 63.7422 19.9062 62.2188C20.7656 63.7422 22.6406 64.8438 25.0469 65.1875L25.6719 63.8281C22.875 63.4766 21.0312 61.9844 20.9141 60.4375H25.1562V59.0625H14.6562V60.4375H18.8984C18.7734 61.9844 16.9141 63.4766 14.1406 63.8281ZM39.125 58.2812H37.3906V60.7188H34.5469V59.2031H32.8281V61.4844H29.6719V59.2031H27.9375V66.4062H34.5469V65.1562H37.3906V68.7031H39.125V58.2812ZM29.6719 65.0312V62.8281H32.8281V65.0312H29.6719ZM29.8125 72.1094H39.4375V70.7031H31.5781V67.6719H29.8125V72.1094ZM34.5469 63.75V62.125H37.3906V63.75H34.5469ZM54.0156 65.0312H48.4219V63.6875H52.5312V62.3125H44.4375V60.2656H52.4531V58.9062H42.7031V63.6875H46.7188V65.0312H41.125V66.4219H54.0156V65.0312ZM42.625 69.8125C42.625 71.4531 44.4766 72.3828 47.5469 72.3906C50.5938 72.3828 52.4297 71.4531 52.4375 69.8125C52.4297 68.1562 50.5938 67.2266 47.5469 67.2344C44.4766 67.2266 42.625 68.1562 42.625 69.8125ZM44.3906 69.8125C44.3828 69 45.4922 68.5625 47.5469 68.5625C49.5703 68.5625 50.6875 69 50.7031 69.8125C50.6875 70.6328 49.5703 71.0547 47.5469 71.0469C45.4922 71.0547 44.3828 70.6328 44.3906 69.8125ZM67.8594 69.3125H64.5938V66.9844H66.6562V65.5781H58.2188V63.7656H66.3281V59.2344H56.4531V60.6406H64.6094V62.375H56.4844V66.9844H58.375V69.3125H54.9531V70.75H67.8594V69.3125ZM60.0625 69.3125V66.9844H62.8906V69.3125H60.0625ZM81.6875 69.25H76.0625V66.1719H80.2031V59.3594H70.2031V66.1719H74.3438V69.25H68.7812V70.6719H81.6875V69.25ZM71.9062 64.8125V60.75H78.4844V64.8125H71.9062ZM90.9375 59.1094H83.1719V60.5H86.2188C86.1797 62.2578 84.9609 63.9453 82.7031 64.6094L83.5781 65.9688C85.2656 65.4375 86.4688 64.3281 87.1094 62.9219C87.75 64.2266 88.9297 65.25 90.5625 65.7344L91.4375 64.375C89.2109 63.75 87.9922 62.1562 87.9688 60.5H90.9375V59.1094ZM85.0312 72.2188H94.375V66.5469H92.6406V68H86.75V66.5469H85.0312V72.2188ZM86.75 70.8125V69.3438H92.6406V70.8125H86.75ZM92.625 65.9219H94.375V58.2656H92.625V65.9219Z" fill="#FF4800"/>
<ellipse cx="54" cy="43" rx="12" ry="5" stroke="#FF4800" stroke-width="2"/>
<circle cx="54" cy="28" r="4" fill="#FF4800" stroke="#FF4800"/>
<path d="M47 39C47 36.2386 49.2386 34 52 34H56C58.7614 34 61 36.2386 61 39V41C61 42.6569 59.6569 44 58 44H50C48.3431 44 47 42.6569 47 41V39Z" fill="#FF4800" stroke="#FF4800"/>
<path fill-rule="evenodd" clip-rule="evenodd" d="M64 27C63.4477 27 63 27.4477 63 28V29H62C61.4477 29 61 29.4477 61 30C61 30.5523 61.4477 31 62 31H63V32C63 32.5523 63.4477 33 64 33C64.5523 33 65 32.5523 65 32V31H66C66.5523 31 67 30.5523 67 30C67 29.4477 66.5523 29 66 29H65V28C65 27.4477 64.5523 27 64 27Z" fill="#FFFCF3"/>
</g>
<defs>
<filter id="filter0_d_1660_10617" x="0" y="0" width="108" height="108" filterUnits="userSpaceOnUse" color-interpolation-filters="sRGB">
<feFlood flood-opacity="0" result="BackgroundImageFix"/>
<feColorMatrix in="SourceAlpha" type="matrix" values="0 0 0 0 0 0 0 0 0 0 0 0 0 0 0 0 0 0 127 0" result="hardAlpha"/>
<feOffset dy="4"/>
<feGaussianBlur stdDeviation="2"/>
<feComposite in2="hardAlpha" operator="out"/>
<feColorMatrix type="matrix" values="0 0 0 0 0 0 0 0 0 0 0 0 0 0 0 0 0 0 0.25 0"/>
<feBlend mode="normal" in2="BackgroundImageFix" result="effect1_dropShadow_1660_10617"/>
<feBlend mode="normal" in="SourceGraphic" in2="effect1_dropShadow_1660_10617" result="shape"/>
</filter>
</defs>
</svg>
