<svg width="100" height="100" viewBox="0 0 100 100" fill="none" xmlns="http://www.w3.org/2000/svg">
<rect width="100" height="100" rx="20" fill="#FFF2E7"/>
<path d="M22.3438 66.1406H9.46875V67.5469H15.0156V72.375H16.7344V67.5469H22.3438V66.1406ZM10.1406 63.8281L10.7969 65.1875C13.1797 64.8438 15.0391 63.7422 15.9062 62.2188C16.7656 63.7422 18.6406 64.8438 21.0469 65.1875L21.6719 63.8281C18.875 63.4766 17.0312 61.9844 16.9141 60.4375H21.1562V59.0625H10.6562V60.4375H14.8984C14.7734 61.9844 12.9141 63.4766 10.1406 63.8281ZM35.125 58.2812H33.3906V60.7188H30.5469V59.2031H28.8281V61.4844H25.6719V59.2031H23.9375V66.4062H30.5469V65.1562H33.3906V68.7031H35.125V58.2812ZM25.6719 65.0312V62.8281H28.8281V65.0312H25.6719ZM25.8125 72.1094H35.4375V70.7031H27.5781V67.6719H25.8125V72.1094ZM30.5469 63.75V62.125H33.3906V63.75H30.5469ZM50.0156 65.0312H44.4219V63.6875H48.5312V62.3125H40.4375V60.2656H48.4531V58.9062H38.7031V63.6875H42.7188V65.0312H37.125V66.4219H50.0156V65.0312ZM38.625 69.8125C38.625 71.4531 40.4766 72.3828 43.5469 72.3906C46.5938 72.3828 48.4297 71.4531 48.4375 69.8125C48.4297 68.1562 46.5938 67.2266 43.5469 67.2344C40.4766 67.2266 38.625 68.1562 38.625 69.8125ZM40.3906 69.8125C40.3828 69 41.4922 68.5625 43.5469 68.5625C45.5703 68.5625 46.6875 69 46.7031 69.8125C46.6875 70.6328 45.5703 71.0547 43.5469 71.0469C41.4922 71.0547 40.3828 70.6328 40.3906 69.8125ZM63.8594 69.3125H60.5938V66.9844H62.6562V65.5781H54.2188V63.7656H62.3281V59.2344H52.4531V60.6406H60.6094V62.375H52.4844V66.9844H54.375V69.3125H50.9531V70.75H63.8594V69.3125ZM56.0625 69.3125V66.9844H58.8906V69.3125H56.0625ZM77.6875 69.25H72.0625V66.1719H76.2031V59.3594H66.2031V66.1719H70.3438V69.25H64.7812V70.6719H77.6875V69.25ZM67.9062 64.8125V60.75H74.4844V64.8125H67.9062ZM86.9375 59.1094H79.1719V60.5H82.2188C82.1797 62.2578 80.9609 63.9453 78.7031 64.6094L79.5781 65.9688C81.2656 65.4375 82.4688 64.3281 83.1094 62.9219C83.75 64.2266 84.9297 65.25 86.5625 65.7344L87.4375 64.375C85.2109 63.75 83.9922 62.1562 83.9688 60.5H86.9375V59.1094ZM81.0312 72.2188H90.375V66.5469H88.6406V68H82.75V66.5469H81.0312V72.2188ZM82.75 70.8125V69.3438H88.6406V70.8125H82.75ZM88.625 65.9219H90.375V58.2656H88.625V65.9219Z" fill="#FF4800"/>
<ellipse cx="50" cy="43" rx="12" ry="5" stroke="#FF4800" stroke-width="2"/>
<circle cx="50" cy="28" r="4" fill="#FF4800" stroke="#FF4800"/>
<path d="M43 39C43 36.2386 45.2386 34 48 34H52C54.7614 34 57 36.2386 57 39V41C57 42.6569 55.6569 44 54 44H46C44.3431 44 43 42.6569 43 41V39Z" fill="#FF4800" stroke="#FF4800"/>
<path fill-rule="evenodd" clip-rule="evenodd" d="M60 27C59.4477 27 59 27.4477 59 28V29H58C57.4477 29 57 29.4477 57 30C57 30.5523 57.4477 31 58 31H59V32C59 32.5523 59.4477 33 60 33C60.5523 33 61 32.5523 61 32V31H62C62.5523 31 63 30.5523 63 30C63 29.4477 62.5523 29 62 29H61V28C61 27.4477 60.5523 27 60 27Z" fill="#FFFCF3"/>
</svg>
