<svg width="108" height="108" viewBox="0 0 108 108" fill="none" xmlns="http://www.w3.org/2000/svg">
<g filter="url(#filter0_d_1660_10688)">
<rect x="4" width="100" height="100" rx="20" fill="#FFF2E7"/>
<path d="M43.0469 59.6875V71H45.0156V63.1875H45.1094L48.25 70.9688H49.7031L52.8438 63.2188H52.9531V71H54.9062V59.6875H52.4062L49.0469 67.9062H48.9062L45.5469 59.6875H43.0469ZM56.2188 59.6875L60.3438 66.7656V71H62.375V66.7656L66.4844 59.6875H64.1875L61.4062 64.6875H61.2969L58.5156 59.6875H56.2188Z" fill="#FF4800"/>
<circle cx="54" cy="36" r="13" fill="#FF4800" stroke="#FF4800" stroke-width="2"/>
<mask id="mask0_1660_10688" style="mask-type:alpha" maskUnits="userSpaceOnUse" x="41" y="23" width="26" height="26">
<circle cx="54" cy="36" r="12" fill="#D9D9D9" stroke="black" stroke-width="2"/>
</mask>
<g mask="url(#mask0_1660_10688)">
<circle cx="54" cy="33" r="3" fill="#FFFCF3" stroke="#FFFCF3" stroke-width="2"/>
<path d="M47 44C47 41.2386 49.2386 39 52 39H56C58.7614 39 61 41.2386 61 44C61 46.7614 58.7614 49 56 49H52C49.2386 49 47 46.7614 47 44Z" fill="#FFFCF3" stroke="#FFFCF3" stroke-width="2"/>
<circle cx="54" cy="36" r="13" stroke="#FF4800" stroke-width="2"/>
</g>
</g>
<defs>
<filter id="filter0_d_1660_10688" x="0" y="0" width="108" height="108" filterUnits="userSpaceOnUse" color-interpolation-filters="sRGB">
<feFlood flood-opacity="0" result="BackgroundImageFix"/>
<feColorMatrix in="SourceAlpha" type="matrix" values="0 0 0 0 0 0 0 0 0 0 0 0 0 0 0 0 0 0 127 0" result="hardAlpha"/>
<feOffset dy="4"/>
<feGaussianBlur stdDeviation="2"/>
<feComposite in2="hardAlpha" operator="out"/>
<feColorMatrix type="matrix" values="0 0 0 0 0 0 0 0 0 0 0 0 0 0 0 0 0 0 0.25 0"/>
<feBlend mode="normal" in2="BackgroundImageFix" result="effect1_dropShadow_1660_10688"/>
<feBlend mode="normal" in="SourceGraphic" in2="effect1_dropShadow_1660_10688" result="shape"/>
</filter>
</defs>
</svg>
