<svg width="100" height="100" viewBox="0 0 100 100" fill="none" xmlns="http://www.w3.org/2000/svg">
<rect width="100" height="100" rx="20" fill="#FFF2E7"/>
<path d="M19.0293 60.5547C16.3975 60.5615 14.4424 61.8809 14.4492 63.8906C14.4424 65.7432 16.0352 66.9805 18.2773 67.2061V69.4688H13.4102V70.7129H24.7031V69.4688H19.7812V67.2061C22.0508 66.9805 23.6436 65.7432 23.6367 63.8906C23.6436 61.8809 21.6816 60.5615 19.0293 60.5547ZM15.9395 63.8906C15.9326 62.5986 17.2246 61.7783 19.0293 61.7852C20.8613 61.7783 22.1465 62.5986 22.1465 63.8906C22.1465 65.2236 20.8613 66.0234 19.0293 66.0234C17.2246 66.0234 15.9326 65.2236 15.9395 63.8906ZM36.7891 65.9688H25.4961V67.1855H30.4727V69.4551H32.0176V67.1855H36.7891V65.9688ZM26.6992 62.6602C26.6924 64.2188 28.4697 65.1826 31.1289 65.1758C33.8018 65.1826 35.5586 64.2188 35.5586 62.6602C35.5586 61.1084 33.8018 60.1309 31.1289 60.1309C28.4697 60.1309 26.6924 61.1084 26.6992 62.6602ZM26.877 71.9707H35.5449V70.7266H28.4082V68.3066H26.877V71.9707ZM28.3398 62.6602C28.3262 61.8125 29.4336 61.334 31.1289 61.334C32.8379 61.334 33.9385 61.8125 33.9316 62.6602C33.9385 63.4805 32.8379 63.959 31.1289 63.959C29.4336 63.959 28.3262 63.4805 28.3398 62.6602ZM41.3418 60.3906C39.5303 60.3906 38.2451 61.3955 38.252 62.8789C38.2451 64.1299 39.1885 65.0527 40.6035 65.292V66.3516C39.5098 66.3857 38.4707 66.3926 37.582 66.3926L37.7461 67.6094C39.8379 67.6162 42.709 67.5615 45.2793 67.1035L45.1562 65.9961C44.1992 66.1328 43.167 66.2217 42.1348 66.2832V65.2852C43.5088 65.0322 44.4316 64.1094 44.4453 62.8789C44.4316 61.3955 43.1465 60.3906 41.3418 60.3906ZM39.2773 71.957H47.8359V70.7266H40.7949V68.4707H39.2773V71.957ZM39.6738 62.8789C39.6602 62.0449 40.3574 61.5527 41.3418 61.5527C42.333 61.5527 43.0029 62.0449 43.0098 62.8789C43.0029 63.6924 42.333 64.1982 41.3418 64.2051C40.3574 64.1982 39.6602 63.6924 39.6738 62.8789ZM45.8809 69.3047H47.3984V65.1211H49.0664V63.8633H47.3984V59.8711H45.8809V69.3047ZM60.2773 59.8711H58.8281V62.4824H57.5293V60.1035H56.0938V66.0234H57.5293V63.6855H58.8281V66.1191H60.2773V59.8711ZM49.7227 65.4219L50.4336 66.5293C53.5371 65.4424 55.0615 63.5352 55.0684 60.5957H50.2695V61.8125H53.4688C53.2432 63.4395 52.0605 64.6562 49.7227 65.4219ZM51.9102 67.8145H58.7734V68.7031H51.9238V72.0664H60.7148V70.8633H53.4414V69.8379H60.2773V66.5977H51.9102V67.8145ZM72.1582 59.8574H70.6406V64.4102H68.5215V65.6543H70.6406V72.2305H72.1582V59.8574ZM62.2188 62.168H66.3203V64.2324H62.2598V69.332H63.2441C65.3701 69.3252 67.0244 69.2568 68.8633 68.9355L68.7402 67.6914C67.0791 67.9922 65.6025 68.0537 63.7637 68.0605V65.4629H67.8105V60.9375H62.2188V62.168ZM84.2031 59.8574H82.6992V72.2305H84.2031V59.8574ZM74.5781 62.168H78.8574V64.3691H74.5918V69.3047H75.6719C77.8936 69.3115 79.7393 69.2295 81.8379 68.8672L81.7012 67.623C79.7734 67.9443 78.0986 68.0469 76.1504 68.0605V65.5723H80.4023V60.9375H74.5781V62.168Z" fill="#FF4800"/>
<path fill-rule="evenodd" clip-rule="evenodd" d="M46.3094 24C45.5141 24 44.7944 24.4712 44.4763 25.2001L43.6909 27H41C39.3431 27 38 28.3431 38 30V43C38 44.6569 39.3431 46 41 46H59C60.6569 46 62 44.6569 62 43V30C62 28.3431 60.6569 27 59 27H56.3091L55.5237 25.2001C55.2056 24.4712 54.4859 24 53.6906 24H46.3094Z" fill="#FF4800"/>
<path d="M44.4763 25.2001L45.1637 25.5001L45.1637 25.5001L44.4763 25.2001ZM43.6909 27V27.75C43.9891 27.75 44.259 27.5733 44.3783 27.3L43.6909 27ZM56.3091 27L55.6217 27.3C55.741 27.5733 56.0109 27.75 56.3091 27.75V27ZM55.5237 25.2001L54.8363 25.5001L54.8363 25.5001L55.5237 25.2001ZM45.1637 25.5001C45.3625 25.0445 45.8123 24.75 46.3094 24.75V23.25C45.2159 23.25 44.2263 23.8979 43.7889 24.9001L45.1637 25.5001ZM44.3783 27.3L45.1637 25.5001L43.7889 24.9001L43.0035 26.7L44.3783 27.3ZM41 27.75H43.6909V26.25H41V27.75ZM38.75 30C38.75 28.7574 39.7574 27.75 41 27.75V26.25C38.9289 26.25 37.25 27.9289 37.25 30H38.75ZM38.75 43V30H37.25V43H38.75ZM41 45.25C39.7574 45.25 38.75 44.2426 38.75 43H37.25C37.25 45.0711 38.9289 46.75 41 46.75V45.25ZM59 45.25H41V46.75H59V45.25ZM61.25 43C61.25 44.2426 60.2426 45.25 59 45.25V46.75C61.0711 46.75 62.75 45.0711 62.75 43H61.25ZM61.25 30V43H62.75V30H61.25ZM59 27.75C60.2426 27.75 61.25 28.7574 61.25 30H62.75C62.75 27.9289 61.0711 26.25 59 26.25V27.75ZM56.3091 27.75H59V26.25H56.3091V27.75ZM54.8363 25.5001L55.6217 27.3L56.9965 26.7L56.2111 24.9001L54.8363 25.5001ZM53.6906 24.75C54.1877 24.75 54.6375 25.0445 54.8363 25.5001L56.2111 24.9001C55.7737 23.8979 54.7841 23.25 53.6906 23.25V24.75ZM46.3094 24.75H53.6906V23.25H46.3094V24.75Z" fill="#FF4800"/>
<circle cx="50" cy="36" r="6" fill="#FFFCF3" stroke="#FFFCF3" stroke-width="1.5"/>
<path fill-rule="evenodd" clip-rule="evenodd" d="M50.4903 32.9019C50.4435 32.6682 50.2383 32.5 50 32.5C49.7617 32.5 49.5565 32.6682 49.5097 32.9019C49.3309 33.7959 49.0774 34.3405 48.7089 34.7089C48.3405 35.0774 47.7959 35.3309 46.9019 35.5097C46.6682 35.5565 46.5 35.7617 46.5 36C46.5 36.2383 46.6682 36.4435 46.9019 36.4903C47.7959 36.6691 48.3405 36.9226 48.7089 37.2911C49.0774 37.6595 49.3309 38.2041 49.5097 39.0981C49.5565 39.3318 49.7617 39.5 50 39.5C50.2383 39.5 50.4435 39.3318 50.4903 39.0981C50.6691 38.2041 50.9226 37.6595 51.2911 37.2911C51.6595 36.9226 52.2041 36.6691 53.0981 36.4903C53.3318 36.4435 53.5 36.2383 53.5 36C53.5 35.7617 53.3318 35.5565 53.0981 35.5097C52.2041 35.3309 51.6595 35.0774 51.2911 34.7089C50.9226 34.3405 50.6691 33.7959 50.4903 32.9019Z" fill="#FF4800"/>
</svg>
