<svg width="100" height="100" viewBox="0 0 100 100" fill="none" xmlns="http://www.w3.org/2000/svg">
<rect width="100" height="100" rx="20" fill="#FFF2E7"/>
<path d="M42.1836 63.6172V63.2754H44.3164V62.0312H42.1836V60.2949H40.748V62.0312H38.5879V63.2754H40.748V63.6172C40.7412 65.5723 39.9619 67.6299 38.2324 68.6348L39.1074 69.7559C40.2627 69.0996 41.042 67.9033 41.4795 66.5088C41.9238 67.8008 42.7031 68.8809 43.8516 69.4824L44.7129 68.3613C42.9561 67.4453 42.1836 65.5039 42.1836 63.6172ZM44.9727 71.6152H46.4082V65.9551H47.6797V72.2168H49.1289V59.8574H47.6797V64.6973H46.4082V60.0762H44.9727V71.6152ZM57.168 60.7461H51.1934V66.7344H52.2461C54.9121 66.7412 56.4639 66.7002 58.2344 66.4062L58.084 65.2031C56.457 65.4766 55.0488 65.5107 52.7383 65.5039V64.3145H56.8125V63.125H52.7383V61.9492H57.168V60.7461ZM52.4102 69.8926C52.4033 71.3555 53.9961 72.2031 56.6348 72.2031C59.2256 72.2031 60.8594 71.3555 60.8594 69.8926C60.8594 68.4297 59.2256 67.5752 56.6348 67.582C53.9961 67.5752 52.4033 68.4297 52.4102 69.8926ZM53.9277 69.8926C53.9141 69.1611 54.8779 68.7578 56.6348 68.7578C58.3506 68.7578 59.3418 69.1611 59.3418 69.8926C59.3418 70.6309 58.3506 71.0273 56.6348 71.0273C54.8779 71.0273 53.9141 70.6309 53.9277 69.8926ZM59.2734 67.4043H60.8047V59.8711H59.2734V67.4043Z" fill="#FF4800"/>
<path fill-rule="evenodd" clip-rule="evenodd" d="M43.3684 34C40.4035 34 38 36.3689 38 39.2911V41.2462C38 43.8526 39.912 46.0188 42.429 46.4566C43.2669 47.3671 44.4775 48.3377 45.3087 47.8853C45.7461 47.6472 45.8607 47.1335 45.8042 46.5374H49.6316C52.5965 46.5374 55 44.1684 55 41.2462V39.2911C55 36.3689 52.5965 34 49.6316 34H43.3684Z" fill="#FF4800"/>
<path fill-rule="evenodd" clip-rule="evenodd" d="M62 32.058C62 27.6077 58.4183 24 54 24H46C41.5817 24 38 27.6077 38 32.058V34.3002C39.2705 32.9942 41.0413 32.1839 43 32.1839H50C53.866 32.1839 57 35.3406 57 39.2347V41.4678C57 41.6784 56.9908 41.8869 56.9729 42.0929C56.9959 42.0596 57.0186 42.0262 57.041 41.9928C59.9498 40.7877 62 37.905 62 34.5377V32.058ZM54.3255 43.9955C54.7544 43.2526 55 42.3891 55 41.4678V39.2347C55 36.4532 52.7614 34.1984 50 34.1984H43C40.9683 34.1984 39.2196 35.419 38.4373 37.1719C39.5209 40.3286 42.4976 42.5957 46 42.5957H52.141C52.4208 43.2018 52.9024 43.7723 53.7256 43.9504C53.9328 43.9952 54.1332 44.008 54.3255 43.9955Z" fill="#FF4800"/>
</svg>
