<svg width="100" height="100" viewBox="0 0 100 100" fill="none" xmlns="http://www.w3.org/2000/svg">
<rect width="100" height="100" rx="20" fill="#FFF2E7"/>
<path d="M41.6562 58.2656H40V72.3906H41.6562V58.2656ZM29.3594 68.1719L30.3438 69.4062C32.3359 68.25 33.6641 66.8359 34.4844 65.2188H37.0156V71.7188H38.6562V58.6094H37.0156V63.8281H35.0547C35.4375 62.6328 35.6094 61.3516 35.6094 59.9844H30.0781V61.3906H33.8906C33.625 64.2344 32.2812 66.4453 29.3594 68.1719ZM48.6406 61.6562V59.4062H46.875V61.6562C46.8672 64.3828 45.4922 67.0781 43.1406 68.0938L44.2031 69.5469C45.9141 68.7422 47.1328 67.1172 47.7812 65.1328C48.4375 66.9766 49.625 68.4688 51.25 69.2188L52.2812 67.8281C49.9922 66.8438 48.625 64.25 48.6406 61.6562ZM53.2969 72.4062H55.0469V58.2656H53.2969V72.4062ZM65.0781 59.5H57.4688V60.8906H58.7188V65.2812C58.1484 65.2891 57.6016 65.2969 57.0938 65.2969L57.2812 66.7031C59.6719 66.7031 62.9219 66.6484 65.7656 66.1719L65.6406 64.8906C65.0625 64.9609 64.4609 65.0156 63.8438 65.0703V60.8906H65.0781V59.5ZM59.2188 72.1094H68.8281V70.7031H60.9531V67.6875H59.2188V72.1094ZM60.3906 65.2422V60.8906H62.1562V65.1719C61.5625 65.2031 60.9688 65.2266 60.3906 65.2422ZM66.5312 68.6719H68.2656V63.8125H70.2344V62.3594H68.2656V58.2812H66.5312V68.6719Z" fill="#FF4800"/>
<rect x="41" y="27" width="18" height="20" rx="3" fill="#FF4800" stroke="#FF4800" stroke-width="2"/>
<circle cx="50" cy="25" r="2" stroke="#FF4800" stroke-width="2"/>
<mask id="path-5-inside-1_1660_10669" fill="white">
<rect x="44" y="31" width="12" height="4" rx="1"/>
</mask>
<rect x="44" y="31" width="12" height="4" rx="1" fill="#FFFCF3" stroke="#FFFCF3" stroke-width="4" stroke-linejoin="round" mask="url(#path-5-inside-1_1660_10669)"/>
<mask id="path-6-inside-2_1660_10669" fill="white">
<rect x="44" y="38" width="12" height="5" rx="1"/>
</mask>
<rect x="44" y="38" width="12" height="5" rx="1" fill="#FFFCF3" stroke="#FFFCF3" stroke-width="4" stroke-linejoin="round" mask="url(#path-6-inside-2_1660_10669)"/>
</svg>
