<svg width="100" height="100" viewBox="0 0 100 100" fill="none" xmlns="http://www.w3.org/2000/svg">
<rect width="100" height="100" rx="20" fill="#FFF2E7"/>
<path d="M39.916 61.1016V71H41.6387V64.1641H41.7207L44.4688 70.9727H45.7402L48.4883 64.1914H48.584V71H50.293V61.1016H48.1055L45.166 68.293H45.043L42.1035 61.1016H39.916ZM51.4414 61.1016L55.0508 67.2949V71H56.8281V67.2949L60.4238 61.1016H58.4141L55.9805 65.4766H55.8848L53.4512 61.1016H51.4414Z" fill="#FF4800"/>
<circle cx="50" cy="36" r="12" fill="#FFFCF3" stroke="#FF4800" stroke-width="1.5"/>
<mask id="mask0_1_82" style="mask-type:alpha" maskUnits="userSpaceOnUse" x="37" y="23" width="26" height="26">
<circle cx="50" cy="36" r="12" fill="#D9D9D9" stroke="#FF4800" stroke-width="1.5"/>
</mask>
<g mask="url(#mask0_1_82)">
<circle cx="50" cy="36" r="12" fill="#FF4800" stroke="#FF4800" stroke-width="1.5"/>
<circle cx="50" cy="33" r="4" fill="white"/>
<path d="M52 38.25H48C44.8244 38.25 42.25 40.8244 42.25 44C42.25 47.1756 44.8244 49.75 48 49.75H52C55.1756 49.75 57.75 47.1756 57.75 44C57.75 40.8244 55.1756 38.25 52 38.25Z" fill="white" stroke="white" stroke-width="1.5"/>
</g>
</svg>
