<svg width="100" height="100" viewBox="0 0 100 100" fill="none" xmlns="http://www.w3.org/2000/svg">
<rect width="100" height="100" rx="20" fill="#FFF2E7"/>
<path d="M24.6758 66.748H13.4102V67.9785H18.2637V72.2031H19.7676V67.9785H24.6758V66.748ZM13.998 64.7246L14.5723 65.9141C16.6572 65.6133 18.2842 64.6494 19.043 63.3164C19.7949 64.6494 21.4355 65.6133 23.541 65.9141L24.0879 64.7246C21.6406 64.417 20.0273 63.1113 19.9248 61.7578H23.6367V60.5547H14.4492V61.7578H18.1611C18.0518 63.1113 16.4248 64.417 13.998 64.7246ZM35.8594 59.8711H34.3418V62.0039H31.8535V60.6777H30.3496V62.6738H27.5879V60.6777H26.0703V66.9805H31.8535V65.8867H34.3418V68.9902H35.8594V59.8711ZM27.5879 65.7773V63.8496H30.3496V65.7773H27.5879ZM27.7109 71.9707H36.1328V70.7402H29.2559V68.0879H27.7109V71.9707ZM31.8535 64.6562V63.2344H34.3418V64.6562H31.8535ZM48.8887 65.7773H43.9941V64.6016H47.5898V63.3984H40.5078V61.6074H47.5215V60.418H38.9902V64.6016H42.5039V65.7773H37.6094V66.9941H48.8887V65.7773ZM38.9219 69.9609C38.9219 71.3965 40.542 72.21 43.2285 72.2168C45.8945 72.21 47.501 71.3965 47.5078 69.9609C47.501 68.5117 45.8945 67.6982 43.2285 67.7051C40.542 67.6982 38.9219 68.5117 38.9219 69.9609ZM40.4668 69.9609C40.46 69.25 41.4307 68.8672 43.2285 68.8672C44.999 68.8672 45.9766 69.25 45.9902 69.9609C45.9766 70.6787 44.999 71.0479 43.2285 71.041C41.4307 71.0479 40.46 70.6787 40.4668 69.9609ZM61.002 69.5234H58.1445V67.4863H59.9492V66.2559H52.5664V64.6699H59.6621V60.7051H51.0215V61.9355H58.1582V63.4531H51.0488V67.4863H52.7031V69.5234H49.709V70.7812H61.002V69.5234ZM54.1797 69.5234V67.4863H56.6543V69.5234H54.1797ZM73.1016 69.4688H68.1797V66.7754H71.8027V60.8145H63.0527V66.7754H66.6758V69.4688H61.8086V70.7129H73.1016V69.4688ZM64.543 65.5859V62.0312H70.2988V65.5859H64.543ZM81.1953 60.5957H74.4004V61.8125H77.0664C77.0322 63.3506 75.9658 64.8271 73.9902 65.4082L74.7559 66.5977C76.2324 66.1328 77.2852 65.1621 77.8457 63.9316C78.4062 65.0732 79.4385 65.9688 80.8672 66.3926L81.6328 65.2031C79.6846 64.6562 78.6182 63.2617 78.5977 61.8125H81.1953V60.5957ZM76.0273 72.0664H84.2031V67.1035H82.6855V68.375H77.5312V67.1035H76.0273V72.0664ZM77.5312 70.8359V69.5508H82.6855V70.8359H77.5312ZM82.6719 66.5566H84.2031V59.8574H82.6719V66.5566Z" fill="#FF4800"/>
<ellipse cx="50" cy="43" rx="12" ry="5" fill="white" stroke="#FF4800" stroke-width="1.5"/>
<circle cx="50" cy="28" r="4" fill="#FF4800" stroke="#FF4800" stroke-width="1.5"/>
<path d="M43 39C43 36.2386 45.2386 34 48 34H52C54.7614 34 57 36.2386 57 39V41C57 42.6569 55.6569 44 54 44H46C44.3431 44 43 42.6569 43 41V39Z" fill="#FF4800" stroke="#FF4800" stroke-width="1.5"/>
<path fill-rule="evenodd" clip-rule="evenodd" d="M60.7505 27.7511C60.7505 27.3369 60.4147 27.0011 60.0005 27.0011C59.5863 27.0011 59.2505 27.3369 59.2505 27.7511V29.2505H57.7521C57.3379 29.2505 57.0021 29.5863 57.0021 30.0005C57.0021 30.4147 57.3379 30.7505 57.7521 30.7505H59.2505V32.2489C59.2505 32.6631 59.5863 32.9989 60.0005 32.9989C60.4147 32.9989 60.7505 32.6631 60.7505 32.2489V30.7505H62.2499C62.6641 30.7505 62.9999 30.4147 62.9999 30.0005C62.9999 29.5863 62.6641 29.2505 62.2499 29.2505H60.7505V27.7511Z" fill="#FF4800"/>
</svg>
