<svg width="100" height="100" viewBox="0 0 100 100" fill="none" xmlns="http://www.w3.org/2000/svg">
<rect width="100" height="100" rx="20" fill="#FFFCF3"/>
<path d="M15.8906 59.0625C12.8828 59.0703 10.6484 60.5781 10.6562 62.875C10.6484 64.9922 12.4688 66.4062 15.0312 66.6641V69.25H9.46875V70.6719H22.375V69.25H16.75V66.6641C19.3438 66.4062 21.1641 64.9922 21.1562 62.875C21.1641 60.5781 18.9219 59.0703 15.8906 59.0625ZM12.3594 62.875C12.3516 61.3984 13.8281 60.4609 15.8906 60.4688C17.9844 60.4609 19.4531 61.3984 19.4531 62.875C19.4531 64.3984 17.9844 65.3125 15.8906 65.3125C13.8281 65.3125 12.3516 64.3984 12.3594 62.875ZM36.1875 65.25H23.2812V66.6406H28.9688V69.2344H30.7344V66.6406H36.1875V65.25ZM24.6562 61.4688C24.6484 63.25 26.6797 64.3516 29.7188 64.3438C32.7734 64.3516 34.7812 63.25 34.7812 61.4688C34.7812 59.6953 32.7734 58.5781 29.7188 58.5781C26.6797 58.5781 24.6484 59.6953 24.6562 61.4688ZM24.8594 72.1094H34.7656V70.6875H26.6094V67.9219H24.8594V72.1094ZM26.5312 61.4688C26.5156 60.5 27.7812 59.9531 29.7188 59.9531C31.6719 59.9531 32.9297 60.5 32.9219 61.4688C32.9297 62.4062 31.6719 62.9531 29.7188 62.9531C27.7812 62.9531 26.5156 62.4062 26.5312 61.4688ZM41.3906 58.875C39.3203 58.875 37.8516 60.0234 37.8594 61.7188C37.8516 63.1484 38.9297 64.2031 40.5469 64.4766V65.6875C39.2969 65.7266 38.1094 65.7344 37.0938 65.7344L37.2812 67.125C39.6719 67.1328 42.9531 67.0703 45.8906 66.5469L45.75 65.2812C44.6562 65.4375 43.4766 65.5391 42.2969 65.6094V64.4688C43.8672 64.1797 44.9219 63.125 44.9375 61.7188C44.9219 60.0234 43.4531 58.875 41.3906 58.875ZM39.0312 72.0938H48.8125V70.6875H40.7656V68.1094H39.0312V72.0938ZM39.4844 61.7188C39.4688 60.7656 40.2656 60.2031 41.3906 60.2031C42.5234 60.2031 43.2891 60.7656 43.2969 61.7188C43.2891 62.6484 42.5234 63.2266 41.3906 63.2344C40.2656 63.2266 39.4688 62.6484 39.4844 61.7188ZM46.5781 69.0625H48.3125V64.2812H50.2188V62.8438H48.3125V58.2812H46.5781V69.0625ZM63.0312 58.2812H61.375V61.2656H59.8906V58.5469H58.25V65.3125H59.8906V62.6406H61.375V65.4219H63.0312V58.2812ZM50.9688 64.625L51.7812 65.8906C55.3281 64.6484 57.0703 62.4688 57.0781 59.1094H51.5938V60.5H55.25C54.9922 62.3594 53.6406 63.75 50.9688 64.625ZM53.4688 67.3594H61.3125V68.375H53.4844V72.2188H63.5312V70.8438H55.2188V69.6719H63.0312V65.9688H53.4688V67.3594ZM76.6094 58.2656H74.875V63.4688H72.4531V64.8906H74.875V72.4062H76.6094V58.2656ZM65.25 60.9062H69.9375V63.2656H65.2969V69.0938H66.4219C68.8516 69.0859 70.7422 69.0078 72.8438 68.6406L72.7031 67.2188C70.8047 67.5625 69.1172 67.6328 67.0156 67.6406V64.6719H71.6406V59.5H65.25V60.9062ZM90.375 58.2656H88.6562V72.4062H90.375V58.2656ZM79.375 60.9062H84.2656V63.4219H79.3906V69.0625H80.625C83.1641 69.0703 85.2734 68.9766 87.6719 68.5625L87.5156 67.1406C85.3125 67.5078 83.3984 67.625 81.1719 67.6406V64.7969H86.0312V59.5H79.375V60.9062Z" fill="black"/>
<path fill-rule="evenodd" clip-rule="evenodd" d="M47.2361 25C46.4785 25 45.786 25.428 45.4472 26.1056L44.5 28H40C38.8954 28 38 28.8954 38 30V46C38 47.1046 38.8954 48 40 48H60C61.1046 48 62 47.1046 62 46V30C62 28.8954 61.1046 28 60 28H55.5L54.5528 26.1056C54.214 25.428 53.5215 25 52.7639 25H47.2361Z" fill="#FFFCF3"/>
<path d="M45.4472 26.1056L46.3416 26.5528V26.5528L45.4472 26.1056ZM44.5 28V29C44.8788 29 45.225 28.786 45.3944 28.4472L44.5 28ZM55.5 28L54.6056 28.4472C54.775 28.786 55.1212 29 55.5 29V28ZM54.5528 26.1056L53.6584 26.5528V26.5528L54.5528 26.1056ZM46.3416 26.5528C46.511 26.214 46.8573 26 47.2361 26V24C46.0998 24 45.061 24.642 44.5528 25.6584L46.3416 26.5528ZM45.3944 28.4472L46.3416 26.5528L44.5528 25.6584L43.6056 27.5528L45.3944 28.4472ZM40 29H44.5V27H40V29ZM39 30C39 29.4477 39.4477 29 40 29V27C38.3431 27 37 28.3431 37 30H39ZM39 46V30H37V46H39ZM40 47C39.4477 47 39 46.5523 39 46H37C37 47.6569 38.3431 49 40 49V47ZM60 47H40V49H60V47ZM61 46C61 46.5523 60.5523 47 60 47V49C61.6569 49 63 47.6569 63 46H61ZM61 30V46H63V30H61ZM60 29C60.5523 29 61 29.4477 61 30H63C63 28.3431 61.6569 27 60 27V29ZM55.5 29H60V27H55.5V29ZM53.6584 26.5528L54.6056 28.4472L56.3944 27.5528L55.4472 25.6584L53.6584 26.5528ZM52.7639 26C53.1427 26 53.489 26.214 53.6584 26.5528L55.4472 25.6584C54.939 24.642 53.9002 24 52.7639 24V26ZM47.2361 26H52.7639V24H47.2361V26Z" fill="black"/>
<circle cx="50" cy="38" r="7" fill="#FFFCF3" stroke="black" stroke-width="2"/>
<path fill-rule="evenodd" clip-rule="evenodd" d="M47.3992 39.0935L47.4186 39.1025L48.4286 39.5714L48.8975 40.5814L48.9065 40.6008L49.0038 40.8105L49.0488 40.9072L49.3571 41.5714C49.4762 41.8571 49.6905 42 50 42C50.3095 42 50.5238 41.8571 50.6429 41.5714L50.9512 40.9072L50.9962 40.8105L51.0935 40.6008L51.1025 40.5814L51.5714 39.5714L52.5814 39.1025L52.6008 39.0935L52.8105 38.9962L52.9072 38.9512L53.5714 38.6429C53.8571 38.5238 54 38.3095 54 38C54 37.6905 53.8571 37.4762 53.5714 37.3571L52.9072 37.0488L52.8105 37.0038L52.6008 36.9065L52.5814 36.8975L51.5714 36.4286L51.1025 35.4186L51.0935 35.3992L50.9962 35.1895L50.9512 35.0928L50.6429 34.4286C50.5238 34.1429 50.3095 34 50 34C49.6905 34 49.4762 34.1429 49.3571 34.4286L49.0488 35.0928L49.0038 35.1895L48.9065 35.3992L48.8975 35.4186L48.4286 36.4286L47.4186 36.8975L47.3992 36.9065L47.1895 37.0038L47.0928 37.0488L46.4286 37.3571C46.1429 37.4762 46 37.6905 46 38C46 38.3095 46.1429 38.5238 46.4286 38.6429L47.0928 38.9512L47.1895 38.9962L47.3992 39.0935Z" fill="black"/>
</svg>
