<svg width="100" height="100" viewBox="0 0 100 100" fill="none" xmlns="http://www.w3.org/2000/svg">
<rect width="100" height="100" rx="20" fill="#FFFCF3"/>
<path d="M54.7812 68.1133H44.9844V72.2227H54.7812V68.1133ZM43.4688 67.2852H56.3438V65.9102H50.7656V65.0898C53.2344 64.9727 54.5859 64.3008 54.5938 63.0977C54.5859 61.7695 52.9141 61.0977 49.8906 61.0977C46.8984 61.0977 45.2031 61.7695 45.2031 63.0977C45.2031 64.3008 46.5781 64.9727 49.0312 65.0898V65.9102H43.4688V67.2852ZM44.1094 60.6602H55.6406V59.3477H50.7656V58.1133H49.0312V59.3477H44.1094V60.6602ZM46.7031 70.9102V69.4258H53.0938V70.9102H46.7031ZM47.0625 63.0977C47.0625 62.5273 48.0234 62.2773 49.8906 62.2695C51.7891 62.2773 52.7266 62.5273 52.7344 63.0977C52.7266 63.6523 51.7891 63.9258 49.8906 63.9258C48.0234 63.9258 47.0625 63.6523 47.0625 63.0977Z" fill="black"/>
<mask id="path-3-inside-1_1660_10573" fill="white">
<path fill-rule="evenodd" clip-rule="evenodd" d="M52.882 25.2262C51.3085 23.5913 48.6915 23.5913 47.118 25.2262L40.0649 32.5545C39.9569 32.6668 39.8571 32.7823 39.7654 32.9007C38.6749 33.9871 38 35.4904 38 37.1514V42.0002C38 45.3139 40.6863 48.0002 44 48.0002H56C59.3137 48.0002 62 45.3139 62 42.0002V37.1514C62 35.4904 61.3251 33.9871 60.2346 32.9007C60.1429 32.7823 60.0431 32.6668 59.9351 32.5546L52.882 25.2262Z"/>
</mask>
<path fill-rule="evenodd" clip-rule="evenodd" d="M52.882 25.2262C51.3085 23.5913 48.6915 23.5913 47.118 25.2262L40.0649 32.5545C39.9569 32.6668 39.8571 32.7823 39.7654 32.9007C38.6749 33.9871 38 35.4904 38 37.1514V42.0002C38 45.3139 40.6863 48.0002 44 48.0002H56C59.3137 48.0002 62 45.3139 62 42.0002V37.1514C62 35.4904 61.3251 33.9871 60.2346 32.9007C60.1429 32.7823 60.0431 32.6668 59.9351 32.5546L52.882 25.2262Z" fill="#FFFCF3"/>
<path d="M47.118 25.2262L48.559 26.6131H48.559L47.118 25.2262ZM52.882 25.2262L54.323 23.8393V23.8393L52.882 25.2262ZM40.0649 32.5545L41.5059 33.9414L41.5059 33.9414L40.0649 32.5545ZM39.7654 32.9007L41.177 34.3175L41.2679 34.227L41.3465 34.1255L39.7654 32.9007ZM60.2346 32.9007L58.6535 34.1255L58.7321 34.227L58.823 34.3176L60.2346 32.9007ZM59.9351 32.5546L61.3761 31.1677L61.3761 31.1677L59.9351 32.5546ZM48.559 26.6131C49.3458 25.7956 50.6542 25.7956 51.441 26.6131L54.323 23.8393C51.9627 21.3869 48.0373 21.3869 45.677 23.8393L48.559 26.6131ZM41.5059 33.9414L48.559 26.6131L45.677 23.8393L38.6239 31.1677L41.5059 33.9414ZM41.3465 34.1255C41.394 34.0642 41.4469 34.0027 41.5059 33.9414L38.6239 31.1677C38.4668 31.3309 38.3202 31.5005 38.1844 31.6758L41.3465 34.1255ZM40 37.1514C40 36.0435 40.4477 35.044 41.177 34.3175L38.3539 31.4838C36.9021 32.9301 36 34.9373 36 37.1514H40ZM40 42.0002V37.1514H36V42.0002H40ZM44 46.0002C41.7909 46.0002 40 44.2094 40 42.0002H36C36 46.4185 39.5817 50.0002 44 50.0002V46.0002ZM56 46.0002H44V50.0002H56V46.0002ZM60 42.0002C60 44.2094 58.2091 46.0002 56 46.0002V50.0002C60.4183 50.0002 64 46.4185 64 42.0002H60ZM60 37.1514V42.0002H64V37.1514H60ZM58.823 34.3176C59.5523 35.0441 60 36.0435 60 37.1514H64C64 34.9373 63.0979 32.9301 61.6461 31.4838L58.823 34.3176ZM58.4941 33.9414C58.5531 34.0027 58.606 34.0642 58.6535 34.1255L61.8156 31.6758C61.6798 31.5005 61.5332 31.3309 61.3761 31.1677L58.4941 33.9414ZM51.441 26.6131L58.4941 33.9414L61.3761 31.1677L54.323 23.8393L51.441 26.6131Z" fill="black" mask="url(#path-3-inside-1_1660_10573)"/>
<rect x="49" y="40" width="2" height="6" rx="1" fill="black"/>
</svg>
