<svg width="100" height="100" viewBox="0 0 100 100" fill="none" xmlns="http://www.w3.org/2000/svg">
<rect width="100" height="100" rx="20" fill="#FFF2E7"/>
<rect width="100" height="100" rx="20" fill="#FFF2E7"/>
<path d="M42.0742 59.8574H40.625V72.2168H42.0742V59.8574ZM31.3145 68.5254L32.1758 69.6055C33.9189 68.5938 35.0811 67.3564 35.7988 65.9414H38.0137V71.6289H39.4492V60.1582H38.0137V64.7246H36.2979C36.6328 63.6787 36.7832 62.5576 36.7832 61.3613H31.9434V62.5918H35.2793C35.0469 65.0801 33.8711 67.0146 31.3145 68.5254ZM48.1855 62.8242V60.8555H46.6406V62.8242C46.6338 65.21 45.4307 67.5684 43.373 68.457L44.3027 69.7285C45.7998 69.0244 46.8662 67.6025 47.4336 65.8662C48.0078 67.4795 49.0469 68.7852 50.4688 69.4414L51.3711 68.2246C49.3682 67.3633 48.1719 65.0938 48.1855 62.8242ZM52.2598 72.2305H53.791V59.8574H52.2598V72.2305ZM62.5684 60.9375H55.9102V62.1543H57.0039V65.9961C56.5049 66.0029 56.0264 66.0098 55.582 66.0098L55.7461 67.2402C57.8379 67.2402 60.6816 67.1924 63.1699 66.7754L63.0605 65.6543C62.5547 65.7158 62.0283 65.7637 61.4883 65.8115V62.1543H62.5684V60.9375ZM57.4414 71.9707H65.8496V70.7402H58.959V68.1016H57.4414V71.9707ZM58.4668 65.9619V62.1543H60.0117V65.9004C59.4922 65.9277 58.9727 65.9482 58.4668 65.9619ZM63.8398 68.9629H65.3574V64.7109H67.0801V63.4395H65.3574V59.8711H63.8398V68.9629Z" fill="#FF4800"/>
<rect x="40.75" y="26.75" width="18.5" height="20.5" rx="3.25" fill="#FF4800" stroke="#FF4800" stroke-width="1.5"/>
<circle cx="50" cy="24" r="2.25" fill="white" stroke="#FF4800" stroke-width="1.5"/>
<rect x="44" y="31" width="12" height="4" rx="1" fill="white"/>
<rect x="44" y="38" width="12" height="5" rx="1" fill="white"/>
</svg>
