<svg width="100" height="100" viewBox="0 0 100 100" fill="none" xmlns="http://www.w3.org/2000/svg">
<rect width="100" height="100" rx="20" fill="#FFF2E7"/>
<path d="M54.3086 67.4707H45.7363V71.0664H54.3086V67.4707ZM44.4102 66.7461H55.6758V65.543H50.7949V64.8252C52.9551 64.7227 54.1377 64.1348 54.1445 63.082C54.1377 61.9199 52.6748 61.332 50.0293 61.332C47.4111 61.332 45.9277 61.9199 45.9277 63.082C45.9277 64.1348 47.1309 64.7227 49.2773 64.8252V65.543H44.4102V66.7461ZM44.9707 60.9492H55.0605V59.8008H50.7949V58.7207H49.2773V59.8008H44.9707V60.9492ZM47.2402 69.918V68.6191H52.832V69.918H47.2402ZM47.5547 63.082C47.5547 62.583 48.3955 62.3643 50.0293 62.3574C51.6904 62.3643 52.5107 62.583 52.5176 63.082C52.5107 63.5674 51.6904 63.8066 50.0293 63.8066C48.3955 63.8066 47.5547 63.5674 47.5547 63.082Z" fill="#FF4800"/>
<mask id="path-3-inside-1_1_72" fill="white">
<path fill-rule="evenodd" clip-rule="evenodd" d="M52.882 25.2262C51.3085 23.5913 48.6915 23.5913 47.118 25.2262L40.0649 32.5545C39.9569 32.6668 39.8571 32.7823 39.7654 32.9007C38.6749 33.9871 38 35.4904 38 37.1514V42.0002C38 45.3139 40.6863 48.0002 44 48.0002H56C59.3137 48.0002 62 45.3139 62 42.0002V37.1514C62 35.4904 61.3251 33.9871 60.2346 32.9007C60.1429 32.7823 60.0431 32.6668 59.9351 32.5546L52.882 25.2262Z"/>
</mask>
<path fill-rule="evenodd" clip-rule="evenodd" d="M52.882 25.2262C51.3085 23.5913 48.6915 23.5913 47.118 25.2262L40.0649 32.5545C39.9569 32.6668 39.8571 32.7823 39.7654 32.9007C38.6749 33.9871 38 35.4904 38 37.1514V42.0002C38 45.3139 40.6863 48.0002 44 48.0002H56C59.3137 48.0002 62 45.3139 62 42.0002V37.1514C62 35.4904 61.3251 33.9871 60.2346 32.9007C60.1429 32.7823 60.0431 32.6668 59.9351 32.5546L52.882 25.2262Z" fill="#FF4800"/>
<path d="M47.118 25.2262L48.1987 26.2664L48.1987 26.2664L47.118 25.2262ZM52.882 25.2262L53.9628 24.186L53.9628 24.186L52.882 25.2262ZM40.0649 32.5545L41.1456 33.5947L41.1456 33.5947L40.0649 32.5545ZM39.7654 32.9007L40.8241 33.9633L40.8923 33.8954L40.9512 33.8193L39.7654 32.9007ZM60.2346 32.9007L59.0488 33.8193L59.1077 33.8954L59.1759 33.9633L60.2346 32.9007ZM59.9351 32.5546L61.0159 31.5144L61.0159 31.5144L59.9351 32.5546ZM48.1987 26.2664C49.1822 25.2445 50.8178 25.2445 51.8013 26.2664L53.9628 24.186C51.7992 21.938 48.2008 21.938 46.0372 24.186L48.1987 26.2664ZM41.1456 33.5947L48.1987 26.2664L46.0372 24.186L38.9841 31.5144L41.1456 33.5947ZM40.9512 33.8193C41.0098 33.7437 41.0744 33.6687 41.1456 33.5947L38.9841 31.5144C38.8393 31.6649 38.7044 31.8209 38.5797 31.982L40.9512 33.8193ZM39.5 37.1514C39.5 35.9053 40.0045 34.7798 40.8241 33.9633L38.7068 31.838C37.3453 33.1944 36.5 35.0756 36.5 37.1514H39.5ZM39.5 42.0002V37.1514H36.5V42.0002H39.5ZM44 46.5002C41.5147 46.5002 39.5 44.4855 39.5 42.0002H36.5C36.5 46.1424 39.8579 49.5002 44 49.5002V46.5002ZM56 46.5002H44V49.5002H56V46.5002ZM60.5 42.0002C60.5 44.4855 58.4853 46.5002 56 46.5002V49.5002C60.1421 49.5002 63.5 46.1424 63.5 42.0002H60.5ZM60.5 37.1514V42.0002H63.5V37.1514H60.5ZM59.1759 33.9633C59.9955 34.7798 60.5 35.9053 60.5 37.1514H63.5C63.5 35.0756 62.6547 33.1944 61.2932 31.838L59.1759 33.9633ZM58.8544 33.5947C58.9256 33.6687 58.9902 33.7437 59.0488 33.8193L61.4204 31.982C61.2956 31.8209 61.1607 31.6649 61.0159 31.5144L58.8544 33.5947ZM51.8013 26.2664L58.8544 33.5947L61.0159 31.5144L53.9628 24.186L51.8013 26.2664Z" fill="#FF4800" mask="url(#path-3-inside-1_1_72)"/>
<rect x="49" y="40" width="2" height="6" rx="1" fill="#FFF2E7"/>
</svg>
