<svg width="108" height="108" viewBox="0 0 108 108" fill="none" xmlns="http://www.w3.org/2000/svg">
<g filter="url(#filter0_d_1660_10594)">
<rect x="4" width="100" height="100" rx="20" fill="#FFF2E7"/>
<path d="M44.7812 62.5625V62.1719H47.2188V60.75H44.7812V58.7656H43.1406V60.75H40.6719V62.1719H43.1406V62.5625C43.1328 64.7969 42.2422 67.1484 40.2656 68.2969L41.2656 69.5781C42.5859 68.8281 43.4766 67.4609 43.9766 65.8672C44.4844 67.3438 45.375 68.5781 46.6875 69.2656L47.6719 67.9844C45.6641 66.9375 44.7812 64.7188 44.7812 62.5625ZM47.9688 71.7031H49.6094V65.2344H51.0625V72.3906H52.7188V58.2656H51.0625V63.7969H49.6094V58.5156H47.9688V71.7031ZM61.9062 59.2812H55.0781V66.125H56.2812C59.3281 66.1328 61.1016 66.0859 63.125 65.75L62.9531 64.375C61.0938 64.6875 59.4844 64.7266 56.8438 64.7188V63.3594H61.5V62H56.8438V60.6562H61.9062V59.2812ZM56.4688 69.7344C56.4609 71.4062 58.2812 72.375 61.2969 72.375C64.2578 72.375 66.125 71.4062 66.125 69.7344C66.125 68.0625 64.2578 67.0859 61.2969 67.0938C58.2812 67.0859 56.4609 68.0625 56.4688 69.7344ZM58.2031 69.7344C58.1875 68.8984 59.2891 68.4375 61.2969 68.4375C63.2578 68.4375 64.3906 68.8984 64.3906 69.7344C64.3906 70.5781 63.2578 71.0312 61.2969 71.0312C59.2891 71.0312 58.1875 70.5781 58.2031 69.7344ZM64.3125 66.8906H66.0625V58.2812H64.3125V66.8906Z" fill="#FF4800"/>
<path fill-rule="evenodd" clip-rule="evenodd" d="M48.3684 33C45.4035 33 43 35.3689 43 38.2911V40.2462C43 42.8526 44.912 45.0188 47.429 45.4566C48.2669 46.3671 49.4775 47.3377 50.3087 46.8853C50.7461 46.6472 50.8607 46.1335 50.8042 45.5374H54.6316C57.5965 45.5374 60 43.1684 60 40.2462V38.2911C60 35.3689 57.5965 33 54.6316 33H48.3684Z" fill="#FF4800"/>
<path fill-rule="evenodd" clip-rule="evenodd" d="M67 31.058C67 26.6077 63.4183 23 59 23H51C46.5817 23 43 26.6077 43 31.058V33.3002C44.2705 31.9942 46.0413 31.1839 48 31.1839H55C58.866 31.1839 62 34.3406 62 38.2347V40.4678C62 40.6784 61.9908 40.8869 61.9729 41.0929C61.9959 41.0596 62.0186 41.0262 62.041 40.9928C64.9498 39.7877 67 36.905 67 33.5377V31.058ZM59.3255 42.9955C59.7544 42.2526 60 41.3891 60 40.4678V38.2347C60 35.4532 57.7614 33.1984 55 33.1984H48C45.9683 33.1984 44.2196 34.419 43.4373 36.1719C44.5209 39.3286 47.4976 41.5957 51 41.5957H57.141C57.4208 42.2018 57.9024 42.7723 58.7256 42.9504C58.9328 42.9952 59.1332 43.008 59.3255 42.9955Z" fill="#FF4800"/>
</g>
<defs>
<filter id="filter0_d_1660_10594" x="0" y="0" width="108" height="108" filterUnits="userSpaceOnUse" color-interpolation-filters="sRGB">
<feFlood flood-opacity="0" result="BackgroundImageFix"/>
<feColorMatrix in="SourceAlpha" type="matrix" values="0 0 0 0 0 0 0 0 0 0 0 0 0 0 0 0 0 0 127 0" result="hardAlpha"/>
<feOffset dy="4"/>
<feGaussianBlur stdDeviation="2"/>
<feComposite in2="hardAlpha" operator="out"/>
<feColorMatrix type="matrix" values="0 0 0 0 0 0 0 0 0 0 0 0 0 0 0 0 0 0 0.25 0"/>
<feBlend mode="normal" in2="BackgroundImageFix" result="effect1_dropShadow_1660_10594"/>
<feBlend mode="normal" in="SourceGraphic" in2="effect1_dropShadow_1660_10594" result="shape"/>
</filter>
</defs>
</svg>
