<svg width="108" height="108" viewBox="0 0 108 108" fill="none" xmlns="http://www.w3.org/2000/svg">
<g filter="url(#filter0_d_1660_10669)">
<rect x="4" width="100" height="100" rx="20" fill="#FFF2E7"/>
<path d="M45.6562 58.2656H44V72.3906H45.6562V58.2656ZM33.3594 68.1719L34.3438 69.4062C36.3359 68.25 37.6641 66.8359 38.4844 65.2188H41.0156V71.7188H42.6562V58.6094H41.0156V63.8281H39.0547C39.4375 62.6328 39.6094 61.3516 39.6094 59.9844H34.0781V61.3906H37.8906C37.625 64.2344 36.2812 66.4453 33.3594 68.1719ZM52.6406 61.6562V59.4062H50.875V61.6562C50.8672 64.3828 49.4922 67.0781 47.1406 68.0938L48.2031 69.5469C49.9141 68.7422 51.1328 67.1172 51.7812 65.1328C52.4375 66.9766 53.625 68.4688 55.25 69.2188L56.2812 67.8281C53.9922 66.8438 52.625 64.25 52.6406 61.6562ZM57.2969 72.4062H59.0469V58.2656H57.2969V72.4062ZM69.0781 59.5H61.4688V60.8906H62.7188V65.2812C62.1484 65.2891 61.6016 65.2969 61.0938 65.2969L61.2812 66.7031C63.6719 66.7031 66.9219 66.6484 69.7656 66.1719L69.6406 64.8906C69.0625 64.9609 68.4609 65.0156 67.8438 65.0703V60.8906H69.0781V59.5ZM63.2188 72.1094H72.8281V70.7031H64.9531V67.6875H63.2188V72.1094ZM64.3906 65.2422V60.8906H66.1562V65.1719C65.5625 65.2031 64.9688 65.2266 64.3906 65.2422ZM70.5312 68.6719H72.2656V63.8125H74.2344V62.3594H72.2656V58.2812H70.5312V68.6719Z" fill="#FF4800"/>
<rect x="45" y="27" width="18" height="20" rx="3" fill="#FF4800" stroke="#FF4800" stroke-width="2"/>
<circle cx="54" cy="25" r="2" stroke="#FF4800" stroke-width="2"/>
<mask id="path-5-inside-1_1660_10669" fill="white">
<rect x="48" y="31" width="12" height="4" rx="1"/>
</mask>
<rect x="48" y="31" width="12" height="4" rx="1" fill="#FFFCF3" stroke="#FFFCF3" stroke-width="4" stroke-linejoin="round" mask="url(#path-5-inside-1_1660_10669)"/>
<mask id="path-6-inside-2_1660_10669" fill="white">
<rect x="48" y="38" width="12" height="5" rx="1"/>
</mask>
<rect x="48" y="38" width="12" height="5" rx="1" fill="#FFFCF3" stroke="#FFFCF3" stroke-width="4" stroke-linejoin="round" mask="url(#path-6-inside-2_1660_10669)"/>
</g>
<defs>
<filter id="filter0_d_1660_10669" x="0" y="0" width="108" height="108" filterUnits="userSpaceOnUse" color-interpolation-filters="sRGB">
<feFlood flood-opacity="0" result="BackgroundImageFix"/>
<feColorMatrix in="SourceAlpha" type="matrix" values="0 0 0 0 0 0 0 0 0 0 0 0 0 0 0 0 0 0 127 0" result="hardAlpha"/>
<feOffset dy="4"/>
<feGaussianBlur stdDeviation="2"/>
<feComposite in2="hardAlpha" operator="out"/>
<feColorMatrix type="matrix" values="0 0 0 0 0 0 0 0 0 0 0 0 0 0 0 0 0 0 0.25 0"/>
<feBlend mode="normal" in2="BackgroundImageFix" result="effect1_dropShadow_1660_10669"/>
<feBlend mode="normal" in="SourceGraphic" in2="effect1_dropShadow_1660_10669" result="shape"/>
</filter>
</defs>
</svg>
