<svg width="108" height="108" viewBox="0 0 108 108" fill="none" xmlns="http://www.w3.org/2000/svg">
<g filter="url(#filter0_d_1660_10644)">
<rect x="4" width="100" height="100" rx="20" fill="#FFF2E7"/>
<path d="M19.8906 59.0625C16.8828 59.0703 14.6484 60.5781 14.6562 62.875C14.6484 64.9922 16.4688 66.4062 19.0312 66.6641V69.25H13.4688V70.6719H26.375V69.25H20.75V66.6641C23.3438 66.4062 25.1641 64.9922 25.1562 62.875C25.1641 60.5781 22.9219 59.0703 19.8906 59.0625ZM16.3594 62.875C16.3516 61.3984 17.8281 60.4609 19.8906 60.4688C21.9844 60.4609 23.4531 61.3984 23.4531 62.875C23.4531 64.3984 21.9844 65.3125 19.8906 65.3125C17.8281 65.3125 16.3516 64.3984 16.3594 62.875ZM40.1875 65.25H27.2812V66.6406H32.9688V69.2344H34.7344V66.6406H40.1875V65.25ZM28.6562 61.4688C28.6484 63.25 30.6797 64.3516 33.7188 64.3438C36.7734 64.3516 38.7812 63.25 38.7812 61.4688C38.7812 59.6953 36.7734 58.5781 33.7188 58.5781C30.6797 58.5781 28.6484 59.6953 28.6562 61.4688ZM28.8594 72.1094H38.7656V70.6875H30.6094V67.9219H28.8594V72.1094ZM30.5312 61.4688C30.5156 60.5 31.7812 59.9531 33.7188 59.9531C35.6719 59.9531 36.9297 60.5 36.9219 61.4688C36.9297 62.4062 35.6719 62.9531 33.7188 62.9531C31.7812 62.9531 30.5156 62.4062 30.5312 61.4688ZM45.3906 58.875C43.3203 58.875 41.8516 60.0234 41.8594 61.7188C41.8516 63.1484 42.9297 64.2031 44.5469 64.4766V65.6875C43.2969 65.7266 42.1094 65.7344 41.0938 65.7344L41.2812 67.125C43.6719 67.1328 46.9531 67.0703 49.8906 66.5469L49.75 65.2812C48.6562 65.4375 47.4766 65.5391 46.2969 65.6094V64.4688C47.8672 64.1797 48.9219 63.125 48.9375 61.7188C48.9219 60.0234 47.4531 58.875 45.3906 58.875ZM43.0312 72.0938H52.8125V70.6875H44.7656V68.1094H43.0312V72.0938ZM43.4844 61.7188C43.4688 60.7656 44.2656 60.2031 45.3906 60.2031C46.5234 60.2031 47.2891 60.7656 47.2969 61.7188C47.2891 62.6484 46.5234 63.2266 45.3906 63.2344C44.2656 63.2266 43.4688 62.6484 43.4844 61.7188ZM50.5781 69.0625H52.3125V64.2812H54.2188V62.8438H52.3125V58.2812H50.5781V69.0625ZM67.0312 58.2812H65.375V61.2656H63.8906V58.5469H62.25V65.3125H63.8906V62.6406H65.375V65.4219H67.0312V58.2812ZM54.9688 64.625L55.7812 65.8906C59.3281 64.6484 61.0703 62.4688 61.0781 59.1094H55.5938V60.5H59.25C58.9922 62.3594 57.6406 63.75 54.9688 64.625ZM57.4688 67.3594H65.3125V68.375H57.4844V72.2188H67.5312V70.8438H59.2188V69.6719H67.0312V65.9688H57.4688V67.3594ZM80.6094 58.2656H78.875V63.4688H76.4531V64.8906H78.875V72.4062H80.6094V58.2656ZM69.25 60.9062H73.9375V63.2656H69.2969V69.0938H70.4219C72.8516 69.0859 74.7422 69.0078 76.8438 68.6406L76.7031 67.2188C74.8047 67.5625 73.1172 67.6328 71.0156 67.6406V64.6719H75.6406V59.5H69.25V60.9062ZM94.375 58.2656H92.6562V72.4062H94.375V58.2656ZM83.375 60.9062H88.2656V63.4219H83.3906V69.0625H84.625C87.1641 69.0703 89.2734 68.9766 91.6719 68.5625L91.5156 67.1406C89.3125 67.5078 87.3984 67.625 85.1719 67.6406V64.7969H90.0312V59.5H83.375V60.9062Z" fill="#FF4800"/>
<path fill-rule="evenodd" clip-rule="evenodd" d="M51.2361 25C50.4785 25 49.786 25.428 49.4472 26.1056L48.5 28H44C42.8954 28 42 28.8954 42 30V46C42 47.1046 42.8954 48 44 48H64C65.1046 48 66 47.1046 66 46V30C66 28.8954 65.1046 28 64 28H59.5L58.5528 26.1056C58.214 25.428 57.5215 25 56.7639 25H51.2361Z" fill="#FF4800"/>
<path d="M49.4472 26.1056L50.3416 26.5528V26.5528L49.4472 26.1056ZM48.5 28V29C48.8788 29 49.225 28.786 49.3944 28.4472L48.5 28ZM59.5 28L58.6056 28.4472C58.775 28.786 59.1212 29 59.5 29V28ZM58.5528 26.1056L57.6584 26.5528V26.5528L58.5528 26.1056ZM50.3416 26.5528C50.511 26.214 50.8573 26 51.2361 26V24C50.0998 24 49.061 24.642 48.5528 25.6584L50.3416 26.5528ZM49.3944 28.4472L50.3416 26.5528L48.5528 25.6584L47.6056 27.5528L49.3944 28.4472ZM44 29H48.5V27H44V29ZM43 30C43 29.4477 43.4477 29 44 29V27C42.3431 27 41 28.3431 41 30H43ZM43 46V30H41V46H43ZM44 47C43.4477 47 43 46.5523 43 46H41C41 47.6569 42.3431 49 44 49V47ZM64 47H44V49H64V47ZM65 46C65 46.5523 64.5523 47 64 47V49C65.6569 49 67 47.6569 67 46H65ZM65 30V46H67V30H65ZM64 29C64.5523 29 65 29.4477 65 30H67C67 28.3431 65.6569 27 64 27V29ZM59.5 29H64V27H59.5V29ZM57.6584 26.5528L58.6056 28.4472L60.3944 27.5528L59.4472 25.6584L57.6584 26.5528ZM56.7639 26C57.1427 26 57.489 26.214 57.6584 26.5528L59.4472 25.6584C58.939 24.642 57.9002 24 56.7639 24V26ZM51.2361 26H56.7639V24H51.2361V26Z" fill="#FF4800"/>
<circle cx="54" cy="38" r="7" fill="#FFFCF3" stroke="#FF4800" stroke-width="2"/>
<path fill-rule="evenodd" clip-rule="evenodd" d="M51.3992 39.0935L51.4186 39.1025L52.4286 39.5714L52.8975 40.5814L52.9065 40.6008L53.0038 40.8105L53.0488 40.9072L53.3571 41.5714C53.4762 41.8571 53.6905 42 54 42C54.3095 42 54.5238 41.8571 54.6429 41.5714L54.9512 40.9072L54.9962 40.8105L55.0935 40.6008L55.1025 40.5814L55.5714 39.5714L56.5814 39.1025L56.6008 39.0935L56.8105 38.9962L56.9072 38.9512L57.5714 38.6429C57.8571 38.5238 58 38.3095 58 38C58 37.6905 57.8571 37.4762 57.5714 37.3571L56.9072 37.0488L56.8105 37.0038L56.6008 36.9065L56.5814 36.8975L55.5714 36.4286L55.1025 35.4186L55.0935 35.3992L54.9962 35.1895L54.9512 35.0928L54.6429 34.4286C54.5238 34.1429 54.3095 34 54 34C53.6905 34 53.4762 34.1429 53.3571 34.4286L53.0488 35.0928L53.0038 35.1895L52.9065 35.3992L52.8975 35.4186L52.4286 36.4286L51.4186 36.8975L51.3992 36.9065L51.1895 37.0038L51.0928 37.0488L50.4286 37.3571C50.1429 37.4762 50 37.6905 50 38C50 38.3095 50.1429 38.5238 50.4286 38.6429L51.0928 38.9512L51.1895 38.9962L51.3992 39.0935Z" fill="#FF4800"/>
</g>
<defs>
<filter id="filter0_d_1660_10644" x="0" y="0" width="108" height="108" filterUnits="userSpaceOnUse" color-interpolation-filters="sRGB">
<feFlood flood-opacity="0" result="BackgroundImageFix"/>
<feColorMatrix in="SourceAlpha" type="matrix" values="0 0 0 0 0 0 0 0 0 0 0 0 0 0 0 0 0 0 127 0" result="hardAlpha"/>
<feOffset dy="4"/>
<feGaussianBlur stdDeviation="2"/>
<feComposite in2="hardAlpha" operator="out"/>
<feColorMatrix type="matrix" values="0 0 0 0 0 0 0 0 0 0 0 0 0 0 0 0 0 0 0.25 0"/>
<feBlend mode="normal" in2="BackgroundImageFix" result="effect1_dropShadow_1660_10644"/>
<feBlend mode="normal" in="SourceGraphic" in2="effect1_dropShadow_1660_10644" result="shape"/>
</filter>
</defs>
</svg>
