<svg width="100" height="100" viewBox="0 0 100 100" fill="none" xmlns="http://www.w3.org/2000/svg">
<rect width="100" height="100" rx="20" fill="#FFFCF3"/>
<path d="M40.7812 62.5625V62.1719H43.2188V60.75H40.7812V58.7656H39.1406V60.75H36.6719V62.1719H39.1406V62.5625C39.1328 64.7969 38.2422 67.1484 36.2656 68.2969L37.2656 69.5781C38.5859 68.8281 39.4766 67.4609 39.9766 65.8672C40.4844 67.3438 41.375 68.5781 42.6875 69.2656L43.6719 67.9844C41.6641 66.9375 40.7812 64.7188 40.7812 62.5625ZM43.9688 71.7031H45.6094V65.2344H47.0625V72.3906H48.7188V58.2656H47.0625V63.7969H45.6094V58.5156H43.9688V71.7031ZM57.9062 59.2812H51.0781V66.125H52.2812C55.3281 66.1328 57.1016 66.0859 59.125 65.75L58.9531 64.375C57.0938 64.6875 55.4844 64.7266 52.8438 64.7188V63.3594H57.5V62H52.8438V60.6562H57.9062V59.2812ZM52.4688 69.7344C52.4609 71.4062 54.2812 72.375 57.2969 72.375C60.2578 72.375 62.125 71.4062 62.125 69.7344C62.125 68.0625 60.2578 67.0859 57.2969 67.0938C54.2812 67.0859 52.4609 68.0625 52.4688 69.7344ZM54.2031 69.7344C54.1875 68.8984 55.2891 68.4375 57.2969 68.4375C59.2578 68.4375 60.3906 68.8984 60.3906 69.7344C60.3906 70.5781 59.2578 71.0312 57.2969 71.0312C55.2891 71.0312 54.1875 70.5781 54.2031 69.7344ZM60.3125 66.8906H62.0625V58.2812H60.3125V66.8906Z" fill="black"/>
<path fill-rule="evenodd" clip-rule="evenodd" d="M55 24C58.866 24 62 27.134 62 31V33.4618C62 36.4925 60.0739 39.0734 57.379 40.0472C56.7044 41.1247 55.8355 42.0223 54.9356 41.829C54.3446 41.7021 54.0161 41.164 53.8536 40.4618H47C43.134 40.4618 40 37.3278 40 33.4618V31C40 27.134 43.134 24 47 24H55Z" fill="#FFFCF3"/>
<path d="M57.379 40.0472L56.5314 39.5165L56.7146 39.224L57.0392 39.1067L57.379 40.0472ZM54.9356 41.829L55.1455 40.8513H55.1455L54.9356 41.829ZM53.8536 40.4618V39.4618H54.6486L54.8278 40.2363L53.8536 40.4618ZM61 31C61 27.6863 58.3137 25 55 25V23C59.4183 23 63 26.5817 63 31H61ZM61 33.4618V31H63V33.4618H61ZM57.0392 39.1067C59.3505 38.2715 61 36.058 61 33.4618H63C63 36.9271 60.7973 39.8753 57.7188 40.9876L57.0392 39.1067ZM55.1455 40.8513C55.1808 40.8589 55.3189 40.8749 55.6128 40.6372C55.9045 40.4013 56.2214 40.0117 56.5314 39.5165L58.2266 40.5778C57.8619 41.1602 57.4071 41.7582 56.8707 42.1921C56.3365 42.6242 55.5903 42.9924 54.7256 42.8067L55.1455 40.8513ZM54.8278 40.2363C54.891 40.5091 54.9709 40.6761 55.0376 40.7662C55.0912 40.8385 55.1218 40.8462 55.1455 40.8513L54.7256 42.8067C53.545 42.5532 53.067 41.4984 52.8793 40.6872L54.8278 40.2363ZM47 39.4618H53.8536V41.4618H47V39.4618ZM41 33.4618C41 36.7755 43.6863 39.4618 47 39.4618V41.4618C42.5817 41.4618 39 37.8801 39 33.4618H41ZM41 31V33.4618H39V31H41ZM47 25C43.6863 25 41 27.6863 41 31H39C39 26.5817 42.5817 23 47 23V25ZM55 25H47V23H55V25Z" fill="black"/>
<path fill-rule="evenodd" clip-rule="evenodd" d="M44 32.125C40.6863 32.125 38 34.8113 38 38.125V40.342C38 43.2975 40.137 45.754 42.9501 46.2505C43.8866 47.2829 45.2395 48.3835 46.1685 47.8705C46.6575 47.6005 46.7854 47.018 46.7224 46.342H51C54.3137 46.342 57 43.6557 57 40.342V38.125C57 34.8113 54.3137 32.125 51 32.125H44Z" fill="#FFFCF3"/>
<path d="M42.9501 46.2505L43.6908 45.5786L43.4609 45.3251L43.1239 45.2657L42.9501 46.2505ZM46.1685 47.8705L45.6851 46.9951H45.6851L46.1685 47.8705ZM46.7224 46.342V45.342H45.6247L45.7267 46.4349L46.7224 46.342ZM39 38.125C39 35.3636 41.2386 33.125 44 33.125V31.125C40.134 31.125 37 34.259 37 38.125H39ZM39 40.342V38.125H37V40.342H39ZM43.1239 45.2657C40.7803 44.8521 39 42.8039 39 40.342H37C37 43.7912 39.4936 46.6559 42.7763 47.2352L43.1239 45.2657ZM45.6851 46.9951C45.683 46.9962 45.6803 46.9979 45.6701 46.9992C45.6576 47.0009 45.628 47.0026 45.5762 46.9937C45.4648 46.9743 45.2966 46.9134 45.0735 46.7807C44.6244 46.5134 44.1292 46.062 43.6908 45.5786L42.2094 46.9223C42.7074 47.4714 43.357 48.0865 44.0507 48.4993C44.695 48.8828 45.6964 49.2735 46.6519 48.7459L45.6851 46.9951ZM45.7267 46.4349C45.7512 46.6971 45.7294 46.8629 45.7009 46.9511C45.6883 46.9901 45.6781 47.0025 45.6792 47.001C45.682 46.9974 45.6866 46.9943 45.6851 46.9951L46.6519 48.7459C47.6985 48.168 47.789 47.0093 47.7181 46.2491L45.7267 46.4349ZM51 45.342H46.7224V47.342H51V45.342ZM56 40.342C56 43.1034 53.7614 45.342 51 45.342V47.342C54.866 47.342 58 44.208 58 40.342H56ZM56 38.125V40.342H58V38.125H56ZM51 33.125C53.7614 33.125 56 35.3636 56 38.125H58C58 34.259 54.866 31.125 51 31.125V33.125ZM44 33.125H51V31.125H44V33.125Z" fill="black"/>
</svg>
