<svg width="250" height="121" viewBox="0 0 250 121" fill="none" xmlns="http://www.w3.org/2000/svg">
<circle cx="125" cy="42" r="15" fill="black"/>
<circle cx="63" cy="34" r="15" fill="black"/>
<circle cx="187" cy="34" r="15" fill="black"/>
<path d="M100 79.5C100 68.7304 108.73 60 119.5 60H130.5C141.27 60 150 68.7304 150 79.5V87C150 93.6274 144.627 99 138 99H112C105.373 99 100 93.6274 100 87V79.5Z" fill="black"/>
<path d="M38 71.5C38 60.7304 46.7304 52 57.5 52H68.5C79.2696 52 88 60.7304 88 71.5V79C88 85.6274 82.6274 91 76 91H50C43.3726 91 38 85.6274 38 79V71.5Z" fill="black"/>
<path d="M162 71.5C162 60.7304 170.73 52 181.5 52H192.5C203.27 52 212 60.7304 212 71.5V79C212 85.6274 206.627 91 200 91H174C167.373 91 162 85.6274 162 79V71.5Z" fill="black"/>
<path d="M249 93C249 94.6097 248.276 96.2673 246.722 97.9685C245.163 99.6753 242.816 101.37 239.709 103.015C233.497 106.305 224.443 109.298 213.17 111.823C190.64 116.87 159.467 120 125 120C90.5331 120 59.3599 116.87 36.8302 111.823C25.5573 109.298 16.5029 106.305 10.2911 103.015C7.18432 101.37 4.83709 99.6753 3.27786 97.9685C1.72372 96.2673 1 94.6097 1 93C1 91.3903 1.72372 89.7327 3.27786 88.0315C4.83709 86.3247 7.18432 84.6302 10.2911 82.9849C16.5029 79.6951 25.5573 76.702 36.8302 74.1768C59.3599 69.1302 90.5331 66 125 66C159.467 66 190.64 69.1302 213.17 74.1768C224.443 76.702 233.497 79.6951 239.709 82.9849C242.816 84.6302 245.163 86.3247 246.722 88.0315C248.276 89.7327 249 91.3903 249 93Z" stroke="black" stroke-width="2"/>
<path fill-rule="evenodd" clip-rule="evenodd" d="M144 1C143.448 1 143 1.44772 143 2V8H137C136.448 8 136 8.44771 136 9C136 9.55228 136.448 10 137 10H143V16C143 16.5523 143.448 17 144 17C144.552 17 145 16.5523 145 16V10H151C151.552 10 152 9.55229 152 9C152 8.44772 151.552 8 151 8H145V2C145 1.44772 144.552 1 144 1Z" fill="black"/>
<path d="M143 8V9H144V8H143ZM143 10H144V9H143V10ZM145 10V9H144V10H145ZM145 8H144V9H145V8ZM144 2V0C142.895 0 142 0.89543 142 2H144ZM144 8V2H142V8H144ZM137 9H143V7H137V9ZM137 9H137V7C135.895 7 135 7.89543 135 9H137ZM137 9L137 9H135C135 10.1046 135.895 11 137 11V9ZM143 9H137V11H143V9ZM144 16V10H142V16H144ZM144 16H142C142 17.1046 142.895 18 144 18V16ZM144 16V18C145.105 18 146 17.1046 146 16H144ZM144 10V16H146V10H144ZM151 9H145V11H151V9ZM151 9V9V11C152.105 11 153 10.1046 153 9H151ZM151 9H153C153 7.89543 152.105 7 151 7V9ZM145 9H151V7H145V9ZM144 2V8H146V2H144ZM144 2H146C146 0.895431 145.105 0 144 0V2Z" fill="black"/>
<path fill-rule="evenodd" clip-rule="evenodd" d="M168 99C167.586 99 167.25 99.3358 167.25 99.75V104.25H162.75C162.336 104.25 162 104.586 162 105C162 105.414 162.336 105.75 162.75 105.75H167.25V110.25C167.25 110.664 167.586 111 168 111C168.414 111 168.75 110.664 168.75 110.25V105.75H173.25C173.664 105.75 174 105.414 174 105C174 104.586 173.664 104.25 173.25 104.25H168.75V99.75C168.75 99.3358 168.414 99 168 99Z" fill="black"/>
<path d="M167.25 104.25V105.25H168.25V104.25H167.25ZM167.25 105.75H168.25V104.75H167.25V105.75ZM168.75 105.75V104.75H167.75V105.75H168.75ZM168.75 104.25H167.75V105.25H168.75V104.25ZM168.25 99.75C168.25 99.8881 168.138 100 168 100V98C167.034 98 166.25 98.7835 166.25 99.75H168.25ZM168.25 104.25V99.75H166.25V104.25H168.25ZM162.75 105.25H167.25V103.25H162.75V105.25ZM163 105C163 105.138 162.888 105.25 162.75 105.25V103.25C161.784 103.25 161 104.034 161 105H163ZM162.75 104.75C162.888 104.75 163 104.862 163 105H161C161 105.966 161.784 106.75 162.75 106.75V104.75ZM167.25 104.75H162.75V106.75H167.25V104.75ZM168.25 110.25V105.75H166.25V110.25H168.25ZM168 110C168.138 110 168.25 110.112 168.25 110.25H166.25C166.25 111.216 167.034 112 168 112V110ZM167.75 110.25C167.75 110.112 167.862 110 168 110V112C168.966 112 169.75 111.216 169.75 110.25H167.75ZM167.75 105.75V110.25H169.75V105.75H167.75ZM173.25 104.75H168.75V106.75H173.25V104.75ZM173 105C173 104.862 173.112 104.75 173.25 104.75V106.75C174.216 106.75 175 105.966 175 105H173ZM173.25 105.25C173.112 105.25 173 105.138 173 105H175C175 104.034 174.216 103.25 173.25 103.25V105.25ZM168.75 105.25H173.25V103.25H168.75V105.25ZM167.75 99.75V104.25H169.75V99.75H167.75ZM168 100C167.862 100 167.75 99.8881 167.75 99.75H169.75C169.75 98.7835 168.966 98 168 98V100Z" fill="black"/>
<path fill-rule="evenodd" clip-rule="evenodd" d="M30 44C29.4477 44 29 44.4477 29 45V51H23C22.4477 51 22 51.4477 22 52C22 52.5523 22.4477 53 23 53H29V59C29 59.5523 29.4477 60 30 60C30.5523 60 31 59.5523 31 59V53H37C37.5523 53 38 52.5523 38 52C38 51.4477 37.5523 51 37 51H31V45C31 44.4477 30.5523 44 30 44Z" fill="black"/>
<path d="M29 51V52H30V51H29ZM29 53H30V52H29V53ZM31 53V52H30V53H31ZM31 51H30V52H31V51ZM30 45V43C28.8954 43 28 43.8954 28 45H30ZM30 51V45H28V51H30ZM23 52H29V50H23V52ZM23 52H23V50C21.8954 50 21 50.8954 21 52H23ZM23 52L23 52H21C21 53.1046 21.8954 54 23 54V52ZM29 52H23V54H29V52ZM30 59V53H28V59H30ZM30 59H28C28 60.1046 28.8954 61 30 61V59ZM30 59V61C31.1046 61 32 60.1046 32 59H30ZM30 53V59H32V53H30ZM37 52H31V54H37V52ZM37 52V52V54C38.1046 54 39 53.1046 39 52H37ZM37 52H39C39 50.8954 38.1046 50 37 50V52ZM31 52H37V50H31V52ZM30 45V51H32V45H30ZM30 45H32C32 43.8954 31.1046 43 30 43V45Z" fill="black"/>
</svg>
