<svg width="24" height="25" viewBox="0 0 24 25" fill="none" xmlns="http://www.w3.org/2000/svg">
<path d="M5.58795 13.6246H17.2068C18.409 13.6246 19.3585 14.6451 19.272 15.8442L18.7798 22.6713C18.7017 23.7543 17.8003 24.593 16.7145 24.593H6.00582C4.91137 24.593 4.00592 23.7413 3.93906 22.6489L3.52118 15.8218C3.44828 14.6307 4.39462 13.6246 5.58795 13.6246Z" fill="white" stroke="black" stroke-width="0.8157"/>
<path d="M4.55657 7.70082H18.3738C19.5174 7.70082 20.4444 8.62787 20.4444 9.77145V16.5985C20.4444 17.7421 19.5174 18.6692 18.3738 18.6692H5.02465C3.93605 18.6692 3.03334 17.8262 2.95888 16.7402L2.49079 9.91308C2.40876 8.71656 3.35724 7.70082 4.55657 7.70082Z" fill="white" stroke="black" stroke-width="0.8157"/>
<rect x="5.76723" y="0.40785" width="4.5611" height="9.73136" rx="2.2046" fill="white" stroke="black" stroke-width="0.8157"/>
<rect x="0.444354" y="0.36836" width="4.56077" height="9.73202" rx="2.2046" transform="matrix(0.99572 -0.0924183 0.0937836 0.995593 -0.0326444 1.25558)" fill="white" stroke="black" stroke-width="0.8157"/>
<rect x="10.7907" y="0.40785" width="4.5611" height="9.73136" rx="2.2046" fill="white" stroke="black" stroke-width="0.8157"/>
<rect x="0.37891" y="0.434497" width="4.56093" height="9.73171" rx="2.2046" transform="matrix(0.997706 0.0676962 -0.068663 0.99764 15.769 -0.0246253)" fill="white" stroke="black" stroke-width="0.8157"/>
<mask id="path-7-inside-1_1722_7761" fill="white">
<path fill-rule="evenodd" clip-rule="evenodd" d="M14.3587 5.7355C13.6334 6.98279 14.0602 8.5756 15.3119 9.29316L18.6193 11.1891V11.6194L14.0425 14.2366C11.7147 15.5678 12.6525 19.1007 15.3336 19.1007L19.5202 19.1007C20.4968 19.1007 21.394 18.5601 21.8478 17.6982L23.4612 14.634C23.5616 14.4434 23.6358 14.2498 23.686 14.056C23.8839 13.6881 23.9961 13.2674 23.9961 12.8204V9.71184C23.9961 9.5105 23.9733 9.31449 23.9302 9.12623C23.7966 8.4027 23.3572 7.74059 22.6667 7.34479L18.0003 4.66977C16.7486 3.95221 15.1459 4.38163 14.4207 5.62891L14.3587 5.7355Z"/>
</mask>
<path fill-rule="evenodd" clip-rule="evenodd" d="M14.3587 5.7355C13.6334 6.98279 14.0602 8.5756 15.3119 9.29316L18.6193 11.1891V11.6194L14.0425 14.2366C11.7147 15.5678 12.6525 19.1007 15.3336 19.1007L19.5202 19.1007C20.4968 19.1007 21.394 18.5601 21.8478 17.6982L23.4612 14.634C23.5616 14.4434 23.6358 14.2498 23.686 14.056C23.8839 13.6881 23.9961 13.2674 23.9961 12.8204V9.71184C23.9961 9.5105 23.9733 9.31449 23.9302 9.12623C23.7966 8.4027 23.3572 7.74059 22.6667 7.34479L18.0003 4.66977C16.7486 3.95221 15.1459 4.38163 14.4207 5.62891L14.3587 5.7355Z" fill="white"/>
<path d="M15.3119 9.29316L15.7176 8.58549L15.7176 8.58549L15.3119 9.29316ZM14.3587 5.7355L13.6535 5.32547L13.6535 5.32547L14.3587 5.7355ZM18.6193 11.1891H19.435V10.7165L19.025 10.4814L18.6193 11.1891ZM18.6193 11.6194L19.0242 12.3274L19.435 12.0925V11.6194H18.6193ZM14.0425 14.2366L13.6376 13.5285L13.6376 13.5285L14.0425 14.2366ZM15.3336 19.1007L15.3336 18.285L15.3336 18.285L15.3336 19.1007ZM19.5202 19.1007L19.5202 19.9164L19.5202 19.9164L19.5202 19.1007ZM21.8478 17.6982L21.126 17.3182L21.126 17.3182L21.8478 17.6982ZM23.4612 14.634L22.7394 14.254L22.7394 14.254L23.4612 14.634ZM23.686 14.056L22.9676 13.6697L22.921 13.7563L22.8964 13.8515L23.686 14.056ZM23.9302 9.12623L23.1281 9.2743L23.1312 9.29138L23.1351 9.30832L23.9302 9.12623ZM22.6667 7.34479L23.0724 6.63712L23.0724 6.63712L22.6667 7.34479ZM18.0003 4.66977L17.5947 5.37744L17.5947 5.37744L18.0003 4.66977ZM14.4207 5.62891L13.7155 5.21888L13.7155 5.21888L14.4207 5.62891ZM15.7176 8.58549C14.8584 8.09296 14.566 7.00167 15.0638 6.14554L13.6535 5.32547C12.7008 6.9639 13.262 9.05825 14.9063 10.0008L15.7176 8.58549ZM19.025 10.4814L15.7176 8.58549L14.9063 10.0008L18.2136 11.8968L19.025 10.4814ZM17.8036 11.1891V11.6194H19.435V11.1891H17.8036ZM18.2144 10.9113L13.6376 13.5285L14.4474 14.9447L19.0242 12.3274L18.2144 10.9113ZM13.6376 13.5285C10.5848 15.2743 11.815 19.9164 15.3336 19.9164L15.3336 18.285C13.49 18.285 12.8447 15.8613 14.4474 14.9447L13.6376 13.5285ZM15.3336 19.9164L19.5202 19.9164L19.5202 18.285L15.3336 18.285L15.3336 19.9164ZM19.5202 19.9164C20.7986 19.9164 21.9742 19.2089 22.5696 18.0783L21.126 17.3182C20.8138 17.9112 20.195 18.285 19.5202 18.285L19.5202 19.9164ZM22.5696 18.0783L24.183 15.0141L22.7394 14.254L21.126 17.3182L22.5696 18.0783ZM24.183 15.0141C24.3123 14.7684 24.4095 14.5159 24.4756 14.2605L22.8964 13.8515C22.8621 13.9836 22.8108 14.1184 22.7394 14.254L24.183 15.0141ZM24.4044 14.4424C24.6645 13.9586 24.8118 13.4055 24.8118 12.8204H23.1804C23.1804 13.1292 23.1032 13.4176 22.9676 13.6697L24.4044 14.4424ZM24.8118 12.8204V9.71184H23.1804V12.8204H24.8118ZM24.8118 9.71184C24.8118 9.4488 24.782 9.19171 24.7253 8.94413L23.1351 9.30832C23.1646 9.43726 23.1804 9.5722 23.1804 9.71184H24.8118ZM22.2611 8.05246C22.7356 8.32446 23.0363 8.77727 23.1281 9.2743L24.7324 8.97815C24.557 8.02812 23.9788 7.15673 23.0724 6.63712L22.2611 8.05246ZM17.5947 5.37744L22.2611 8.05246L23.0724 6.63712L18.406 3.9621L17.5947 5.37744ZM15.1258 6.03894C15.6256 5.17941 16.7321 4.88295 17.5947 5.37744L18.406 3.9621C16.7652 3.02147 14.6663 3.58385 13.7155 5.21888L15.1258 6.03894ZM15.0638 6.14554L15.1258 6.03894L13.7155 5.21888L13.6535 5.32547L15.0638 6.14554Z" fill="black" mask="url(#path-7-inside-1_1722_7761)"/>
</svg>
