<svg width="27" height="28" viewBox="0 0 27 28" fill="none" xmlns="http://www.w3.org/2000/svg">
<g filter="url(#filter0_d_1722_7761)">
<path d="M6.52118 15.8218C6.44828 14.6307 7.39462 13.6246 8.58795 13.6246H20.2068C21.409 13.6246 22.3585 14.6451 22.272 15.8442L21.7798 22.6713C21.7017 23.7543 20.8003 24.593 19.7145 24.593H9.00582C7.91137 24.593 7.00592 23.7413 6.93906 22.6489L6.52118 15.8218Z" fill="white" stroke="black" stroke-width="0.8157"/>
<path d="M5.49079 9.91308C5.40876 8.71656 6.35724 7.70082 7.55657 7.70082H21.3738C22.5174 7.70082 23.4444 8.62787 23.4444 9.77145V16.5985C23.4444 17.7421 22.5174 18.6692 21.3738 18.6692H8.02465C6.93605 18.6692 6.03334 17.8262 5.95888 16.7402L5.49079 9.91308Z" fill="white" stroke="black" stroke-width="0.8157"/>
<rect x="8.76723" y="0.40785" width="4.5611" height="9.73136" rx="2.2046" fill="white" stroke="black" stroke-width="0.8157"/>
<rect x="0.444354" y="0.36836" width="4.56077" height="9.73202" rx="2.2046" transform="matrix(0.99572 -0.0924183 0.0937836 0.995593 2.96736 1.25558)" fill="white" stroke="black" stroke-width="0.8157"/>
<rect x="13.7907" y="0.40785" width="4.5611" height="9.73136" rx="2.2046" fill="white" stroke="black" stroke-width="0.8157"/>
<rect x="0.37891" y="0.434497" width="4.56093" height="9.73171" rx="2.2046" transform="matrix(0.997706 0.0676962 -0.068663 0.99764 18.769 -0.0246253)" fill="white" stroke="black" stroke-width="0.8157"/>
<mask id="path-7-inside-1_1722_7761" fill="white">
<path fill-rule="evenodd" clip-rule="evenodd" d="M17.3587 5.7355C16.6334 6.98279 17.0602 8.5756 18.3119 9.29316L21.6193 11.1891V11.6194L17.0425 14.2366C14.7147 15.5678 15.6525 19.1007 18.3336 19.1007L22.5202 19.1007C23.4968 19.1007 24.394 18.5601 24.8478 17.6982L26.4612 14.634C26.5616 14.4434 26.6358 14.2498 26.686 14.056C26.8839 13.6881 26.9961 13.2674 26.9961 12.8204V9.71184C26.9961 9.5105 26.9733 9.31449 26.9302 9.12623C26.7966 8.4027 26.3572 7.74059 25.6667 7.34479L21.0003 4.66977C19.7486 3.95221 18.1459 4.38163 17.4207 5.62891L17.3587 5.7355Z"/>
</mask>
<path fill-rule="evenodd" clip-rule="evenodd" d="M17.3587 5.7355C16.6334 6.98279 17.0602 8.5756 18.3119 9.29316L21.6193 11.1891V11.6194L17.0425 14.2366C14.7147 15.5678 15.6525 19.1007 18.3336 19.1007L22.5202 19.1007C23.4968 19.1007 24.394 18.5601 24.8478 17.6982L26.4612 14.634C26.5616 14.4434 26.6358 14.2498 26.686 14.056C26.8839 13.6881 26.9961 13.2674 26.9961 12.8204V9.71184C26.9961 9.5105 26.9733 9.31449 26.9302 9.12623C26.7966 8.4027 26.3572 7.74059 25.6667 7.34479L21.0003 4.66977C19.7486 3.95221 18.1459 4.38163 17.4207 5.62891L17.3587 5.7355Z" fill="white"/>
<path d="M18.3119 9.29316L18.7176 8.58549L18.3119 9.29316ZM17.3587 5.7355L16.6535 5.32547L17.3587 5.7355ZM21.6193 11.1891H22.435V10.7165L22.025 10.4814L21.6193 11.1891ZM21.6193 11.6194L22.0242 12.3274L22.435 12.0925V11.6194H21.6193ZM17.0425 14.2366L16.6376 13.5285H16.6376L17.0425 14.2366ZM18.3336 19.1007L18.3336 18.285L18.3336 19.1007ZM22.5202 19.1007L22.5202 19.9164L22.5202 19.1007ZM24.8478 17.6982L24.126 17.3182V17.3182L24.8478 17.6982ZM26.4612 14.634L25.7394 14.254L26.4612 14.634ZM26.686 14.056L25.9676 13.6697L25.921 13.7563L25.8964 13.8515L26.686 14.056ZM26.9302 9.12623L26.1281 9.2743L26.1312 9.29138L26.1351 9.30832L26.9302 9.12623ZM25.6667 7.34479L26.0724 6.63712V6.63712L25.6667 7.34479ZM21.0003 4.66977L20.5947 5.37744V5.37744L21.0003 4.66977ZM17.4207 5.62891L16.7155 5.21888H16.7155L17.4207 5.62891ZM18.7176 8.58549C17.8584 8.09296 17.566 7.00167 18.0638 6.14554L16.6535 5.32547C15.7008 6.9639 16.262 9.05825 17.9063 10.0008L18.7176 8.58549ZM22.025 10.4814L18.7176 8.58549L17.9063 10.0008L21.2136 11.8968L22.025 10.4814ZM20.8036 11.1891V11.6194H22.435V11.1891H20.8036ZM21.2144 10.9113L16.6376 13.5285L17.4474 14.9447L22.0242 12.3274L21.2144 10.9113ZM16.6376 13.5285C13.5848 15.2743 14.815 19.9164 18.3336 19.9164L18.3336 18.285C16.49 18.285 15.8447 15.8613 17.4474 14.9447L16.6376 13.5285ZM18.3336 19.9164L22.5202 19.9164L22.5202 18.285L18.3336 18.285L18.3336 19.9164ZM22.5202 19.9164C23.7986 19.9164 24.9742 19.2089 25.5696 18.0783L24.126 17.3182C23.8138 17.9112 23.195 18.285 22.5202 18.285L22.5202 19.9164ZM25.5696 18.0783L27.183 15.0141L25.7394 14.254L24.126 17.3182L25.5696 18.0783ZM27.183 15.0141C27.3123 14.7684 27.4095 14.5159 27.4756 14.2605L25.8964 13.8515C25.8621 13.9836 25.8108 14.1184 25.7394 14.254L27.183 15.0141ZM27.4044 14.4424C27.6645 13.9586 27.8118 13.4055 27.8118 12.8204H26.1804C26.1804 13.1292 26.1032 13.4176 25.9676 13.6697L27.4044 14.4424ZM27.8118 12.8204V9.71184H26.1804V12.8204H27.8118ZM27.8118 9.71184C27.8118 9.4488 27.782 9.19171 27.7253 8.94413L26.1351 9.30832C26.1646 9.43726 26.1804 9.5722 26.1804 9.71184H27.8118ZM25.2611 8.05246C25.7356 8.32446 26.0363 8.77727 26.1281 9.2743L27.7324 8.97815C27.557 8.02813 26.9788 7.15673 26.0724 6.63712L25.2611 8.05246ZM20.5947 5.37744L25.2611 8.05246L26.0724 6.63712L21.406 3.9621L20.5947 5.37744ZM18.1258 6.03894C18.6256 5.17941 19.7321 4.88295 20.5947 5.37744L21.406 3.9621C19.7652 3.02147 17.6663 3.58385 16.7155 5.21888L18.1258 6.03894ZM18.0638 6.14554L18.1258 6.03894L16.7155 5.21888L16.6535 5.32547L18.0638 6.14554Z" fill="black" mask="url(#path-7-inside-1_1722_7761)"/>
</g>
<defs>
<filter id="filter0_d_1722_7761" x="0.234375" y="0" width="26.7617" height="28" filterUnits="userSpaceOnUse" color-interpolation-filters="sRGB">
<feFlood flood-opacity="0" result="BackgroundImageFix"/>
<feColorMatrix in="SourceAlpha" type="matrix" values="0 0 0 0 0 0 0 0 0 0 0 0 0 0 0 0 0 0 127 0" result="hardAlpha"/>
<feMorphology radius="1" operator="dilate" in="SourceAlpha" result="effect1_dropShadow_1722_7761"/>
<feOffset dx="-2" dy="2"/>
<feComposite in2="hardAlpha" operator="out"/>
<feColorMatrix type="matrix" values="0 0 0 0 0 0 0 0 0 0 0 0 0 0 0 0 0 0 1 0"/>
<feBlend mode="normal" in2="BackgroundImageFix" result="effect1_dropShadow_1722_7761"/>
<feBlend mode="normal" in="SourceGraphic" in2="effect1_dropShadow_1722_7761" result="shape"/>
</filter>
</defs>
</svg>
