<svg width="24" height="24" viewBox="0 0 24 24" fill="none" xmlns="http://www.w3.org/2000/svg">
<circle cx="12" cy="12" r="12" fill="black"/>
<path d="M8.25576 12.7651H15.5888C16.324 12.7651 16.9048 13.389 16.8523 14.1224L16.5384 18.5073C16.491 19.1701 15.9394 19.6836 15.2749 19.6836H8.52224C7.85247 19.6836 7.29844 19.1622 7.25781 18.4937L6.99133 14.1087C6.94705 13.3803 7.52592 12.7651 8.25576 12.7651Z" fill="white" stroke="black" stroke-width="0.499027"/>
<path d="M7.61129 9.03858H16.3154C17.015 9.03858 17.5821 9.60573 17.5821 10.3053V14.6903C17.5821 15.3899 17.015 15.957 16.3154 15.957H7.9098C7.24358 15.957 6.69121 15.441 6.64596 14.7763L6.34745 10.3914C6.29763 9.65959 6.87781 9.03858 7.61129 9.03858Z" fill="white" stroke="black" stroke-width="0.499027"/>
<rect x="8.39795" y="4.44873" width="2.86137" height="6.13982" rx="1.34873" fill="white" stroke="black" stroke-width="0.499027"/>
<rect x="5.07244" y="5.18614" width="2.86137" height="6.13982" rx="1.34873" transform="rotate(-5.34189 5.07244 5.18614)" fill="white" stroke="black" stroke-width="0.499027"/>
<rect x="11.5405" y="4.44873" width="2.86137" height="6.13982" rx="1.34873" fill="white" stroke="black" stroke-width="0.499027"/>
<rect x="14.8706" y="4.46516" width="2.86137" height="6.13982" rx="1.34873" transform="rotate(3.90934 14.8706 4.46516)" fill="white" stroke="black" stroke-width="0.499027"/>
<mask id="path-8-inside-1_1272_8853" fill="white">
<path fill-rule="evenodd" clip-rule="evenodd" d="M13.7535 7.8476C13.3122 8.61202 13.5741 9.58949 14.3385 10.0308L16.4388 11.2434V11.5111L13.44 13.2382C12.0223 14.0548 12.6016 16.2214 14.2376 16.2214L17.025 16.2214C17.6199 16.2214 18.1657 15.8909 18.4413 15.3637L19.5006 13.3375C19.5489 13.2451 19.5872 13.1516 19.6162 13.0578C19.733 12.8357 19.7992 12.5828 19.7992 12.3145V10.2655C19.7992 10.2605 19.7991 10.2556 19.7991 10.2506C19.8072 9.69016 19.5198 9.14199 18.9999 8.84182L16.0187 7.12064C15.2543 6.6793 14.2768 6.94121 13.8355 7.70564L13.7535 7.8476Z"/>
</mask>
<path fill-rule="evenodd" clip-rule="evenodd" d="M13.7535 7.8476C13.3122 8.61202 13.5741 9.58949 14.3385 10.0308L16.4388 11.2434V11.5111L13.44 13.2382C12.0223 14.0548 12.6016 16.2214 14.2376 16.2214L17.025 16.2214C17.6199 16.2214 18.1657 15.8909 18.4413 15.3637L19.5006 13.3375C19.5489 13.2451 19.5872 13.1516 19.6162 13.0578C19.733 12.8357 19.7992 12.5828 19.7992 12.3145V10.2655C19.7992 10.2605 19.7991 10.2556 19.7991 10.2506C19.8072 9.69016 19.5198 9.14199 18.9999 8.84182L16.0187 7.12064C15.2543 6.6793 14.2768 6.94121 13.8355 7.70564L13.7535 7.8476Z" fill="white"/>
<path d="M14.3385 10.0308L14.588 9.59866L14.588 9.59866L14.3385 10.0308ZM13.7535 7.8476L13.3213 7.59808L13.3213 7.59808L13.7535 7.8476ZM16.4388 11.2434H16.9378V10.9553L16.6883 10.8112L16.4388 11.2434ZM16.4388 11.5111L16.6878 11.9435L16.9378 11.7996V11.5111H16.4388ZM13.44 13.2382L13.1909 12.8058L13.1909 12.8058L13.44 13.2382ZM14.2376 16.2214L14.2376 16.7205L14.2376 16.7205L14.2376 16.2214ZM17.025 16.2214L17.025 15.7224L17.025 15.7224L17.025 16.2214ZM18.4413 15.3637L17.9991 15.1325L18.4413 15.3637ZM19.5006 13.3375L19.9429 13.5687L19.9429 13.5687L19.5006 13.3375ZM19.6162 13.0578L19.1746 12.8254L19.153 12.8663L19.1394 12.9105L19.6162 13.0578ZM19.7991 10.2506L19.3 10.2434L19.3001 10.2552L19.7991 10.2506ZM18.9999 8.84182L18.7504 9.27399L18.7504 9.27399L18.9999 8.84182ZM16.0187 7.12064L16.2682 6.68847L16.2682 6.68847L16.0187 7.12064ZM13.8355 7.70564L14.2676 7.95515L14.2676 7.95515L13.8355 7.70564ZM14.588 9.59866C14.0623 9.29513 13.8821 8.62286 14.1857 8.09711L13.3213 7.59808C12.7422 8.60119 13.0859 9.88386 14.089 10.463L14.588 9.59866ZM16.6883 10.8112L14.588 9.59866L14.089 10.463L16.1892 11.6756L16.6883 10.8112ZM15.9397 11.2434V11.5111H16.9378V11.2434H15.9397ZM16.1897 11.0787L13.1909 12.8058L13.689 13.6707L16.6878 11.9435L16.1897 11.0787ZM13.1909 12.8058C11.3305 13.8773 12.0908 16.7205 14.2376 16.7205L14.2376 15.7224C13.1124 15.7224 12.714 14.2323 13.689 13.6707L13.1909 12.8058ZM14.2376 16.7205L17.025 16.7205L17.025 15.7224L14.2376 15.7224L14.2376 16.7205ZM17.025 16.7205C17.8057 16.7205 18.5218 16.2868 18.8836 15.5949L17.9991 15.1325C17.8095 15.4951 17.4342 15.7224 17.025 15.7224L17.025 16.7205ZM18.8836 15.5949L19.9429 13.5687L19.0584 13.1063L17.9991 15.1325L18.8836 15.5949ZM19.9429 13.5687C20.0051 13.4497 20.055 13.3281 20.093 13.205L19.1394 12.9105C19.1194 12.9751 19.0928 13.0405 19.0584 13.1063L19.9429 13.5687ZM20.0578 13.2902C20.2114 12.9982 20.2982 12.6658 20.2982 12.3145H19.3001C19.3001 12.4999 19.2546 12.6733 19.1746 12.8254L20.0578 13.2902ZM20.2982 12.3145V10.2655H19.3001V12.3145H20.2982ZM20.2982 10.2655C20.2982 10.259 20.2982 10.2526 20.2981 10.2461L19.3001 10.2552C19.3001 10.2586 19.3001 10.262 19.3001 10.2655H20.2982ZM18.7504 9.27399C19.1074 9.48011 19.3057 9.85642 19.3001 10.2434L20.2981 10.2579C20.3087 9.52389 19.9322 8.80387 19.2494 8.40965L18.7504 9.27399ZM15.7692 7.55281L18.7504 9.27399L19.2494 8.40965L16.2682 6.68847L15.7692 7.55281ZM14.2676 7.95515C14.5712 7.42941 15.2434 7.24927 15.7692 7.55281L16.2682 6.68847C15.2651 6.10933 13.9824 6.45301 13.4033 7.45612L14.2676 7.95515ZM14.1857 8.09711L14.2676 7.95515L13.4033 7.45612L13.3213 7.59808L14.1857 8.09711Z" fill="black" mask="url(#path-8-inside-1_1272_8853)"/>
</svg>
