<svg width="33" height="43" viewBox="0 0 33 43" fill="none" xmlns="http://www.w3.org/2000/svg">
<path d="M8.56656 27.2338H22.7627C24.8205 27.2338 26.4464 28.9791 26.3007 31.0317L25.7349 39.0072C25.6031 40.864 24.0584 42.303 22.1969 42.303H9.04694C7.17086 42.303 5.61925 40.8421 5.50645 38.9694L5.02608 30.9939C4.90326 28.9549 6.5238 27.2338 8.56656 27.2338Z" fill="white" stroke="black" stroke-width="1.39726"/>
<path d="M7.15588 18.9564H24.4264C26.3853 18.9564 27.9733 20.5444 27.9733 22.5033V30.4788C27.9733 32.4377 26.3853 34.0257 24.4264 34.0257H7.69398C5.82776 34.0257 4.28075 32.5795 4.15513 30.7175L3.61703 22.7421C3.47884 20.6939 5.10301 18.9564 7.15588 18.9564Z" fill="white" stroke="black" stroke-width="1.39726"/>
<rect x="8.06582" y="8.76504" width="5.99626" height="13.3407" rx="2.99813" fill="white" stroke="black" stroke-width="1.39726"/>
<rect x="0.760009" y="0.630029" width="5.99684" height="13.3396" rx="2.99842" transform="matrix(0.995579 -0.0939278 0.0922764 0.995733 -0.0547768 9.83579)" fill="white" stroke="black" stroke-width="1.39726"/>
<rect x="14.977" y="8.76504" width="5.99626" height="13.3407" rx="2.99813" fill="white" stroke="black" stroke-width="1.39726"/>
<rect x="0.649766" y="0.74509" width="5.99657" height="21.424" rx="2.99828" transform="matrix(0.997631 0.0687877 -0.0675734 0.997714 22.2413 -0.0429929)" fill="white" stroke="black" stroke-width="1.39726"/>
<mask id="path-7-inside-1_1272_8163" fill="white">
<path fill-rule="evenodd" clip-rule="evenodd" d="M19.7918 16.0021C18.771 17.7861 19.3832 20.071 21.1593 21.1057L25.6066 23.6964V24.2938L22.0309 26.3718C18.0837 28.6656 19.7253 34.7509 24.2914 34.7509L26.3305 34.7509C27.9877 34.7509 29.5046 33.8263 30.2695 32.35L31.8758 29.2499C32.0652 28.8844 32.1928 28.5115 32.265 28.1398C32.7267 27.5229 33.0001 26.7569 33.0001 25.927V21.6757C33.0001 21.1817 32.9032 20.7103 32.7274 20.2795C32.444 19.4608 31.8784 18.7359 31.0742 18.2674L24.8561 14.6452C23.08 13.6105 20.8127 14.218 19.7918 16.0021Z"/>
</mask>
<path fill-rule="evenodd" clip-rule="evenodd" d="M19.7918 16.0021C18.771 17.7861 19.3832 20.071 21.1593 21.1057L25.6066 23.6964V24.2938L22.0309 26.3718C18.0837 28.6656 19.7253 34.7509 24.2914 34.7509L26.3305 34.7509C27.9877 34.7509 29.5046 33.8263 30.2695 32.35L31.8758 29.2499C32.0652 28.8844 32.1928 28.5115 32.265 28.1398C32.7267 27.5229 33.0001 26.7569 33.0001 25.927V21.6757C33.0001 21.1817 32.9032 20.7103 32.7274 20.2795C32.444 19.4608 31.8784 18.7359 31.0742 18.2674L24.8561 14.6452C23.08 13.6105 20.8127 14.218 19.7918 16.0021Z" fill="white"/>
<path d="M21.1593 21.1057L20.456 22.313L21.1593 21.1057ZM19.7918 16.0021L21.0046 16.696L21.0046 16.696L19.7918 16.0021ZM25.6066 23.6964H27.0039V22.8933L26.31 22.4891L25.6066 23.6964ZM25.6066 24.2938L26.3087 25.5019L27.0039 25.0979V24.2938H25.6066ZM22.0309 26.3718L21.3288 25.1637L21.3288 25.1637L22.0309 26.3718ZM24.2914 34.7509L24.2914 33.3536L24.2914 33.3536L24.2914 34.7509ZM26.3305 34.7509L26.3305 36.1482L26.3305 36.1482L26.3305 34.7509ZM30.2695 32.35L29.0289 31.7072L29.0289 31.7072L30.2695 32.35ZM31.8758 29.2499L33.1164 29.8927L33.1164 29.8927L31.8758 29.2499ZM32.265 28.1398L31.1463 27.3026L30.9544 27.5591L30.8934 27.8735L32.265 28.1398ZM32.7274 20.2795L31.407 20.7365L31.4194 20.7724L31.4338 20.8075L32.7274 20.2795ZM31.0742 18.2674L31.7775 17.0601L31.7775 17.0601L31.0742 18.2674ZM24.8561 14.6452L24.1527 15.8525L24.1527 15.8525L24.8561 14.6452ZM21.8626 19.8983C20.7497 19.25 20.3649 17.8139 21.0046 16.696L18.5791 15.3081C17.1771 17.7583 18.0168 20.8921 20.456 22.313L21.8626 19.8983ZM26.31 22.4891L21.8626 19.8983L20.456 22.313L24.9033 24.9038L26.31 22.4891ZM24.2094 23.6964V24.2938H27.0039V23.6964H24.2094ZM24.9046 23.0857L21.3288 25.1637L22.7329 27.5799L26.3087 25.5019L24.9046 23.0857ZM21.3288 25.1637C16.1456 28.1758 18.3 36.1481 24.2914 36.1482L24.2914 33.3536C21.1507 33.3536 20.0217 29.1554 22.7329 27.5799L21.3288 25.1637ZM24.2914 36.1482L26.3305 36.1482L26.3305 33.3536L24.2914 33.3536L24.2914 36.1482ZM26.3305 36.1482C28.5119 36.1482 30.506 34.9307 31.5101 32.9928L29.0289 31.7072C28.5031 32.722 27.4635 33.3536 26.3305 33.3536L26.3305 36.1482ZM31.5101 32.9928L33.1164 29.8927L30.6352 28.6071L29.0289 31.7072L31.5101 32.9928ZM33.1164 29.8927C33.3668 29.4094 33.5389 28.9098 33.6367 28.4061L30.8934 27.8735C30.8468 28.1132 30.7635 28.3593 30.6352 28.6071L33.1164 29.8927ZM33.3837 28.977C34.02 28.1267 34.3974 27.0689 34.3974 25.927H31.6029C31.6029 26.4448 31.4334 26.919 31.1463 27.3026L33.3837 28.977ZM34.3974 25.927V21.6757H31.6029V25.927H34.3974ZM34.3974 21.6757C34.3974 20.9975 34.2641 20.347 34.021 19.7514L31.4338 20.8075C31.5423 21.0736 31.6029 21.3658 31.6029 21.6757H34.3974ZM30.3708 19.4748C30.8743 19.7681 31.2283 20.2204 31.407 20.7365L34.0478 19.8224C33.6597 18.7013 32.8825 17.7038 31.7775 17.0601L30.3708 19.4748ZM24.1527 15.8525L30.3708 19.4748L31.7775 17.0601L25.5594 13.4378L24.1527 15.8525ZM21.0046 16.696C21.6401 15.5854 23.0471 15.2084 24.1527 15.8525L25.5594 13.4378C23.1129 12.0126 19.9853 12.8506 18.5791 15.3081L21.0046 16.696Z" fill="black" mask="url(#path-7-inside-1_1272_8163)"/>
</svg>
