<svg width="20" height="22" viewBox="0 0 20 22" fill="none" xmlns="http://www.w3.org/2000/svg">
<path d="M14.8274 0.466468C17.1263 -0.858903 20 0.797808 20 3.44855V18.55C20 21.4775 16.5736 23.0696 14.3308 21.1842L9.41511 17.052C9.10513 16.7914 8.75158 16.5874 8.37068 16.4494L2.27238 14.2394C-0.482478 13.2411 -0.813449 9.48368 1.72458 8.02046L14.8274 0.466468Z" fill="white"/>
<path d="M11.651 10.1423C11.9035 9.70562 12.4627 9.556 12.9 9.80812C13.3373 10.0603 13.4872 10.6187 13.2347 11.0553L10.5329 15.7282C10.2804 16.1649 9.7212 16.3145 9.28387 16.0624C8.84654 15.8103 8.6967 15.2519 8.9492 14.8152L11.651 10.1423Z" fill="#656565"/>
</svg>
