<svg width="20" height="22" viewBox="0 0 20 22" fill="none" xmlns="http://www.w3.org/2000/svg">
<path d="M14.8274 0.466468C17.1263 -0.858903 20 0.797808 20 3.44855V18.55C20 21.4775 16.5736 23.0696 14.3308 21.1842L9.41511 17.052C9.10513 16.7914 8.75158 16.5874 8.37068 16.4494L2.27238 14.2394C-0.482478 13.2411 -0.813449 9.48368 1.72458 8.02046L14.8274 0.466468Z" fill="#D9D9D9"/>
<path d="M19.5 3.44855V18.55C19.5 21.0511 16.5712 22.4144 14.6525 20.8015L9.73685 16.6692C9.3819 16.3709 8.97711 16.1373 8.54104 15.9793L2.44273 13.7693C0.0873144 12.9157 -0.19508 9.70432 1.97431 8.45363L15.0771 0.899637C17.0438 -0.234187 19.5 1.18382 19.5 3.44855Z" stroke="black"/>
<path d="M11.2932 10.4567C11.5457 10.02 12.1049 9.87035 12.5422 10.1225C12.9795 10.3746 13.1294 10.933 12.8769 11.3697L10.1751 16.0426C9.92262 16.4793 9.36341 16.6289 8.92608 16.3768C8.48875 16.1246 8.33891 15.5662 8.5914 15.1295L11.2932 10.4567Z" fill="#656565"/>
<path d="M12.444 11.1194L9.74225 15.7923C9.62803 15.9898 9.37441 16.0581 9.17581 15.9436C8.97763 15.8293 8.91028 15.5769 9.02426 15.3798L11.726 10.7069C11.8403 10.5094 12.0939 10.4411 12.2925 10.5556C12.4907 10.6699 12.558 10.9223 12.444 11.1194Z" stroke="black"/>
</svg>
