<svg width="102" height="160" viewBox="0 0 102 160" fill="none" xmlns="http://www.w3.org/2000/svg">
<g filter="url(#filter0_d_1733_7502)">
<circle cx="52" cy="108" r="50" fill="#FF4800"/>
<circle cx="52" cy="108" r="49.5" stroke="black"/>
</g>
<g filter="url(#filter1_d_1733_7502)">
<circle cx="34" cy="99" r="9" fill="#FFFCF3"/>
<circle cx="34" cy="99" r="8.5" stroke="black"/>
</g>
<g filter="url(#filter2_d_1733_7502)">
<circle cx="71" cy="99" r="9" fill="#FFFCF3"/>
<circle cx="71" cy="99" r="8.5" stroke="black"/>
</g>
<g filter="url(#filter3_d_1733_7502)">
<mask id="path-7-inside-1_1733_7502" fill="white">
<path d="M72 119C72 121.626 71.4827 124.227 70.4776 126.654C69.4725 129.08 67.9993 131.285 66.1421 133.142C64.285 134.999 62.0802 136.472 59.6537 137.478C57.2272 138.483 54.6264 139 52 139C49.3736 139 46.7728 138.483 44.3463 137.478C41.9198 136.472 39.715 134.999 37.8579 133.142C36.0007 131.285 34.5275 129.08 33.5224 126.654C32.5173 124.227 32 121.626 32 119L52 119H72Z"/>
</mask>
<path d="M72 119C72 121.626 71.4827 124.227 70.4776 126.654C69.4725 129.08 67.9993 131.285 66.1421 133.142C64.285 134.999 62.0802 136.472 59.6537 137.478C57.2272 138.483 54.6264 139 52 139C49.3736 139 46.7728 138.483 44.3463 137.478C41.9198 136.472 39.715 134.999 37.8579 133.142C36.0007 131.285 34.5275 129.08 33.5224 126.654C32.5173 124.227 32 121.626 32 119L52 119H72Z" fill="#FFFCF3"/>
<path d="M72 119C72 121.626 71.4827 124.227 70.4776 126.654C69.4725 129.08 67.9993 131.285 66.1421 133.142C64.285 134.999 62.0802 136.472 59.6537 137.478C57.2272 138.483 54.6264 139 52 139C49.3736 139 46.7728 138.483 44.3463 137.478C41.9198 136.472 39.715 134.999 37.8579 133.142C36.0007 131.285 34.5275 129.08 33.5224 126.654C32.5173 124.227 32 121.626 32 119L52 119H72Z" stroke="black" stroke-width="2" mask="url(#path-7-inside-1_1733_7502)"/>
</g>
<g filter="url(#filter4_d_1733_7502)">
<path d="M59.4666 6.49134C59.7539 2.99565 56.9943 7.092e-08 53.4868 8.25492e-08L49.1795 9.68302e-08C45.612 1.08658e-07 42.8326 3.09419 43.2139 6.64124L45.0412 23.6412C45.3688 26.6892 47.9413 29 51.0068 29L52.09 29C55.2132 29 57.8141 26.6041 58.0698 23.4913L59.4666 6.49134Z" fill="#FF4800"/>
<path d="M58.9683 6.4504C59.2316 3.24601 56.702 0.5 53.4868 0.5L49.1795 0.5C45.9093 0.5 43.3615 3.33634 43.711 6.5878L45.5383 23.5878C45.8386 26.3818 48.1968 28.5 51.0068 28.5L52.09 28.5C54.9529 28.5 57.337 26.3037 57.5715 23.4504L58.9683 6.4504Z" stroke="black"/>
</g>
<g filter="url(#filter5_d_1733_7502)">
<circle cx="51.8301" cy="40.293" r="5" transform="rotate(-30 51.8301 40.293)" fill="#FF4800"/>
<circle cx="51.8301" cy="40.293" r="4.5" transform="rotate(-30 51.8301 40.293)" stroke="black"/>
</g>
<defs>
<filter id="filter0_d_1733_7502" x="0" y="58" width="102" height="102" filterUnits="userSpaceOnUse" color-interpolation-filters="sRGB">
<feFlood flood-opacity="0" result="BackgroundImageFix"/>
<feColorMatrix in="SourceAlpha" type="matrix" values="0 0 0 0 0 0 0 0 0 0 0 0 0 0 0 0 0 0 127 0" result="hardAlpha"/>
<feOffset dx="-2" dy="2"/>
<feComposite in2="hardAlpha" operator="out"/>
<feColorMatrix type="matrix" values="0 0 0 0 0 0 0 0 0 0 0 0 0 0 0 0 0 0 1 0"/>
<feBlend mode="normal" in2="BackgroundImageFix" result="effect1_dropShadow_1733_7502"/>
<feBlend mode="normal" in="SourceGraphic" in2="effect1_dropShadow_1733_7502" result="shape"/>
</filter>
<filter id="filter1_d_1733_7502" x="23" y="90" width="20" height="20" filterUnits="userSpaceOnUse" color-interpolation-filters="sRGB">
<feFlood flood-opacity="0" result="BackgroundImageFix"/>
<feColorMatrix in="SourceAlpha" type="matrix" values="0 0 0 0 0 0 0 0 0 0 0 0 0 0 0 0 0 0 127 0" result="hardAlpha"/>
<feOffset dx="-2" dy="2"/>
<feComposite in2="hardAlpha" operator="out"/>
<feColorMatrix type="matrix" values="0 0 0 0 0 0 0 0 0 0 0 0 0 0 0 0 0 0 1 0"/>
<feBlend mode="normal" in2="BackgroundImageFix" result="effect1_dropShadow_1733_7502"/>
<feBlend mode="normal" in="SourceGraphic" in2="effect1_dropShadow_1733_7502" result="shape"/>
</filter>
<filter id="filter2_d_1733_7502" x="60" y="90" width="20" height="20" filterUnits="userSpaceOnUse" color-interpolation-filters="sRGB">
<feFlood flood-opacity="0" result="BackgroundImageFix"/>
<feColorMatrix in="SourceAlpha" type="matrix" values="0 0 0 0 0 0 0 0 0 0 0 0 0 0 0 0 0 0 127 0" result="hardAlpha"/>
<feOffset dx="-2" dy="2"/>
<feComposite in2="hardAlpha" operator="out"/>
<feColorMatrix type="matrix" values="0 0 0 0 0 0 0 0 0 0 0 0 0 0 0 0 0 0 1 0"/>
<feBlend mode="normal" in2="BackgroundImageFix" result="effect1_dropShadow_1733_7502"/>
<feBlend mode="normal" in="SourceGraphic" in2="effect1_dropShadow_1733_7502" result="shape"/>
</filter>
<filter id="filter3_d_1733_7502" x="29" y="119" width="43" height="23" filterUnits="userSpaceOnUse" color-interpolation-filters="sRGB">
<feFlood flood-opacity="0" result="BackgroundImageFix"/>
<feColorMatrix in="SourceAlpha" type="matrix" values="0 0 0 0 0 0 0 0 0 0 0 0 0 0 0 0 0 0 127 0" result="hardAlpha"/>
<feMorphology radius="1" operator="dilate" in="SourceAlpha" result="effect1_dropShadow_1733_7502"/>
<feOffset dx="-2" dy="2"/>
<feComposite in2="hardAlpha" operator="out"/>
<feColorMatrix type="matrix" values="0 0 0 0 0 0 0 0 0 0 0 0 0 0 0 0 0 0 1 0"/>
<feBlend mode="normal" in2="BackgroundImageFix" result="effect1_dropShadow_1733_7502"/>
<feBlend mode="normal" in="SourceGraphic" in2="effect1_dropShadow_1733_7502" result="shape"/>
</filter>
<filter id="filter4_d_1733_7502" x="40.1797" y="0" width="19.3086" height="32" filterUnits="userSpaceOnUse" color-interpolation-filters="sRGB">
<feFlood flood-opacity="0" result="BackgroundImageFix"/>
<feColorMatrix in="SourceAlpha" type="matrix" values="0 0 0 0 0 0 0 0 0 0 0 0 0 0 0 0 0 0 127 0" result="hardAlpha"/>
<feMorphology radius="1" operator="dilate" in="SourceAlpha" result="effect1_dropShadow_1733_7502"/>
<feOffset dx="-2" dy="2"/>
<feComposite in2="hardAlpha" operator="out"/>
<feColorMatrix type="matrix" values="0 0 0 0 0 0 0 0 0 0 0 0 0 0 0 0 0 0 1 0"/>
<feBlend mode="normal" in2="BackgroundImageFix" result="effect1_dropShadow_1733_7502"/>
<feBlend mode="normal" in="SourceGraphic" in2="effect1_dropShadow_1733_7502" result="shape"/>
</filter>
<filter id="filter5_d_1733_7502" x="43.8281" y="35.293" width="13.0039" height="13" filterUnits="userSpaceOnUse" color-interpolation-filters="sRGB">
<feFlood flood-opacity="0" result="BackgroundImageFix"/>
<feColorMatrix in="SourceAlpha" type="matrix" values="0 0 0 0 0 0 0 0 0 0 0 0 0 0 0 0 0 0 127 0" result="hardAlpha"/>
<feMorphology radius="1" operator="dilate" in="SourceAlpha" result="effect1_dropShadow_1733_7502"/>
<feOffset dx="-2" dy="2"/>
<feComposite in2="hardAlpha" operator="out"/>
<feColorMatrix type="matrix" values="0 0 0 0 0 0 0 0 0 0 0 0 0 0 0 0 0 0 1 0"/>
<feBlend mode="normal" in2="BackgroundImageFix" result="effect1_dropShadow_1733_7502"/>
<feBlend mode="normal" in="SourceGraphic" in2="effect1_dropShadow_1733_7502" result="shape"/>
</filter>
</defs>
</svg>
