<svg width="40" height="40" viewBox="0 0 40 40" fill="none" xmlns="http://www.w3.org/2000/svg">
<circle cx="20" cy="20" r="19.5" fill="#FFFCF3" stroke="black"/>
<mask id="path-2-inside-1_1272_7697" fill="white">
<path fill-rule="evenodd" clip-rule="evenodd" d="M31.2803 27.81C32.2388 28.7685 32.2388 30.3226 31.2803 31.2811C30.3218 32.2396 28.7678 32.2396 27.8093 31.2811L20 23.4715L12.1907 31.2811C11.2322 32.2396 9.67822 32.2396 8.71973 31.2811C7.76124 30.3226 7.76124 28.7685 8.71973 27.81L16.529 20.0004L8.71886 12.19C7.76038 11.2315 7.76038 9.67741 8.71886 8.71889C9.67735 7.76037 11.2314 7.76037 12.1899 8.71889L20 16.5293L27.8102 8.71889C28.7686 7.76037 30.3227 7.76037 31.2811 8.71889C32.2396 9.67741 32.2396 11.2315 31.2811 12.19L23.471 20.0004L31.2803 27.81Z"/>
</mask>
<path fill-rule="evenodd" clip-rule="evenodd" d="M31.2803 27.81C32.2388 28.7685 32.2388 30.3226 31.2803 31.2811C30.3218 32.2396 28.7678 32.2396 27.8093 31.2811L20 23.4715L12.1907 31.2811C11.2322 32.2396 9.67822 32.2396 8.71973 31.2811C7.76124 30.3226 7.76124 28.7685 8.71973 27.81L16.529 20.0004L8.71886 12.19C7.76038 11.2315 7.76038 9.67741 8.71886 8.71889C9.67735 7.76037 11.2314 7.76037 12.1899 8.71889L20 16.5293L27.8102 8.71889C28.7686 7.76037 30.3227 7.76037 31.2811 8.71889C32.2396 9.67741 32.2396 11.2315 31.2811 12.19L23.471 20.0004L31.2803 27.81Z" fill="black"/>
<path d="M31.2803 27.81L30.5732 28.5171L30.5732 28.5171L31.2803 27.81ZM27.8093 31.2811L27.1022 31.9882L27.1022 31.9882L27.8093 31.2811ZM20 23.4715L20.7071 22.7644L20 22.0573L19.2929 22.7644L20 23.4715ZM12.1907 31.2811L11.4836 30.574L11.4836 30.574L12.1907 31.2811ZM8.71973 31.2811L9.42685 30.574L9.42685 30.574L8.71973 31.2811ZM8.71973 27.81L8.01261 27.1029L8.01261 27.1029L8.71973 27.81ZM16.529 20.0004L17.2361 20.7075L17.9432 20.0004L17.2361 19.2933L16.529 20.0004ZM8.71886 12.19L9.42598 11.4829L9.42598 11.4829L8.71886 12.19ZM8.71886 8.71889L8.01175 8.0118L8.71886 8.71889ZM12.1899 8.71889L11.4827 9.42598L11.4827 9.42598L12.1899 8.71889ZM20 16.5293L19.2929 17.2364L20 17.9436L20.7071 17.2364L20 16.5293ZM27.8102 8.71889L27.103 8.0118L27.103 8.0118L27.8102 8.71889ZM31.2811 8.71889L30.574 9.42598L30.574 9.42598L31.2811 8.71889ZM31.2811 12.19L30.574 11.4829L30.574 11.4829L31.2811 12.19ZM23.471 20.0004L22.7639 19.2933L22.0568 20.0004L22.7639 20.7075L23.471 20.0004ZM31.9874 31.9882C33.3364 30.6392 33.3364 28.4519 31.9874 27.1029L30.5732 28.5171C31.1411 29.0851 31.1411 30.006 30.5732 30.574L31.9874 31.9882ZM27.1022 31.9882C28.4512 33.3373 30.6384 33.3373 31.9874 31.9882L30.5732 30.574C30.0052 31.142 29.0844 31.142 28.5164 30.574L27.1022 31.9882ZM19.2929 24.1786L27.1022 31.9882L28.5164 30.574L20.7071 22.7644L19.2929 24.1786ZM19.2929 22.7644L11.4836 30.574L12.8978 31.9882L20.7071 24.1786L19.2929 22.7644ZM11.4836 30.574C10.9156 31.142 9.99481 31.142 9.42685 30.574L8.01261 31.9882C9.36162 33.3373 11.5488 33.3373 12.8978 31.9882L11.4836 30.574ZM9.42685 30.574C8.85887 30.006 8.85887 29.0851 9.42685 28.5171L8.01261 27.1029C6.66362 28.4519 6.66362 30.6392 8.01261 31.9882L9.42685 30.574ZM9.42685 28.5171L17.2361 20.7075L15.8219 19.2933L8.01261 27.1029L9.42685 28.5171ZM8.01175 12.8971L15.8219 20.7075L17.2361 19.2933L9.42598 11.4829L8.01175 12.8971ZM8.01175 8.0118C6.66275 9.36084 6.66275 11.5481 8.01175 12.8971L9.42598 11.4829C8.85801 10.9149 8.85801 9.99398 9.42598 9.42598L8.01175 8.0118ZM12.897 8.0118C11.548 6.66273 9.36076 6.66273 8.01175 8.0118L9.42598 9.42598C9.99394 8.85801 10.9148 8.85801 11.4827 9.42598L12.897 8.0118ZM20.7071 15.8222L12.897 8.0118L11.4827 9.42598L19.2929 17.2364L20.7071 15.8222ZM20.7071 17.2364L28.5173 9.42598L27.103 8.0118L19.2929 15.8222L20.7071 17.2364ZM28.5173 9.42598C29.0852 8.85801 30.0061 8.85801 30.574 9.42598L31.9883 8.0118C30.6392 6.66273 28.452 6.66273 27.103 8.0118L28.5173 9.42598ZM30.574 9.42598C31.142 9.99398 31.142 10.9149 30.574 11.4829L31.9883 12.8971C33.3373 11.5481 33.3373 9.36084 31.9883 8.0118L30.574 9.42598ZM30.574 11.4829L22.7639 19.2933L24.1781 20.7075L31.9883 12.8971L30.574 11.4829ZM31.9874 27.1029L24.1781 19.2933L22.7639 20.7075L30.5732 28.5171L31.9874 27.1029Z" fill="black" mask="url(#path-2-inside-1_1272_7697)"/>
</svg>
