<svg width="16" height="16" viewBox="0 0 16 16" fill="none" xmlns="http://www.w3.org/2000/svg">
<path d="M9.44096 3.18265L11.3765 1.24714C11.5348 1.0889 11.7494 1 11.9733 1C12.1971 1 12.4117 1.0889 12.57 1.24714L14.7529 3.42997C14.9111 3.58826 15 3.80292 15 4.02675C15 4.25057 14.9111 4.46523 14.7529 4.62352L12.8173 6.55904M9.44096 3.18265L1.24732 11.3763C1.08901 11.5346 1.00005 11.7492 1 11.9731V14.1559C1 14.3798 1.08893 14.5945 1.24723 14.7528C1.40553 14.9111 1.62023 15 1.8441 15H4.02693C4.25078 15 4.46544 14.911 4.62371 14.7527L12.8173 6.55904M9.44096 3.18265L12.8173 6.55904" stroke="white" stroke-width="1.8" stroke-linecap="round" stroke-linejoin="round"/>
</svg>
