<svg width="20" height="32" viewBox="0 0 20 32" fill="none" xmlns="http://www.w3.org/2000/svg">
<g filter="url(#filter0_d_1667_7909)">
<path d="M19.4666 6.49134C19.7539 2.99565 16.9943 7.092e-08 13.4868 8.25492e-08L9.1795 9.68302e-08C5.61202 1.08658e-07 2.83259 3.09419 3.21386 6.64124L5.04118 23.6412C5.3688 26.6892 7.94131 29 11.0068 29L12.09 29C15.2132 29 17.8141 26.6041 18.0698 23.4913L19.4666 6.49134Z" fill="#FF4800"/>
<path d="M18.9683 6.4504C19.2316 3.24601 16.702 0.5 13.4868 0.5L9.1795 0.5C5.90931 0.5 3.3615 3.33634 3.711 6.5878L5.53831 23.5878C5.83863 26.3818 8.19677 28.5 11.0068 28.5L12.09 28.5C14.9529 28.5 17.337 26.3037 17.5715 23.4504L18.9683 6.4504Z" stroke="black"/>
</g>
<defs>
<filter id="filter0_d_1667_7909" x="0.179688" y="0" width="19.3086" height="32" filterUnits="userSpaceOnUse" color-interpolation-filters="sRGB">
<feFlood flood-opacity="0" result="BackgroundImageFix"/>
<feColorMatrix in="SourceAlpha" type="matrix" values="0 0 0 0 0 0 0 0 0 0 0 0 0 0 0 0 0 0 127 0" result="hardAlpha"/>
<feMorphology radius="1" operator="dilate" in="SourceAlpha" result="effect1_dropShadow_1667_7909"/>
<feOffset dx="-2" dy="2"/>
<feComposite in2="hardAlpha" operator="out"/>
<feColorMatrix type="matrix" values="0 0 0 0 0 0 0 0 0 0 0 0 0 0 0 0 0 0 1 0"/>
<feBlend mode="normal" in2="BackgroundImageFix" result="effect1_dropShadow_1667_7909"/>
<feBlend mode="normal" in="SourceGraphic" in2="effect1_dropShadow_1667_7909" result="shape"/>
</filter>
</defs>
</svg>
